{"glyphs":{"0":{"ha":625,"x_min":0,"x_max":0,"o":"m 313 -21 b 64 233 138 -21 64 93 l 64 769 b 313 1024 64 910 138 1024 b 561 769 488 1024 561 910 l 561 233 b 313 -21 561 93 488 -21 m 104 238 b 313 18 104 119 157 18 b 521 238 468 18 521 119 l 521 765 b 313 985 521 883 468 985 b 104 765 157 985 104 883 m 313 68 b 156 243 193 68 156 151 l 156 760 b 313 935 156 851 193 935 b 469 760 432 935 469 851 l 469 243 b 313 68 469 151 432 68 m 196 249 b 313 107 196 168 229 107 b 429 249 396 107 429 168 l 429 754 b 313 896 429 835 396 896 b 196 754 229 896 196 835 "},"1":{"ha":379,"x_min":0,"x_max":0,"o":"m 261 0 l 261 964 l 185 964 l 39 811 l 14 835 l 175 1003 l 301 1003 l 301 0 m 169 0 l 169 842 l 92 763 l 67 786 l 210 932 l 210 0 "},"2":{"ha":608,"x_min":0,"x_max":0,"o":"m 156 226 b 301 396 156 307 181 329 l 392 444 b 518 631 492 499 518 532 l 518 765 b 313 985 518 883 468 985 b 104 765 157 985 104 883 l 104 653 l 64 653 l 64 769 b 313 1024 64 910 138 1024 b 558 769 488 1024 558 910 l 558 618 b 433 418 558 511 519 465 l 342 368 b 196 211 207 294 196 285 l 196 125 l 558 125 l 558 86 l 156 86 m 558 39 l 558 0 l 64 0 l 64 258 b 214 457 64 363 124 408 l 297 501 b 426 658 424 568 426 585 l 426 754 b 313 896 426 835 396 896 b 194 754 228 896 194 835 l 194 653 l 154 653 l 154 760 b 313 935 154 851 193 935 b 467 760 432 935 467 851 l 467 646 b 339 475 467 563 456 536 l 253 429 b 104 244 149 374 104 339 l 104 39 "},"3":{"ha":610,"x_min":0,"x_max":0,"o":"m 457 453 b 550 279 524 433 550 353 l 550 233 b 301 -21 550 93 476 -21 b 53 233 126 -21 53 93 l 53 268 l 93 268 l 93 238 b 301 18 93 119 146 18 b 510 238 457 18 510 119 l 510 276 b 389 453 510 350 489 424 b 510 629 489 482 510 556 l 510 765 b 301 985 510 883 457 985 b 93 765 146 985 93 883 l 93 653 l 53 653 l 53 769 b 301 1024 53 910 126 1024 b 550 769 476 1024 550 910 l 550 626 b 457 453 550 551 524 472 m 181 515 l 300 515 b 418 638 385 515 418 565 l 418 754 b 301 896 418 835 385 896 b 183 754 218 896 183 835 l 183 653 l 143 653 l 143 760 b 301 935 143 851 182 935 b 458 760 421 935 458 851 l 458 633 b 303 475 458 563 424 475 l 181 475 m 181 431 l 303 431 b 458 272 424 431 458 343 l 458 243 b 301 68 458 151 421 68 b 143 243 182 68 143 151 l 143 268 l 183 268 l 183 249 b 301 107 183 168 218 107 b 418 249 385 107 418 168 l 418 268 b 300 390 418 339 385 390 l 181 390 "},"4":{"ha":629,"x_min":0,"x_max":0,"o":"m 381 0 l 381 247 l 32 247 l 32 361 l 254 1003 l 294 1003 l 72 361 l 72 286 l 421 286 l 421 0 m 124 363 l 347 1003 l 388 1003 l 168 372 l 381 372 l 381 749 l 421 749 l 421 333 l 124 333 m 472 333 l 472 749 l 513 749 l 513 372 l 597 372 l 597 333 m 472 0 l 472 286 l 597 286 l 597 247 l 513 247 l 513 0 "},"5":{"ha":613,"x_min":0,"x_max":0,"o":"m 107 208 b 314 18 115 103 171 18 b 522 238 469 18 522 119 l 522 331 b 485 518 522 410 514 472 b 356 582 457 561 417 582 b 157 428 206 582 161 442 l 157 917 l 536 917 l 536 878 l 197 878 l 197 543 b 364 621 219 572 274 621 b 518 542 439 621 488 588 b 563 335 551 492 563 425 l 563 233 b 314 -21 563 93 489 -21 b 67 208 150 -21 75 81 m 65 361 l 65 1003 l 536 1003 l 536 964 l 106 964 l 106 361 m 165 361 b 344 535 188 451 235 535 b 440 482 390 535 418 518 b 471 325 464 444 471 392 l 471 243 b 314 68 471 151 433 68 b 156 208 210 68 165 131 l 199 208 b 314 107 210 146 246 107 b 431 249 397 107 431 168 l 431 321 b 410 458 431 378 429 425 b 338 496 394 485 371 496 b 201 361 261 496 219 438 "},"6":{"ha":619,"x_min":0,"x_max":0,"o":"m 521 331 b 483 518 521 410 513 472 b 354 582 456 561 415 582 b 156 428 204 582 160 442 l 156 760 b 313 935 156 851 193 935 b 471 760 432 935 471 851 l 471 708 l 431 708 l 431 754 b 313 896 431 835 397 896 b 196 754 229 896 196 835 l 196 543 b 363 621 218 572 272 621 b 517 542 438 621 486 588 b 561 335 550 492 561 425 l 561 233 b 313 -21 561 93 488 -21 b 64 233 138 -21 64 93 l 64 769 b 313 1024 64 910 138 1024 b 561 769 488 1024 561 910 l 561 708 l 521 708 l 521 765 b 313 985 521 883 468 985 b 104 765 157 985 104 883 l 104 238 b 313 18 104 119 157 18 b 521 238 468 18 521 119 m 156 258 b 343 535 156 392 196 535 b 439 482 389 535 417 518 b 469 325 463 444 469 392 l 469 243 b 313 68 469 151 432 68 b 156 243 193 68 156 151 m 196 249 b 313 107 196 168 229 107 b 429 249 396 107 429 168 l 429 321 b 408 458 429 378 428 425 b 336 496 393 485 369 496 b 196 264 229 496 196 386 "},"7":{"ha":525,"x_min":0,"x_max":0,"o":"m 147 0 l 456 889 l 456 964 l 33 964 l 33 1003 l 496 1003 l 496 889 l 188 0 m 54 0 l 360 878 l 33 878 l 33 917 l 404 917 l 404 888 l 94 0 "},"8":{"ha":617,"x_min":0,"x_max":0,"o":"m 153 453 b 60 626 86 472 60 551 l 60 769 b 308 1024 60 910 133 1024 b 557 769 483 1024 557 910 l 557 626 b 464 453 557 551 531 472 b 557 279 531 433 557 353 l 557 233 b 308 -21 557 93 483 -21 b 60 233 133 -21 60 93 l 60 279 b 153 453 60 353 86 433 m 517 765 b 308 985 517 883 464 985 b 100 765 153 985 100 883 l 100 629 b 221 453 100 556 121 482 b 100 276 121 424 100 350 l 100 238 b 308 18 100 119 153 18 b 517 238 464 18 517 119 l 517 276 b 396 453 517 350 496 424 b 517 629 496 482 517 556 m 465 633 b 308 475 465 563 431 475 b 151 633 186 475 151 563 l 151 760 b 308 935 151 851 189 935 b 465 760 428 935 465 851 m 465 243 b 308 68 465 151 428 68 b 151 243 189 68 151 151 l 151 272 b 308 431 151 343 186 431 b 465 272 431 431 465 343 m 425 754 b 308 896 425 835 392 896 b 192 754 225 896 192 835 l 192 638 b 308 515 192 565 225 515 b 425 638 392 515 425 565 m 425 268 b 308 390 425 339 392 390 b 192 268 225 390 192 339 l 192 249 b 308 107 192 168 225 107 b 425 249 392 107 425 168 "},"9":{"ha":619,"x_min":0,"x_max":0,"o":"m 99 672 b 136 485 99 593 107 531 b 265 421 164 442 204 421 b 464 575 415 421 460 561 l 464 243 b 307 68 464 151 426 68 b 149 243 188 68 149 151 l 149 268 l 189 268 l 189 249 b 307 107 189 168 222 107 b 424 249 390 107 424 168 l 424 460 b 257 382 401 431 347 382 b 103 461 182 382 133 415 b 58 668 69 511 58 578 l 58 769 b 307 1024 58 910 132 1024 b 556 769 482 1024 556 910 l 556 233 b 307 -21 556 93 482 -21 b 58 233 132 -21 58 93 l 58 268 l 99 268 l 99 238 b 307 18 99 119 151 18 b 515 238 463 18 515 119 l 515 765 b 307 985 515 883 463 985 b 99 765 151 985 99 883 m 464 744 b 276 468 464 611 424 468 b 181 521 231 468 203 485 b 150 678 157 558 150 611 l 150 760 b 307 935 150 851 188 935 b 464 760 426 935 464 851 m 424 754 b 307 896 424 835 390 896 b 190 754 224 896 190 835 l 190 682 b 211 544 190 625 192 578 b 283 507 226 518 250 507 b 424 739 390 507 424 617 "},"ð":{"ha":671,"x_min":0,"x_max":0,"o":"m 29 476 l 29 515 l 126 515 l 126 1003 l 425 1003 b 599 821 549 1003 599 925 l 599 182 b 425 0 599 78 549 0 l 126 0 l 126 390 l 29 390 l 29 429 l 167 429 l 167 39 l 417 39 b 558 185 518 39 558 101 l 558 818 b 417 964 558 901 518 964 l 167 964 l 167 476 m 218 476 l 218 917 l 406 917 b 507 814 481 917 507 872 l 507 189 b 406 86 507 131 481 86 l 218 86 l 218 429 l 376 429 l 376 390 l 258 390 l 258 125 l 397 125 b 467 193 451 125 467 153 l 467 810 b 397 878 467 850 451 878 l 258 878 l 258 515 l 376 515 l 376 476 "},"Ł":{"ha":513,"x_min":0,"x_max":0,"o":"m 142 0 l 142 386 l 74 343 l 53 374 l 182 456 l 182 39 l 486 39 l 486 0 m 233 86 l 233 488 l 425 608 l 444 578 l 274 469 l 274 125 l 486 125 l 486 86 m 31 407 l 10 438 l 142 522 l 142 1003 l 182 1003 l 182 506 m 233 539 l 233 1003 l 274 1003 l 274 608 l 381 678 l 400 647 "},"ł":{"ha":513,"x_min":0,"x_max":0,"o":"m 142 0 l 142 386 l 74 343 l 53 374 l 182 456 l 182 39 l 486 39 l 486 0 m 233 86 l 233 488 l 425 608 l 444 578 l 274 469 l 274 125 l 486 125 l 486 86 m 31 407 l 10 438 l 142 522 l 142 1003 l 182 1003 l 182 506 m 233 539 l 233 1003 l 274 1003 l 274 608 l 381 678 l 400 647 "},"Š":{"ha":599,"x_min":0,"x_max":0,"o":""},"š":{"ha":599,"x_min":0,"x_max":0,"o":"m 504 289 b 356 474 504 383 460 418 l 269 519 b 142 690 153 581 142 607 l 142 760 b 297 935 142 851 179 935 b 454 760 415 935 454 851 l 454 653 l 414 653 l 414 754 b 297 896 414 835 381 896 b 182 754 215 896 182 835 l 182 703 b 311 546 182 629 185 613 l 394 501 b 544 303 485 453 544 407 l 544 233 b 296 -21 544 93 471 -21 b 47 233 121 -21 47 93 l 47 268 l 88 268 l 88 238 b 296 18 88 119 140 18 b 504 238 451 18 504 119 m 413 256 b 267 413 413 329 401 339 l 175 463 b 50 663 89 510 50 556 l 50 769 b 297 1024 50 910 124 1024 b 544 769 471 1024 544 910 l 544 653 l 504 653 l 504 765 b 297 985 504 883 451 985 b 90 765 143 985 90 883 l 90 675 b 217 489 90 576 117 543 l 307 440 b 453 271 428 374 453 351 l 453 243 b 296 68 453 151 415 68 b 138 243 176 68 138 151 l 138 268 l 178 268 l 178 249 b 296 107 178 168 211 107 b 413 249 379 107 413 168 m 475 1243 l 364 1090 l 228 1090 l 117 1243 l 157 1243 l 249 1117 l 343 1117 l 435 1243 m 396 1243 l 328 1150 l 264 1150 l 196 1243 l 236 1243 l 296 1158 l 356 1243 "},"Ý":{"ha":575,"x_min":0,"x_max":0,"o":""},"ý":{"ha":642,"x_min":0,"x_max":0,"o":"m 110 1003 l 110 671 b 147 483 110 592 118 529 b 276 419 175 440 215 419 b 475 574 425 419 471 560 l 475 243 b 318 68 475 151 438 68 b 160 243 199 68 160 151 l 160 268 l 200 268 l 200 249 b 318 107 200 168 235 107 b 435 249 401 107 435 168 l 435 447 b 268 381 396 410 353 381 b 114 460 193 381 144 414 b 69 667 81 510 69 576 l 69 1003 m 567 1003 l 567 233 b 318 -21 567 93 493 -21 b 69 233 143 -21 69 93 l 69 268 l 110 268 l 110 238 b 318 18 110 119 163 18 b 526 238 474 18 526 119 l 526 1003 m 201 1003 l 201 681 b 222 543 201 624 203 576 b 294 506 238 517 261 506 b 435 738 401 506 435 615 l 435 1003 l 475 1003 l 475 743 b 288 467 475 610 435 467 b 192 519 242 467 214 483 b 161 676 168 557 161 610 l 161 1003 m 257 1090 l 354 1243 l 394 1243 l 296 1090 m 336 1090 l 464 1243 l 506 1243 l 376 1090 "},"Þ":{"ha":604,"x_min":0,"x_max":0,"o":"m 169 1003 l 210 1003 l 210 810 l 376 810 b 550 628 500 810 550 732 l 550 375 b 376 193 550 271 500 193 l 210 193 l 210 0 l 169 0 l 169 232 l 368 232 b 510 378 469 232 510 294 l 510 625 b 368 771 510 708 469 771 l 169 771 m 118 1003 l 118 0 l 78 0 l 78 1003 m 357 724 b 458 621 432 724 458 679 l 458 382 b 357 279 458 324 432 279 l 169 279 l 169 724 m 210 318 l 349 318 b 418 386 403 318 418 346 l 418 617 b 349 685 418 657 403 685 l 210 685 "},"þ":{"ha":604,"x_min":0,"x_max":0,"o":"m 169 1003 l 210 1003 l 210 810 l 376 810 b 550 628 500 810 550 732 l 550 375 b 376 193 550 271 500 193 l 210 193 l 210 0 l 169 0 l 169 232 l 368 232 b 510 378 469 232 510 294 l 510 625 b 368 771 510 708 469 771 l 169 771 m 118 1003 l 118 0 l 78 0 l 78 1003 m 357 724 b 458 621 432 724 458 679 l 458 382 b 357 279 458 324 432 279 l 169 279 l 169 724 m 210 318 l 349 318 b 418 386 403 318 418 346 l 418 617 b 349 685 418 657 403 685 l 210 685 "},"Ž":{"ha":544,"x_min":0,"x_max":0,"o":""},"ž":{"ha":544,"x_min":0,"x_max":0,"o":"m 33 0 l 33 107 l 351 878 l 40 878 l 40 917 l 414 917 l 68 79 l 68 39 l 511 39 l 511 0 m 128 86 l 471 922 l 471 964 l 40 964 l 40 1003 l 504 1003 l 504 896 l 185 125 l 511 125 l 511 86 m 451 1243 l 340 1090 l 204 1090 l 93 1243 l 133 1243 l 225 1117 l 319 1117 l 411 1243 m 372 1243 l 304 1150 l 240 1150 l 172 1243 l 213 1243 l 272 1158 l 332 1243 "},"¦":{"ha":288,"x_min":0,"x_max":0,"o":"m 169 -36 l 169 363 l 210 363 l 210 -36 m 78 -36 l 78 363 l 118 363 l 118 -36 m 169 640 l 169 1039 l 210 1039 l 210 640 m 78 640 l 78 1039 l 118 1039 l 118 640 "},"−":{"ha":692,"x_min":0,"x_max":0,"o":"m 657 432 l 657 393 l 35 393 l 35 432 m 35 476 l 35 515 l 657 515 l 657 476 "},"×":{"ha":650,"x_min":0,"x_max":0,"o":"m 325 422 l 549 199 l 521 171 l 325 367 l 129 171 l 101 199 m 69 231 l 42 258 l 238 454 l 42 650 l 69 678 l 293 454 m 325 486 l 101 710 l 129 738 l 325 542 l 521 738 l 549 710 m 581 678 l 608 650 l 413 454 l 608 258 l 581 231 l 357 454 "}," ":{"ha":225,"x_min":0,"x_max":0,"o":""},"!":{"ha":279,"x_min":0,"x_max":0,"o":"m 158 222 l 169 1003 l 210 1003 l 193 222 m 86 222 l 69 1003 l 110 1003 l 121 222 m 165 0 l 165 125 l 204 125 l 204 0 m 75 0 l 75 125 l 114 125 l 114 0 "},"\"":{"ha":422,"x_min":0,"x_max":0,"o":"m 132 711 l 143 1003 l 181 1003 l 168 711 m 64 711 l 51 1003 l 89 1003 l 100 711 m 322 711 l 333 1003 l 371 1003 l 358 711 m 254 711 l 242 1003 l 279 1003 l 290 711 "},"#":{"ha":813,"x_min":0,"x_max":0,"o":"m 214 367 l 119 0 l 78 0 l 163 328 l 22 328 l 33 367 m 104 636 l 115 676 l 253 676 l 338 1003 l 379 1003 l 285 636 m 274 597 l 225 407 l 44 407 l 56 446 l 193 446 l 222 558 l 82 558 l 93 597 m 599 636 l 693 1003 l 735 1003 l 650 676 l 790 676 l 779 636 m 768 597 l 757 558 l 619 558 l 590 446 l 731 446 l 719 407 l 539 407 l 588 597 m 708 367 l 697 328 l 560 328 l 475 0 l 433 0 l 528 367 m 483 367 l 389 0 l 347 0 l 432 328 l 290 328 l 206 0 l 164 0 l 258 367 m 329 636 l 424 1003 l 465 1003 l 381 676 l 522 676 l 607 1003 l 649 1003 l 554 636 m 543 597 l 494 407 l 269 407 l 318 597 m 492 558 l 350 558 l 321 446 l 463 446 "},"$":{"ha":564,"x_min":0,"x_max":0,"o":"m 310 104 b 476 297 435 119 476 210 b 340 485 476 390 451 424 l 246 536 b 139 689 158 583 139 619 l 139 706 b 282 851 139 758 172 851 b 426 703 392 851 426 769 l 426 625 l 386 625 l 386 699 b 282 813 386 751 358 813 b 179 703 207 813 179 751 b 288 558 179 629 183 615 l 379 508 b 517 303 475 456 517 407 b 347 69 517 194 463 96 l 347 -21 l 310 -21 m 253 1024 l 253 899 b 88 710 122 885 88 785 l 88 675 b 200 499 88 581 106 549 l 290 450 b 425 289 392 396 425 369 b 281 151 425 228 389 151 b 135 324 167 151 135 232 l 135 351 l 175 351 l 175 332 b 281 190 175 243 203 190 b 385 283 357 190 385 243 b 251 426 385 354 357 369 l 160 476 b 47 663 83 518 47 556 l 47 714 b 215 932 47 810 100 906 l 215 1024 m 347 1024 l 347 933 b 517 714 463 907 517 810 l 517 625 l 476 625 l 476 708 b 310 899 476 792 438 886 l 310 1024 m 253 -21 l 215 -21 l 215 69 b 44 317 99 96 44 196 l 44 351 l 85 351 l 85 318 b 253 103 85 218 117 121 "},"%":{"ha":814,"x_min":0,"x_max":0,"o":"m 197 989 b 74 847 108 989 74 936 l 74 700 b 197 558 74 611 108 558 b 321 700 286 558 321 611 l 321 847 b 197 989 321 936 286 989 m 110 840 b 197 956 110 907 129 956 b 285 840 265 956 285 907 l 285 707 b 197 592 285 640 265 592 b 110 707 129 592 110 640 m 38 854 b 197 1024 38 958 88 1024 b 357 854 307 1024 357 958 l 357 693 b 197 524 357 589 307 524 b 38 693 88 524 38 589 m 197 921 b 146 832 151 921 146 882 l 146 715 b 197 626 146 665 151 626 b 249 715 243 626 249 665 l 249 832 b 197 921 249 882 243 921 m 192 0 l 661 1003 l 701 1003 l 232 0 m 113 0 l 583 1003 l 624 1003 l 153 0 m 617 444 b 493 303 528 444 493 392 l 493 156 b 617 14 493 67 528 14 b 740 156 706 14 740 67 l 740 303 b 617 444 740 392 706 444 m 529 296 b 617 411 529 363 549 411 b 704 296 685 411 704 363 l 704 163 b 617 47 704 96 685 47 b 529 163 549 47 529 96 m 457 310 b 617 479 457 414 507 479 b 776 310 726 479 776 414 l 776 149 b 617 -21 776 44 726 -21 b 457 149 507 -21 457 44 m 617 376 b 565 288 571 376 565 338 l 565 171 b 617 82 565 121 571 82 b 668 171 663 82 668 121 l 668 288 b 617 376 668 338 663 376 "},"&":{"ha":647,"x_min":0,"x_max":0,"o":"m 467 243 b 308 68 467 151 428 68 b 151 243 189 68 151 151 l 151 272 b 307 431 151 343 186 431 l 467 431 m 153 453 b 60 626 86 472 60 551 l 60 769 b 308 1024 60 910 133 1024 b 557 769 483 1024 557 910 l 557 653 l 517 653 l 517 765 b 308 985 517 883 464 985 b 100 765 153 985 100 883 l 100 629 b 221 453 100 556 121 482 b 100 276 121 424 100 350 l 100 238 b 308 18 100 119 153 18 b 517 238 464 18 517 119 l 517 431 l 613 431 l 613 390 l 557 390 l 557 233 b 308 -21 557 93 483 -21 b 60 233 133 -21 60 93 l 60 279 b 153 453 60 353 86 433 m 192 249 b 308 107 192 168 225 107 b 426 249 392 107 426 168 l 426 390 l 310 390 b 192 268 225 390 192 339 m 613 475 l 307 475 b 151 633 186 475 151 563 l 151 760 b 308 935 151 851 189 935 b 467 760 428 935 467 851 l 467 653 l 426 653 l 426 754 b 308 896 426 835 392 896 b 192 754 225 896 192 835 l 192 638 b 310 515 192 565 225 515 l 613 515 "},"'":{"ha":232,"x_min":0,"x_max":0,"o":"m 132 711 l 143 1003 l 181 1003 l 168 711 m 64 711 l 51 1003 l 89 1003 l 100 711 "},"(":{"ha":332,"x_min":0,"x_max":0,"o":"m 89 501 b 233 -90 89 238 179 11 l 200 -103 b 50 501 157 -25 50 208 b 200 1106 50 794 157 1028 l 233 1093 b 89 501 179 992 89 765 m 178 501 b 308 -65 178 301 228 86 l 276 -76 b 139 501 206 53 139 274 b 276 1079 139 729 206 950 l 308 1068 b 178 501 228 917 178 701 "},")":{"ha":332,"x_min":0,"x_max":0,"o":"m 243 501 b 99 1093 243 765 153 992 l 132 1106 b 282 501 175 1028 282 794 b 132 -103 282 208 175 -25 l 99 -90 b 243 501 153 11 243 238 m 154 501 b 24 1068 154 701 104 917 l 56 1079 b 193 501 126 950 193 729 b 56 -76 193 274 126 53 l 24 -65 b 154 501 104 86 154 301 "},"*":{"ha":486,"x_min":0,"x_max":0,"o":"m 343 679 l 315 657 l 243 782 l 171 657 l 143 679 l 243 840 m 96 717 l 68 739 l 168 836 l 29 861 l 42 894 l 224 854 m 64 954 l 76 988 l 196 918 l 178 1058 l 213 1058 l 229 871 m 263 854 l 444 894 l 457 861 l 318 836 l 418 739 l 390 717 m 257 871 l 274 1058 l 308 1058 l 290 918 l 410 988 l 422 954 "},"+":{"ha":692,"x_min":0,"x_max":0,"o":"m 325 432 l 325 143 l 285 143 l 285 393 l 35 393 l 35 432 m 35 476 l 35 515 l 285 515 l 285 765 l 325 765 l 325 476 m 367 476 l 367 765 l 407 765 l 407 515 l 657 515 l 657 476 m 657 432 l 657 393 l 407 393 l 407 143 l 367 143 l 367 432 "},",":{"ha":229,"x_min":0,"x_max":0,"o":"m 4 -167 l 71 125 l 111 125 l 42 -167 m 72 -167 l 157 125 l 197 125 l 110 -167 "},"-":{"ha":432,"x_min":0,"x_max":0,"o":"m 57 389 l 57 429 l 375 429 l 375 389 m 57 475 l 57 515 l 375 515 l 375 475 "},".":{"ha":218,"x_min":0,"x_max":0,"o":"m 135 0 l 135 125 l 174 125 l 174 0 m 44 0 l 44 125 l 83 125 l 83 0 "},"/":{"ha":444,"x_min":0,"x_max":0,"o":"m 107 -42 l 388 1044 l 428 1044 l 147 -42 m 17 -42 l 297 1044 l 338 1044 l 57 -42 "},":":{"ha":271,"x_min":0,"x_max":0,"o":"m 161 0 l 161 125 l 200 125 l 200 0 m 71 0 l 71 125 l 110 125 l 110 0 m 161 396 l 161 521 l 200 521 l 200 396 m 71 396 l 71 521 l 110 521 l 110 396 "},";":{"ha":281,"x_min":0,"x_max":0,"o":"m 18 -167 l 85 125 l 125 125 l 56 -167 m 86 -167 l 171 125 l 211 125 l 124 -167 m 171 396 l 171 521 l 210 521 l 210 396 m 81 396 l 81 521 l 119 521 l 119 396 "},"<":{"ha":488,"x_min":0,"x_max":0,"o":"m 60 446 l 381 93 l 353 72 l 19 439 l 19 453 l 353 819 l 381 799 m 125 446 l 419 768 l 447 747 l 172 446 l 447 144 l 419 124 "},"=":{"ha":764,"x_min":0,"x_max":0,"o":"m 693 349 l 693 310 l 71 310 l 71 349 m 71 393 l 71 432 l 693 432 l 693 393 m 693 610 l 693 571 l 71 571 l 71 610 m 71 654 l 71 693 l 693 693 l 693 654 "},">":{"ha":488,"x_min":0,"x_max":0,"o":"m 107 799 l 135 819 l 468 453 l 468 439 l 135 72 l 107 93 l 428 446 m 68 124 l 40 144 l 315 446 l 40 747 l 68 768 l 363 446 "},"?":{"ha":576,"x_min":0,"x_max":0,"o":"m 208 0 l 208 125 l 247 125 l 247 0 m 118 0 l 118 125 l 157 125 l 157 0 m 118 222 l 118 303 b 231 474 118 376 153 432 l 314 518 b 401 660 392 560 401 586 l 401 754 b 286 896 401 835 368 896 b 169 754 203 896 169 835 l 169 653 l 129 653 l 129 760 b 286 935 129 851 168 935 b 442 760 404 935 442 851 l 442 647 b 356 492 442 564 432 532 l 269 446 b 157 289 179 399 157 364 l 157 222 m 208 222 l 208 271 b 276 397 208 350 250 383 l 367 446 b 493 632 467 500 493 533 l 493 765 b 286 985 493 883 440 985 b 79 765 132 985 79 883 l 79 653 l 39 653 l 39 769 b 286 1024 39 910 113 1024 b 533 769 460 1024 533 910 l 533 619 b 408 419 533 513 494 467 l 317 369 b 247 256 292 356 247 329 l 247 222 "},"@":{"ha":1144,"x_min":0,"x_max":0,"o":"m 351 269 b 388 82 351 189 358 126 b 522 17 414 42 458 17 b 725 171 665 17 713 138 b 878 22 725 110 749 22 b 1046 319 1024 22 1046 142 l 1046 543 b 768 842 1046 743 944 842 l 378 842 b 100 543 201 842 100 743 l 100 68 b 378 -231 100 -132 201 -231 l 604 -231 l 604 -268 l 378 -268 b 63 65 169 -268 63 -154 l 63 546 b 378 879 63 765 169 879 l 768 879 b 1083 546 976 879 1083 765 l 1083 319 b 881 -15 1083 119 1057 -15 b 714 85 731 -15 714 85 b 514 -21 714 85 651 -21 b 358 58 439 -21 389 13 b 314 265 325 108 314 175 l 314 338 b 358 544 314 428 325 494 b 514 624 389 590 439 624 b 688 540 633 624 683 549 l 688 603 l 725 603 l 725 432 b 522 586 713 465 665 586 b 388 521 458 586 414 561 b 351 333 358 476 351 414 m 378 -182 b 151 71 243 -182 151 -100 l 151 540 b 378 793 151 711 243 793 l 768 793 b 994 540 903 793 994 711 l 994 321 b 874 65 994 172 985 65 b 775 247 782 65 775 117 l 775 603 l 813 603 l 813 247 b 869 103 813 143 815 103 b 957 321 951 103 957 192 l 957 538 b 768 756 957 689 872 756 l 378 756 b 189 538 274 756 189 689 l 189 74 b 378 -144 189 -78 274 -144 l 604 -144 l 604 -182 m 533 536 b 715 301 653 536 715 429 b 533 67 715 174 653 67 b 436 119 486 67 457 88 b 408 275 413 156 408 208 l 408 328 b 436 483 408 394 413 447 b 533 536 457 515 486 536 m 446 279 b 467 142 446 222 447 175 b 540 104 482 115 507 104 b 678 301 636 104 678 194 b 540 499 678 408 636 499 b 467 461 507 499 482 488 b 446 324 447 428 446 381 "},"A":{"ha":617,"x_min":0,"x_max":0,"o":"m 444 0 l 421 246 l 196 246 l 172 0 l 132 0 l 160 285 l 457 285 l 485 0 m 308 985 b 161 811 190 985 169 903 l 83 0 l 43 0 l 121 819 b 308 1024 131 915 154 1024 b 496 819 463 1024 486 915 l 574 0 l 533 0 l 456 811 b 308 985 447 903 426 985 m 210 801 b 308 935 218 886 236 935 b 407 801 381 935 399 886 l 451 332 l 165 332 m 208 371 l 408 371 l 368 804 b 308 896 361 878 346 896 b 249 804 271 896 256 878 "},"B":{"ha":611,"x_min":0,"x_max":0,"o":"m 510 276 b 392 453 510 343 493 418 b 506 629 489 479 506 557 l 506 817 b 364 964 506 914 458 964 l 118 964 l 118 39 l 368 39 b 510 185 454 39 510 79 m 169 475 l 169 917 l 354 917 b 456 813 424 917 456 882 l 456 635 b 311 475 456 558 417 475 m 169 86 l 169 431 l 311 431 b 460 272 417 431 460 346 l 460 189 b 357 86 460 111 411 86 m 78 0 l 78 1003 l 372 1003 b 546 821 496 1003 546 925 l 546 626 b 457 453 546 551 519 472 b 550 279 524 433 550 353 l 550 182 b 376 0 550 78 500 0 m 414 810 b 344 878 414 850 399 878 l 210 878 l 210 515 l 300 515 b 414 638 381 515 414 565 m 418 268 b 300 390 418 339 385 390 l 210 390 l 210 125 l 349 125 b 418 193 403 125 418 153 "},"C":{"ha":606,"x_min":0,"x_max":0,"o":"m 107 238 b 315 18 107 119 160 18 b 524 238 471 18 524 119 l 524 268 l 564 268 l 564 233 b 315 -21 564 93 490 -21 b 67 233 140 -21 67 93 l 67 769 b 315 1024 67 910 140 1024 b 564 769 490 1024 564 910 l 564 653 l 524 653 l 524 765 b 315 985 524 883 471 985 b 107 765 160 985 107 883 m 158 760 b 315 935 158 851 196 935 b 474 760 435 935 474 851 l 474 653 l 433 653 l 433 754 b 315 896 433 835 400 896 b 199 754 232 896 199 835 l 199 249 b 315 107 199 168 232 107 b 433 249 400 107 433 168 l 433 268 l 474 268 l 474 243 b 315 68 474 151 435 68 b 158 243 196 68 158 151 "},"D":{"ha":622,"x_min":0,"x_max":0,"o":"m 376 1003 b 550 821 500 1003 550 925 l 550 182 b 376 0 550 78 500 0 l 78 0 l 78 1003 m 118 39 l 368 39 b 510 185 469 39 510 101 l 510 818 b 368 964 510 901 469 964 l 118 964 m 357 917 b 458 814 432 917 458 872 l 458 189 b 357 86 458 131 432 86 l 169 86 l 169 917 m 210 125 l 349 125 b 418 193 403 125 418 153 l 418 810 b 349 878 418 850 403 878 l 210 878 "},"E":{"ha":503,"x_min":0,"x_max":0,"o":"m 78 0 l 78 1003 l 450 1003 l 450 964 l 118 964 l 118 39 l 450 39 l 450 0 m 169 476 l 169 917 l 450 917 l 450 878 l 210 878 l 210 515 l 429 515 l 429 476 m 169 86 l 169 429 l 429 429 l 429 390 l 210 390 l 210 125 l 450 125 l 450 86 "},"F":{"ha":486,"x_min":0,"x_max":0,"o":"m 78 0 l 78 1003 l 450 1003 l 450 964 l 118 964 l 118 0 m 169 476 l 169 917 l 450 917 l 450 878 l 210 878 l 210 515 l 429 515 l 429 476 m 169 0 l 169 429 l 429 429 l 429 390 l 210 390 l 210 0 "},"G":{"ha":625,"x_min":0,"x_max":0,"o":"m 107 238 b 315 18 107 119 160 18 b 524 238 471 18 524 119 l 524 476 l 268 476 l 268 515 l 564 515 l 564 233 b 315 -21 564 93 490 -21 b 67 233 140 -21 67 93 l 67 769 b 315 1024 67 910 140 1024 b 564 769 490 1024 564 910 l 564 653 l 524 653 l 524 765 b 315 985 524 883 471 985 b 107 765 160 985 107 883 m 158 760 b 315 935 158 851 196 935 b 474 760 435 935 474 851 l 474 653 l 433 653 l 433 754 b 315 896 433 835 400 896 b 199 754 232 896 199 835 l 199 249 b 315 107 199 168 232 107 b 433 249 399 107 433 168 l 433 390 l 268 390 l 268 429 l 474 429 l 474 243 b 315 68 474 151 435 68 b 158 243 196 68 158 151 "},"H":{"ha":656,"x_min":0,"x_max":0,"o":"m 169 476 l 169 1003 l 210 1003 l 210 515 l 446 515 l 446 1003 l 486 1003 l 486 476 m 446 0 l 446 390 l 210 390 l 210 0 l 169 0 l 169 429 l 486 429 l 486 0 m 538 0 l 538 1003 l 578 1003 l 578 0 m 78 0 l 78 1003 l 118 1003 l 118 0 "},"I":{"ha":288,"x_min":0,"x_max":0,"o":"m 169 0 l 169 1003 l 210 1003 l 210 0 m 78 0 l 78 1003 l 118 1003 l 118 0 "},"J":{"ha":583,"x_min":0,"x_max":0,"o":"m 508 1003 l 508 233 b 267 -21 508 93 435 -21 b 25 233 99 -21 25 93 l 25 268 l 64 268 l 64 238 b 267 18 64 119 122 18 b 468 238 411 18 468 119 l 468 1003 m 417 1003 l 417 243 b 267 68 417 151 375 68 b 114 243 158 68 114 151 l 114 268 l 156 268 l 156 249 b 267 107 156 168 189 107 b 376 249 343 107 376 168 l 376 1003 "},"K":{"ha":600,"x_min":0,"x_max":0,"o":"m 169 475 l 169 1003 l 210 1003 l 210 515 l 272 515 b 390 638 357 515 385 565 l 418 1003 l 460 1003 l 432 635 b 283 475 425 539 371 475 m 510 0 l 482 275 b 360 453 475 346 454 425 b 481 631 460 483 475 563 l 510 1003 l 550 1003 l 522 626 b 429 453 517 551 489 472 b 522 279 489 433 515 353 l 550 0 m 418 0 l 390 268 b 272 390 383 339 357 390 l 210 390 l 210 0 l 169 0 l 169 431 l 283 431 b 432 271 371 431 421 376 l 460 0 m 78 0 l 78 1003 l 118 1003 l 118 0 "},"L":{"ha":449,"x_min":0,"x_max":0,"o":"m 78 0 l 78 1003 l 118 1003 l 118 39 l 422 39 l 422 0 m 169 86 l 169 1003 l 210 1003 l 210 125 l 422 125 l 422 86 "},"M":{"ha":986,"x_min":0,"x_max":0,"o":"m 428 0 l 428 754 b 317 896 428 835 393 896 b 207 754 240 896 207 835 l 207 0 l 167 0 l 167 758 b 317 935 167 858 211 935 b 468 758 422 935 468 858 l 468 0 m 518 0 l 518 758 b 669 935 518 858 564 935 b 819 758 775 935 819 858 l 819 0 l 779 0 l 779 754 b 669 896 779 835 746 896 b 558 754 593 896 558 835 l 558 0 m 493 949 b 669 1024 532 993 589 1024 b 911 769 838 1024 911 910 l 911 0 l 871 0 l 871 764 b 669 985 871 888 810 985 b 493 871 601 985 536 964 b 317 985 450 964 385 985 b 115 764 176 985 115 888 l 115 0 l 75 0 l 75 769 b 317 1024 75 910 149 1024 b 493 949 397 1024 454 993 "},"N":{"ha":647,"x_min":0,"x_max":0,"o":"m 324 1024 b 572 769 499 1024 572 910 l 572 0 l 532 0 l 532 765 b 324 985 532 883 479 985 b 115 765 168 985 115 883 l 115 0 l 75 0 l 75 769 b 324 1024 75 910 149 1024 m 324 935 b 481 760 443 935 481 851 l 481 0 l 440 0 l 440 754 b 324 896 440 835 407 896 b 207 754 240 896 207 835 l 207 0 l 167 0 l 167 760 b 324 935 167 851 204 935 "},"O":{"ha":631,"x_min":0,"x_max":0,"o":"m 315 -21 b 67 233 140 -21 67 93 l 67 769 b 315 1024 67 910 140 1024 b 564 769 490 1024 564 910 l 564 233 b 315 -21 564 93 490 -21 m 107 238 b 315 18 107 119 160 18 b 524 238 471 18 524 119 l 524 765 b 315 985 524 883 471 985 b 107 765 160 985 107 883 m 315 68 b 158 243 196 68 158 151 l 158 760 b 315 935 158 851 196 935 b 472 760 435 935 472 851 l 472 243 b 315 68 472 151 435 68 m 199 249 b 315 107 199 168 232 107 b 432 249 399 107 432 168 l 432 754 b 315 896 432 835 399 896 b 199 754 232 896 199 835 "},"P":{"ha":599,"x_min":0,"x_max":0,"o":"m 78 0 l 78 1003 l 376 1003 b 550 821 500 1003 550 925 l 550 568 b 376 386 550 464 500 386 l 210 386 l 210 0 l 169 0 l 169 425 l 368 425 b 510 571 469 425 510 488 l 510 818 b 368 964 510 901 469 964 l 118 964 l 118 0 m 357 917 b 458 814 432 917 458 872 l 458 575 b 357 472 458 517 432 472 l 169 472 l 169 917 m 210 511 l 349 511 b 418 579 403 511 418 539 l 418 810 b 349 878 418 850 403 878 l 210 878 "},"Q":{"ha":631,"x_min":0,"x_max":0,"o":"m 543 -60 l 513 -87 l 433 1 b 315 -21 401 -12 361 -21 b 67 233 140 -21 67 93 l 67 769 b 315 1024 67 910 140 1024 b 564 769 490 1024 564 910 l 564 233 b 531 92 564 181 553 132 l 614 3 l 583 -24 l 478 89 b 524 238 515 142 524 185 l 524 765 b 315 985 524 883 471 985 b 107 765 160 985 107 883 l 107 238 b 315 18 107 119 160 18 b 442 53 382 18 410 32 m 408 92 b 315 68 388 78 364 68 b 158 243 196 68 158 151 l 158 760 b 315 935 158 851 196 935 b 472 760 435 935 472 851 l 472 243 b 440 129 472 197 460 160 l 338 240 l 368 267 l 428 203 b 432 249 431 217 432 232 l 432 754 b 315 896 432 835 399 896 b 199 754 232 896 199 835 l 199 249 b 315 107 199 168 232 107 b 339 110 324 107 332 107 l 274 183 l 304 210 "},"R":{"ha":614,"x_min":0,"x_max":0,"o":"m 169 475 l 169 917 l 358 917 b 460 813 428 917 460 882 l 460 633 b 283 475 460 536 401 475 m 531 0 l 490 276 b 374 453 476 374 456 431 b 510 629 481 488 510 540 l 510 817 b 368 964 510 914 463 964 l 118 964 l 118 0 l 78 0 l 78 1003 l 376 1003 b 550 821 500 1003 550 925 l 550 626 b 443 453 550 536 510 472 b 529 279 496 433 514 381 l 571 0 m 439 0 l 397 268 b 286 390 383 356 357 390 l 210 390 l 210 0 l 169 0 l 169 431 l 283 431 b 438 272 393 431 424 363 l 481 0 m 418 810 b 349 878 418 850 403 878 l 210 878 l 210 515 l 286 515 b 418 638 371 515 418 550 "},"S":{"ha":599,"x_min":0,"x_max":0,"o":"m 504 289 b 356 474 504 383 460 418 l 269 519 b 142 690 153 581 142 607 l 142 760 b 297 935 142 851 179 935 b 454 760 415 935 454 851 l 454 653 l 414 653 l 414 754 b 297 896 414 835 381 896 b 182 754 215 896 182 835 l 182 703 b 311 546 182 629 185 613 l 394 501 b 544 303 485 453 544 407 l 544 233 b 296 -21 544 93 471 -21 b 47 233 121 -21 47 93 l 47 268 l 88 268 l 88 238 b 296 18 88 119 140 18 b 504 238 451 18 504 119 m 413 256 b 267 413 413 329 401 339 l 175 463 b 50 663 89 510 50 556 l 50 769 b 297 1024 50 910 124 1024 b 544 769 471 1024 544 910 l 544 653 l 504 653 l 504 765 b 297 985 504 883 451 985 b 90 765 143 985 90 883 l 90 675 b 217 489 90 576 117 543 l 307 440 b 453 271 428 374 453 351 l 453 243 b 296 68 453 151 415 68 b 138 243 176 68 138 151 l 138 268 l 178 268 l 178 249 b 296 107 178 168 211 107 b 413 249 379 107 413 168 "},"T":{"ha":493,"x_min":0,"x_max":0,"o":"m 272 0 l 272 917 l 465 917 l 465 878 l 313 878 l 313 0 m 28 964 l 28 1003 l 465 1003 l 465 964 m 181 0 l 181 878 l 28 878 l 28 917 l 221 917 l 221 0 "},"U":{"ha":647,"x_min":0,"x_max":0,"o":"m 324 -21 b 75 233 149 -21 75 93 l 75 1003 l 115 1003 l 115 238 b 324 18 115 119 168 18 b 532 238 479 18 532 119 l 532 1003 l 572 1003 l 572 233 b 324 -21 572 93 499 -21 m 324 68 b 167 243 204 68 167 151 l 167 1003 l 207 1003 l 207 249 b 324 107 207 168 240 107 b 440 249 407 107 440 168 l 440 1003 l 481 1003 l 481 243 b 324 68 481 151 443 68 "},"V":{"ha":617,"x_min":0,"x_max":0,"o":"m 308 18 b 456 192 426 18 447 100 l 533 1003 l 574 1003 l 496 183 b 308 -21 486 88 463 -21 b 121 183 154 -21 131 88 l 43 1003 l 83 1003 l 161 192 b 308 18 169 100 190 18 m 172 1003 l 249 199 b 308 107 256 125 271 107 b 368 199 346 107 361 125 l 444 1003 l 485 1003 l 406 201 b 308 68 397 114 381 68 b 211 201 236 68 219 114 l 132 1003 "},"W":{"ha":986,"x_min":0,"x_max":0,"o":"m 468 1003 l 468 244 b 317 68 468 144 422 68 b 167 244 211 68 167 144 l 167 1003 l 207 1003 l 207 249 b 317 107 207 168 240 107 b 428 249 393 107 428 168 l 428 1003 m 558 1003 l 558 249 b 669 107 558 168 593 107 b 779 249 746 107 779 168 l 779 1003 l 819 1003 l 819 244 b 669 68 819 144 775 68 b 518 244 564 68 518 144 l 518 1003 m 493 54 b 317 -21 454 10 397 -21 b 75 233 149 -21 75 93 l 75 1003 l 115 1003 l 115 239 b 317 18 115 115 176 18 b 493 132 385 18 450 39 b 669 18 536 39 601 18 b 871 239 810 18 871 115 l 871 1003 l 911 1003 l 911 233 b 669 -21 911 93 838 -21 b 493 54 589 -21 532 10 "},"X":{"ha":606,"x_min":0,"x_max":0,"o":"m 438 635 b 303 476 431 539 376 476 b 168 635 229 476 175 539 l 140 1003 l 182 1003 l 210 638 b 303 517 215 565 243 517 b 396 638 363 517 390 565 l 424 1003 l 465 1003 m 515 0 l 488 275 b 365 453 481 346 460 425 b 486 631 465 483 481 563 l 515 1003 l 556 1003 l 528 626 b 435 453 522 551 494 472 b 528 279 494 433 521 353 l 556 0 m 50 0 l 78 279 b 171 453 85 353 111 433 b 78 626 111 472 83 551 l 50 1003 l 90 1003 l 119 631 b 240 453 125 563 140 483 b 118 275 146 425 125 346 l 90 0 m 396 268 b 303 389 389 339 363 389 b 210 268 243 389 217 339 l 182 0 l 140 0 l 168 271 b 303 429 179 376 229 429 b 438 271 376 429 426 376 l 465 0 l 424 0 "},"Y":{"ha":575,"x_min":0,"x_max":0,"o":"m 261 0 l 221 0 l 221 424 b 85 621 118 449 93 539 l 49 1003 l 89 1003 l 124 629 b 261 457 131 549 153 464 m 313 457 b 451 629 422 464 444 549 l 486 1003 l 526 1003 l 490 621 b 353 424 482 539 457 449 l 353 0 l 313 0 m 288 550 b 363 647 338 550 356 574 l 396 1003 l 432 1003 l 397 640 b 288 511 390 564 363 511 b 178 640 213 511 185 564 l 143 1003 l 179 1003 l 213 647 b 288 550 219 574 238 550 "},"Z":{"ha":544,"x_min":0,"x_max":0,"o":"m 33 0 l 33 107 l 351 878 l 40 878 l 40 917 l 414 917 l 68 79 l 68 39 l 511 39 l 511 0 m 128 86 l 471 922 l 471 964 l 40 964 l 40 1003 l 504 1003 l 504 896 l 185 125 l 511 125 l 511 86 "},"[":{"ha":342,"x_min":0,"x_max":0,"o":"m 78 -151 l 78 1154 l 308 1154 l 308 1115 l 118 1115 l 118 -112 l 308 -112 l 308 -151 m 169 -75 l 169 1078 l 308 1078 l 308 1039 l 210 1039 l 210 -36 l 308 -36 l 308 -75 "},"\\":{"ha":444,"x_min":0,"x_max":0,"o":"m 297 -42 l 17 1044 l 57 1044 l 338 -42 m 388 -42 l 107 1044 l 147 1044 l 428 -42 "},"]":{"ha":342,"x_min":0,"x_max":0,"o":"m 33 -151 l 33 -112 l 224 -112 l 224 1115 l 33 1115 l 33 1154 l 264 1154 l 264 -151 m 33 -75 l 33 -36 l 132 -36 l 132 1039 l 33 1039 l 33 1078 l 172 1078 l 172 -75 "},"_":{"ha":624,"x_min":0,"x_max":0,"o":"m 0 -64 l 0 -24 l 624 -24 l 624 -64 m 0 22 l 0 63 l 624 63 l 624 22 "},"`":{"ha":390,"x_min":0,"x_max":0,"o":"m 232 1090 l 133 1243 l 174 1243 l 271 1090 m 151 1090 l 22 1243 l 64 1243 l 192 1090 "},"a":{"ha":647,"x_min":0,"x_max":0,"o":"m 167 332 l 167 760 b 324 935 167 851 204 935 b 481 760 443 935 481 851 l 481 332 m 207 371 l 440 371 l 440 754 b 324 896 440 835 407 896 b 207 754 240 896 207 835 m 324 1024 b 572 769 499 1024 572 910 l 572 0 l 532 0 l 532 765 b 324 985 532 883 479 985 b 115 765 168 985 115 883 l 115 0 l 75 0 l 75 769 b 324 1024 75 910 149 1024 m 481 285 l 481 0 l 440 0 l 440 246 l 207 246 l 207 0 l 167 0 l 167 285 "},"b":{"ha":611,"x_min":0,"x_max":0,"o":"m 510 276 b 392 453 510 343 493 418 b 506 629 489 479 506 557 l 506 817 b 364 964 506 914 458 964 l 118 964 l 118 39 l 368 39 b 510 185 454 39 510 79 m 169 475 l 169 917 l 354 917 b 456 813 424 917 456 882 l 456 635 b 311 475 456 558 417 475 m 169 86 l 169 431 l 311 431 b 460 272 417 431 460 346 l 460 189 b 357 86 460 111 411 86 m 78 0 l 78 1003 l 372 1003 b 546 821 496 1003 546 925 l 546 626 b 457 453 546 551 519 472 b 550 279 524 433 550 353 l 550 182 b 376 0 550 78 500 0 m 414 810 b 344 878 414 850 399 878 l 210 878 l 210 515 l 300 515 b 414 638 381 515 414 565 m 418 268 b 300 390 418 339 385 390 l 210 390 l 210 125 l 349 125 b 418 193 403 125 418 153 "},"c":{"ha":606,"x_min":0,"x_max":0,"o":"m 107 238 b 315 18 107 119 160 18 b 524 238 471 18 524 119 l 524 268 l 564 268 l 564 233 b 315 -21 564 93 490 -21 b 67 233 140 -21 67 93 l 67 769 b 315 1024 67 910 140 1024 b 564 769 490 1024 564 910 l 564 653 l 524 653 l 524 765 b 315 985 524 883 471 985 b 107 765 160 985 107 883 m 158 760 b 315 935 158 851 196 935 b 474 760 435 935 474 851 l 474 653 l 433 653 l 433 754 b 315 896 433 835 400 896 b 199 754 232 896 199 835 l 199 249 b 315 107 199 168 232 107 b 433 249 400 107 433 168 l 433 268 l 474 268 l 474 243 b 315 68 474 151 435 68 b 158 243 196 68 158 151 "},"d":{"ha":622,"x_min":0,"x_max":0,"o":"m 376 1003 b 550 821 500 1003 550 925 l 550 182 b 376 0 550 78 500 0 l 78 0 l 78 1003 m 118 39 l 368 39 b 510 185 469 39 510 101 l 510 818 b 368 964 510 901 469 964 l 118 964 m 357 917 b 458 814 432 917 458 872 l 458 189 b 357 86 458 131 432 86 l 169 86 l 169 917 m 210 125 l 349 125 b 418 193 403 125 418 153 l 418 810 b 349 878 418 850 403 878 l 210 878 "},"e":{"ha":625,"x_min":0,"x_max":0,"o":"m 524 429 l 524 765 b 315 985 524 883 471 985 b 107 765 160 985 107 883 l 107 238 b 315 18 107 119 160 18 b 524 238 471 18 524 119 l 524 268 l 564 268 l 564 233 b 315 -21 564 93 490 -21 b 67 233 140 -21 67 93 l 67 769 b 315 1024 67 910 140 1024 b 564 769 490 1024 564 910 l 564 390 l 199 390 l 199 249 b 315 107 199 168 232 107 b 433 249 400 107 433 168 l 433 268 l 474 268 l 474 243 b 315 68 474 151 435 68 b 158 243 196 68 158 151 l 158 429 m 158 476 l 158 760 b 315 935 158 851 196 935 b 472 760 435 935 472 851 l 472 476 m 199 515 l 432 515 l 432 754 b 315 896 432 835 399 896 b 199 754 232 896 199 835 "},"f":{"ha":607,"x_min":0,"x_max":0,"o":"m 75 0 l 75 769 b 324 1024 75 910 149 1024 b 572 769 499 1024 572 910 l 572 653 l 532 653 l 532 765 b 324 985 532 883 479 985 b 115 765 168 985 115 883 l 115 0 m 167 476 l 167 760 b 324 935 167 851 204 935 b 482 760 443 935 482 851 l 482 653 l 442 653 l 442 754 b 324 896 442 835 408 896 b 207 754 240 896 207 835 l 207 515 l 518 515 l 518 476 m 518 429 l 518 390 l 207 390 l 207 0 l 167 0 l 167 429 "},"g":{"ha":625,"x_min":0,"x_max":0,"o":"m 107 238 b 315 18 107 119 160 18 b 524 238 471 18 524 119 l 524 476 l 268 476 l 268 515 l 564 515 l 564 233 b 315 -21 564 93 490 -21 b 67 233 140 -21 67 93 l 67 769 b 315 1024 67 910 140 1024 b 564 769 490 1024 564 910 l 564 653 l 524 653 l 524 765 b 315 985 524 883 471 985 b 107 765 160 985 107 883 m 158 760 b 315 935 158 851 196 935 b 474 760 435 935 474 851 l 474 653 l 433 653 l 433 754 b 315 896 433 835 399 896 b 199 754 232 896 199 835 l 199 249 b 315 107 199 168 232 107 b 433 249 400 107 433 168 l 433 390 l 268 390 l 268 429 l 474 429 l 474 243 b 315 68 474 151 435 68 b 158 243 196 68 158 151 "},"h":{"ha":656,"x_min":0,"x_max":0,"o":"m 169 476 l 169 1003 l 210 1003 l 210 515 l 446 515 l 446 1003 l 486 1003 l 486 476 m 446 0 l 446 390 l 210 390 l 210 0 l 169 0 l 169 429 l 486 429 l 486 0 m 538 0 l 538 1003 l 578 1003 l 578 0 m 78 0 l 78 1003 l 118 1003 l 118 0 "},"i":{"ha":288,"x_min":0,"x_max":0,"o":"m 169 0 l 169 1003 l 210 1003 l 210 0 m 78 0 l 78 1003 l 118 1003 l 118 0 "},"j":{"ha":383,"x_min":0,"x_max":0,"o":"m 25 32 l 60 32 b 268 251 215 32 268 119 l 268 1003 l 308 1003 l 308 247 b 60 -7 308 93 235 -7 l 25 -7 m 25 118 l 60 118 b 176 263 143 118 176 168 l 176 1003 l 217 1003 l 217 257 b 60 79 217 151 179 79 l 25 79 "},"k":{"ha":618,"x_min":0,"x_max":0,"o":"m 418 0 l 418 268 b 300 390 418 339 385 390 l 210 390 l 210 0 l 169 0 l 169 431 l 303 431 b 458 272 424 431 458 343 l 458 0 m 78 0 l 78 1003 l 118 1003 l 118 0 m 458 1003 l 458 633 b 303 475 458 563 424 475 l 169 475 l 169 1003 l 210 1003 l 210 515 l 300 515 b 418 638 385 515 418 565 l 418 1003 m 457 453 b 550 279 524 433 550 353 l 550 0 l 510 0 l 510 276 b 389 453 510 350 489 424 b 510 629 489 482 510 556 l 510 1003 l 550 1003 l 550 626 b 457 453 550 551 524 472 "},"l":{"ha":449,"x_min":0,"x_max":0,"o":"m 78 0 l 78 1003 l 118 1003 l 118 39 l 422 39 l 422 0 m 169 86 l 169 1003 l 210 1003 l 210 125 l 422 125 l 422 86 "},"m":{"ha":990,"x_min":0,"x_max":0,"o":"m 875 0 l 875 733 b 838 921 875 813 867 875 b 708 985 810 964 768 985 b 508 835 601 985 538 914 b 485 908 503 864 494 890 b 356 985 457 958 415 985 b 169 829 217 985 169 829 l 169 1003 l 203 1003 l 203 936 b 363 1024 219 963 275 1024 b 519 919 433 1024 481 989 b 715 1024 563 981 614 1024 b 871 944 789 1024 840 990 b 915 738 904 894 915 828 l 915 0 m 78 0 l 78 1003 l 118 1003 l 118 0 m 783 0 l 783 724 b 763 861 783 781 782 828 b 692 899 747 888 721 899 b 563 667 597 899 563 789 l 563 0 l 522 0 l 522 661 b 699 938 522 794 563 938 b 793 885 742 938 771 921 b 824 728 817 847 824 794 l 824 0 m 431 0 l 431 724 b 410 861 431 781 429 828 b 339 899 394 888 368 899 b 210 667 244 899 210 789 l 210 0 l 169 0 l 169 661 b 346 938 169 794 210 938 b 440 885 389 938 418 921 b 471 728 464 847 471 794 l 471 0 "},"n":{"ha":650,"x_min":0,"x_max":0,"o":"m 443 0 l 443 724 b 422 861 443 781 442 828 b 350 899 407 888 383 899 b 210 667 243 899 210 789 l 210 0 l 169 0 l 169 661 b 357 938 169 794 210 938 b 453 885 403 938 431 921 b 483 728 476 847 483 794 l 483 0 m 535 0 l 535 733 b 497 921 535 813 526 875 b 368 985 469 964 429 985 b 169 829 211 985 169 829 l 169 1003 l 203 1003 l 203 936 b 376 1024 219 963 275 1024 b 531 944 451 1024 500 990 b 575 738 564 894 575 828 l 575 0 m 78 0 l 78 1003 l 118 1003 l 118 0 "},"o":{"ha":631,"x_min":0,"x_max":0,"o":"m 315 -21 b 67 233 140 -21 67 93 l 67 769 b 315 1024 67 910 140 1024 b 564 769 490 1024 564 910 l 564 233 b 315 -21 564 93 490 -21 m 107 238 b 315 18 107 119 160 18 b 524 238 471 18 524 119 l 524 765 b 315 985 524 883 471 985 b 107 765 160 985 107 883 m 315 68 b 158 243 196 68 158 151 l 158 760 b 315 935 158 851 196 935 b 472 760 435 935 472 851 l 472 243 b 315 68 472 151 435 68 m 199 249 b 315 107 199 168 232 107 b 432 249 399 107 432 168 l 432 754 b 315 896 432 835 399 896 b 199 754 232 896 199 835 "},"p":{"ha":599,"x_min":0,"x_max":0,"o":"m 78 0 l 78 1003 l 376 1003 b 550 821 500 1003 550 925 l 550 568 b 376 386 550 464 500 386 l 210 386 l 210 0 l 169 0 l 169 425 l 368 425 b 510 571 469 425 510 488 l 510 818 b 368 964 510 901 469 964 l 118 964 l 118 0 m 357 917 b 458 814 432 917 458 872 l 458 575 b 357 472 458 517 432 472 l 169 472 l 169 917 m 210 511 l 349 511 b 418 579 403 511 418 539 l 418 810 b 349 878 418 850 403 878 l 210 878 "},"q":{"ha":631,"x_min":0,"x_max":0,"o":"m 543 -60 l 513 -87 l 433 1 b 315 -21 401 -12 361 -21 b 67 233 140 -21 67 93 l 67 769 b 315 1024 67 910 140 1024 b 564 769 490 1024 564 910 l 564 233 b 531 92 564 181 553 132 l 614 3 l 583 -24 l 478 89 b 524 238 515 142 524 185 l 524 765 b 315 985 524 883 471 985 b 107 765 160 985 107 883 l 107 238 b 315 18 107 119 160 18 b 442 53 382 18 410 32 m 408 92 b 315 68 388 78 364 68 b 158 243 196 68 158 151 l 158 760 b 315 935 158 851 196 935 b 472 760 435 935 472 851 l 472 243 b 440 129 472 197 460 160 l 338 240 l 368 267 l 428 203 b 432 249 431 217 432 232 l 432 754 b 315 896 432 835 399 896 b 199 754 232 896 199 835 l 199 249 b 315 107 199 168 232 107 b 339 110 324 107 332 107 l 274 183 l 304 210 "},"r":{"ha":615,"x_min":0,"x_max":0,"o":"m 169 917 l 357 917 b 458 814 432 917 458 872 l 458 633 b 303 475 458 563 424 475 l 169 475 m 78 0 l 78 1003 l 376 1003 b 550 821 500 1003 550 925 l 550 626 b 457 453 550 551 524 472 b 550 279 524 433 550 353 l 550 0 l 510 0 l 510 276 b 389 453 510 350 489 424 b 510 629 489 482 510 556 l 510 818 b 368 964 510 901 469 964 l 118 964 l 118 0 m 418 810 b 349 878 418 850 403 878 l 210 878 l 210 515 l 300 515 b 418 638 385 515 418 565 m 418 0 l 418 268 b 300 390 418 339 385 390 l 210 390 l 210 0 l 169 0 l 169 431 l 303 431 b 458 272 424 431 458 343 l 458 0 "},"s":{"ha":599,"x_min":0,"x_max":0,"o":"m 504 289 b 356 474 504 383 460 418 l 269 519 b 142 690 153 581 142 607 l 142 760 b 297 935 142 851 179 935 b 454 760 415 935 454 851 l 454 653 l 414 653 l 414 754 b 297 896 414 835 381 896 b 182 754 215 896 182 835 l 182 703 b 311 546 182 629 185 613 l 394 501 b 544 303 485 453 544 407 l 544 233 b 296 -21 544 93 471 -21 b 47 233 121 -21 47 93 l 47 268 l 88 268 l 88 238 b 296 18 88 119 140 18 b 504 238 451 18 504 119 m 413 256 b 267 413 413 329 401 339 l 175 463 b 50 663 89 510 50 556 l 50 769 b 297 1024 50 910 124 1024 b 544 769 471 1024 544 910 l 544 653 l 504 653 l 504 765 b 297 985 504 883 451 985 b 90 765 143 985 90 883 l 90 675 b 217 489 90 576 117 543 l 307 440 b 453 271 428 374 453 351 l 453 243 b 296 68 453 151 415 68 b 138 243 176 68 138 151 l 138 268 l 178 268 l 178 249 b 296 107 178 168 211 107 b 413 249 379 107 413 168 "},"t":{"ha":597,"x_min":0,"x_max":0,"o":"m 115 1003 l 115 238 b 324 18 115 119 168 18 b 532 238 479 18 532 119 l 532 268 l 572 268 l 572 233 b 324 -21 572 93 499 -21 b 75 233 149 -21 75 93 l 75 1003 m 556 632 l 556 593 l 207 593 l 207 249 b 324 107 207 168 240 107 b 442 249 408 107 442 168 l 442 268 l 482 268 l 482 243 b 324 68 482 151 443 68 b 167 243 204 68 167 151 l 167 632 m 167 679 l 167 1003 l 207 1003 l 207 718 l 556 718 l 556 679 "},"u":{"ha":650,"x_min":0,"x_max":0,"o":"m 207 1003 l 207 279 b 226 142 207 222 207 175 b 300 104 242 115 267 104 b 440 336 407 104 440 214 l 440 1003 l 481 1003 l 481 342 b 293 65 481 208 440 65 b 197 118 247 65 219 82 b 167 275 174 156 167 208 l 167 1003 m 115 1003 l 115 269 b 153 82 115 190 124 128 b 282 18 181 39 221 18 b 481 174 439 18 481 174 l 481 0 l 447 0 l 447 67 b 274 -21 431 40 375 -21 b 119 58 199 -21 150 13 b 75 265 86 108 75 175 l 75 1003 m 572 1003 l 572 0 l 532 0 l 532 1003 "},"v":{"ha":589,"x_min":0,"x_max":0,"o":"m 294 -21 b 121 182 160 -21 131 86 l 43 1003 l 83 1003 l 161 189 b 294 18 169 99 192 18 b 428 189 397 18 419 99 l 506 1003 l 546 1003 l 468 182 b 294 -21 458 86 429 -21 m 294 107 b 339 196 324 107 332 128 l 415 1003 l 456 1003 l 379 193 b 294 68 372 115 356 68 b 210 193 233 68 217 115 l 133 1003 l 174 1003 l 250 196 b 294 107 257 128 265 107 "},"w":{"ha":872,"x_min":0,"x_max":0,"o":"m 372 1003 l 413 1003 l 413 222 b 307 68 413 132 383 68 b 213 192 240 68 219 115 l 135 1003 l 174 1003 l 250 196 b 306 107 257 128 275 107 b 372 214 344 107 372 132 m 500 214 b 567 107 500 132 528 107 b 622 196 597 107 615 128 l 699 1003 l 738 1003 l 660 192 b 565 68 653 115 632 68 b 460 222 489 68 460 132 l 460 1003 l 500 1003 m 436 40 b 308 -21 408 -7 367 -21 b 121 182 160 -21 131 86 l 43 1003 l 82 1003 l 160 188 b 308 18 168 99 196 18 b 436 124 382 18 414 60 b 564 18 458 60 490 18 b 713 188 676 18 704 99 l 790 1003 l 829 1003 l 751 182 b 564 -21 742 86 713 -21 b 436 40 506 -21 464 -7 "},"x":{"ha":608,"x_min":0,"x_max":0,"o":"m 449 633 b 304 475 449 563 414 475 b 160 633 194 475 160 563 l 160 1003 l 200 1003 l 200 638 b 304 517 200 565 231 517 b 408 638 378 517 408 565 l 408 1003 l 449 1003 m 447 453 b 540 279 514 433 540 353 l 540 0 l 500 0 l 500 276 b 379 453 500 350 479 424 b 500 629 479 482 500 556 l 500 1003 l 540 1003 l 540 626 b 447 453 540 551 514 472 m 161 453 b 68 626 94 472 68 551 l 68 1003 l 108 1003 l 108 629 b 229 453 108 556 129 482 b 108 276 129 424 108 350 l 108 0 l 68 0 l 68 279 b 161 453 68 353 94 433 m 408 268 b 304 389 408 339 378 389 b 200 268 231 389 200 339 l 200 0 l 160 0 l 160 272 b 304 431 160 343 194 431 b 449 272 414 431 449 343 l 449 0 l 408 0 "},"y":{"ha":642,"x_min":0,"x_max":0,"o":"m 110 1003 l 110 671 b 147 483 110 592 118 529 b 276 419 175 440 215 419 b 475 574 425 419 471 560 l 475 243 b 318 68 475 151 438 68 b 160 243 199 68 160 151 l 160 268 l 200 268 l 200 249 b 318 107 200 168 235 107 b 435 249 401 107 435 168 l 435 447 b 268 381 396 410 353 381 b 114 460 193 381 144 414 b 69 667 81 510 69 576 l 69 1003 m 567 1003 l 567 233 b 318 -21 567 93 493 -21 b 69 233 143 -21 69 93 l 69 268 l 110 268 l 110 238 b 318 18 110 119 163 18 b 526 238 474 18 526 119 l 526 1003 m 201 1003 l 201 681 b 222 543 201 624 203 576 b 294 506 238 517 261 506 b 435 738 401 506 435 615 l 435 1003 l 475 1003 l 475 743 b 288 467 475 610 435 467 b 192 519 242 467 214 483 b 161 676 168 557 161 610 l 161 1003 "},"z":{"ha":544,"x_min":0,"x_max":0,"o":"m 33 0 l 33 107 l 351 878 l 40 878 l 40 917 l 414 917 l 68 79 l 68 39 l 511 39 l 511 0 m 128 86 l 471 922 l 471 964 l 40 964 l 40 1003 l 504 1003 l 504 896 l 185 125 l 511 125 l 511 86 "},"|":{"ha":288,"x_min":0,"x_max":0,"o":"m 169 -36 l 169 1039 l 210 1039 l 210 -36 m 78 -36 l 78 1039 l 118 1039 l 118 -36 "},"Ä":{"ha":617,"x_min":0,"x_max":0,"o":""},"Å":{"ha":617,"x_min":0,"x_max":0,"o":"m 444 0 l 421 246 l 196 246 l 172 0 l 132 0 l 160 285 l 457 285 l 485 0 m 308 985 b 161 811 190 985 169 903 l 83 0 l 43 0 l 121 819 b 308 1024 131 915 154 1024 b 496 819 463 1024 486 915 l 574 0 l 533 0 l 456 811 b 308 985 447 903 426 985 m 210 801 b 308 935 218 886 236 935 b 407 801 381 935 399 886 l 451 332 l 165 332 m 208 371 l 408 371 l 368 804 b 308 896 361 878 346 896 b 249 804 271 896 256 878 m 171 1179 b 308 1317 171 1256 232 1317 b 446 1179 385 1317 446 1256 b 308 1042 446 1103 385 1042 b 171 1179 232 1042 171 1103 m 415 1179 b 308 1289 415 1239 369 1289 b 201 1179 247 1289 201 1239 b 308 1069 201 1119 247 1069 b 415 1179 369 1069 415 1119 m 229 1179 b 308 1258 229 1222 265 1258 b 388 1179 351 1258 388 1222 b 308 1100 388 1136 351 1100 b 229 1179 265 1100 229 1136 m 308 1231 b 260 1179 282 1231 260 1207 b 308 1128 260 1151 282 1128 b 357 1179 335 1128 357 1151 b 308 1231 357 1207 335 1231 "},"Ç":{"ha":606,"x_min":0,"x_max":0,"o":"m 294 -264 b 218 -194 233 -264 218 -233 l 218 -189 l 242 -189 l 242 -194 b 290 -239 242 -219 250 -239 l 326 -239 b 375 -194 367 -239 375 -219 l 375 -186 b 328 -139 375 -158 369 -139 l 257 -139 l 257 -15 b 67 233 129 6 67 103 l 67 769 b 315 1024 67 910 140 1024 b 564 769 490 1024 564 910 l 564 653 l 524 653 l 524 765 b 315 985 524 883 471 985 b 107 765 160 985 107 883 l 107 238 b 282 19 107 122 157 33 l 282 -114 l 333 -114 b 403 -183 385 -114 403 -132 l 403 -193 b 332 -264 403 -239 382 -264 m 158 760 b 315 935 158 851 196 935 b 474 760 435 935 474 851 l 474 653 l 433 653 l 433 754 b 315 896 433 835 400 896 b 199 754 232 896 199 835 l 199 249 b 315 107 199 168 232 107 b 433 249 400 107 433 168 l 433 268 l 474 268 l 474 243 b 315 68 474 151 435 68 b 158 243 196 68 158 151 m 304 -322 b 167 -196 193 -322 167 -264 l 167 -189 l 190 -189 l 190 -196 b 300 -297 190 -250 211 -297 l 340 -297 b 436 -185 403 -297 436 -269 b 340 -81 436 -93 406 -81 l 314 -81 l 314 18 b 524 238 471 18 524 119 l 524 268 l 564 268 l 564 233 b 339 -19 564 99 497 -10 l 339 -56 l 347 -56 b 464 -182 417 -56 464 -71 b 347 -322 464 -286 417 -322 "},"É":{"ha":503,"x_min":0,"x_max":0,"o":""},"Ñ":{"ha":647,"x_min":0,"x_max":0,"o":""},"Ö":{"ha":631,"x_min":0,"x_max":0,"o":""},"Ü":{"ha":647,"x_min":0,"x_max":0,"o":"m 324 -21 b 75 233 149 -21 75 93 l 75 1003 l 115 1003 l 115 238 b 324 18 115 119 168 18 b 532 238 479 18 532 119 l 532 1003 l 572 1003 l 572 233 b 324 -21 572 93 499 -21 m 324 68 b 167 243 204 68 167 151 l 167 1003 l 207 1003 l 207 249 b 324 107 207 168 240 107 b 440 249 407 107 440 168 l 440 1003 l 481 1003 l 481 243 b 324 68 481 151 443 68 m 243 1090 l 243 1215 l 282 1215 l 282 1090 m 157 1090 l 157 1215 l 196 1215 l 196 1090 m 451 1090 l 451 1215 l 490 1215 l 490 1090 m 365 1090 l 365 1215 l 404 1215 l 404 1090 "},"á":{"ha":647,"x_min":0,"x_max":0,"o":""},"à":{"ha":647,"x_min":0,"x_max":0,"o":"m 167 332 l 167 760 b 324 935 167 851 204 935 b 481 760 443 935 481 851 l 481 332 m 207 371 l 440 371 l 440 754 b 324 896 440 835 407 896 b 207 754 240 896 207 835 m 324 1024 b 572 769 499 1024 572 910 l 572 0 l 532 0 l 532 765 b 324 985 532 883 479 985 b 115 765 168 985 115 883 l 115 0 l 75 0 l 75 769 b 324 1024 75 910 149 1024 m 481 285 l 481 0 l 440 0 l 440 246 l 207 246 l 207 0 l 167 0 l 167 285 m 344 1090 l 246 1243 l 286 1243 l 383 1090 m 264 1090 l 135 1243 l 176 1243 l 304 1090 "},"â":{"ha":647,"x_min":0,"x_max":0,"o":""},"ä":{"ha":647,"x_min":0,"x_max":0,"o":"m 167 332 l 167 760 b 324 935 167 851 204 935 b 481 760 443 935 481 851 l 481 332 m 207 371 l 440 371 l 440 754 b 324 896 440 835 407 896 b 207 754 240 896 207 835 m 324 1024 b 572 769 499 1024 572 910 l 572 0 l 532 0 l 532 765 b 324 985 532 883 479 985 b 115 765 168 985 115 883 l 115 0 l 75 0 l 75 769 b 324 1024 75 910 149 1024 m 481 285 l 481 0 l 440 0 l 440 246 l 207 246 l 207 0 l 167 0 l 167 285 m 243 1090 l 243 1215 l 282 1215 l 282 1090 m 157 1090 l 157 1215 l 196 1215 l 196 1090 m 451 1090 l 451 1215 l 490 1215 l 490 1090 m 365 1090 l 365 1215 l 404 1215 l 404 1090 "},"ã":{"ha":647,"x_min":0,"x_max":0,"o":""},"å":{"ha":647,"x_min":0,"x_max":0,"o":"m 167 332 l 167 760 b 324 935 167 851 204 935 b 481 760 443 935 481 851 l 481 332 m 207 371 l 440 371 l 440 754 b 324 896 440 835 407 896 b 207 754 240 896 207 835 m 324 1024 b 572 769 499 1024 572 910 l 572 0 l 532 0 l 532 765 b 324 985 532 883 479 985 b 115 765 168 985 115 883 l 115 0 l 75 0 l 75 769 b 324 1024 75 910 149 1024 m 481 285 l 481 0 l 440 0 l 440 246 l 207 246 l 207 0 l 167 0 l 167 285 m 186 1179 b 324 1317 186 1256 247 1317 b 461 1179 400 1317 461 1256 b 324 1042 461 1103 400 1042 b 186 1179 247 1042 186 1103 m 431 1179 b 324 1289 431 1239 385 1289 b 217 1179 263 1289 217 1239 b 324 1069 217 1119 263 1069 b 431 1179 385 1069 431 1119 m 244 1179 b 324 1258 244 1222 281 1258 b 403 1179 367 1258 403 1222 b 324 1100 403 1136 367 1100 b 244 1179 281 1100 244 1136 m 324 1231 b 275 1179 297 1231 275 1207 b 324 1128 275 1151 297 1128 b 372 1179 350 1128 372 1151 b 324 1231 372 1207 350 1231 "},"ç":{"ha":606,"x_min":0,"x_max":0,"o":"m 294 -264 b 218 -194 233 -264 218 -233 l 218 -189 l 242 -189 l 242 -194 b 290 -239 242 -219 250 -239 l 326 -239 b 375 -194 367 -239 375 -219 l 375 -186 b 328 -139 375 -158 369 -139 l 257 -139 l 257 -15 b 67 233 129 6 67 103 l 67 769 b 315 1024 67 910 140 1024 b 564 769 490 1024 564 910 l 564 653 l 524 653 l 524 765 b 315 985 524 883 471 985 b 107 765 160 985 107 883 l 107 238 b 282 19 107 122 157 33 l 282 -114 l 333 -114 b 403 -183 385 -114 403 -132 l 403 -193 b 332 -264 403 -239 382 -264 m 158 760 b 315 935 158 851 196 935 b 474 760 435 935 474 851 l 474 653 l 433 653 l 433 754 b 315 896 433 835 399 896 b 199 754 232 896 199 835 l 199 249 b 315 107 199 168 232 107 b 433 249 400 107 433 168 l 433 268 l 474 268 l 474 243 b 315 68 474 151 435 68 b 158 243 196 68 158 151 m 304 -322 b 167 -196 193 -322 167 -264 l 167 -189 l 190 -189 l 190 -196 b 300 -297 190 -250 211 -297 l 340 -297 b 436 -185 403 -297 436 -269 b 340 -81 436 -93 406 -81 l 314 -81 l 314 18 b 524 238 471 18 524 119 l 524 268 l 564 268 l 564 233 b 339 -19 564 99 497 -10 l 339 -56 l 347 -56 b 464 -182 417 -56 464 -71 b 347 -322 464 -286 417 -322 "},"é":{"ha":625,"x_min":0,"x_max":0,"o":""},"è":{"ha":625,"x_min":0,"x_max":0,"o":"m 524 429 l 524 765 b 315 985 524 883 471 985 b 107 765 160 985 107 883 l 107 238 b 315 18 107 119 160 18 b 524 238 471 18 524 119 l 524 268 l 564 268 l 564 233 b 315 -21 564 93 490 -21 b 67 233 140 -21 67 93 l 67 769 b 315 1024 67 910 140 1024 b 564 769 490 1024 564 910 l 564 390 l 199 390 l 199 249 b 315 107 199 168 232 107 b 433 249 400 107 433 168 l 433 268 l 474 268 l 474 243 b 315 68 474 151 435 68 b 158 243 196 68 158 151 l 158 429 m 158 476 l 158 760 b 315 935 158 851 196 935 b 472 760 435 935 472 851 l 472 476 m 199 515 l 432 515 l 432 754 b 315 896 432 835 399 896 b 199 754 232 896 199 835 m 336 1090 l 238 1243 l 278 1243 l 375 1090 m 256 1090 l 126 1243 l 168 1243 l 296 1090 "},"ê":{"ha":625,"x_min":0,"x_max":0,"o":""},"ë":{"ha":625,"x_min":0,"x_max":0,"o":"m 524 429 l 524 765 b 315 985 524 883 471 985 b 107 765 160 985 107 883 l 107 238 b 315 18 107 119 160 18 b 524 238 471 18 524 119 l 524 268 l 564 268 l 564 233 b 315 -21 564 93 490 -21 b 67 233 140 -21 67 93 l 67 769 b 315 1024 67 910 140 1024 b 564 769 490 1024 564 910 l 564 390 l 199 390 l 199 249 b 315 107 199 168 232 107 b 433 249 400 107 433 168 l 433 268 l 474 268 l 474 243 b 315 68 474 151 435 68 b 158 243 196 68 158 151 l 158 429 m 158 476 l 158 760 b 315 935 158 851 196 935 b 472 760 435 935 472 851 l 472 476 m 199 515 l 432 515 l 432 754 b 315 896 432 835 399 896 b 199 754 232 896 199 835 m 235 1090 l 235 1215 l 274 1215 l 274 1090 m 149 1090 l 149 1215 l 188 1215 l 188 1090 m 443 1090 l 443 1215 l 482 1215 l 482 1090 m 357 1090 l 357 1215 l 396 1215 l 396 1090 "},"í":{"ha":507,"x_min":0,"x_max":0,"o":""},"ì":{"ha":288,"x_min":0,"x_max":0,"o":"m 169 0 l 169 1003 l 210 1003 l 210 0 m 78 0 l 78 1003 l 118 1003 l 118 0 m 165 1090 l 67 1243 l 107 1243 l 204 1090 m 85 1090 l -44 1243 l -3 1243 l 125 1090 "},"î":{"ha":440,"x_min":0,"x_max":0,"o":""},"ï":{"ha":288,"x_min":0,"x_max":0,"o":"m 169 0 l 169 1003 l 210 1003 l 210 0 m 78 0 l 78 1003 l 118 1003 l 118 0 m 63 1090 l 63 1215 l 101 1215 l 101 1090 m -24 1090 l -24 1215 l 15 1215 l 15 1090 m 271 1090 l 271 1215 l 310 1215 l 310 1090 m 185 1090 l 185 1215 l 224 1215 l 224 1090 "},"ñ":{"ha":650,"x_min":0,"x_max":0,"o":""},"ó":{"ha":631,"x_min":0,"x_max":0,"o":""},"ò":{"ha":631,"x_min":0,"x_max":0,"o":"m 315 -21 b 67 233 140 -21 67 93 l 67 769 b 315 1024 67 910 140 1024 b 564 769 490 1024 564 910 l 564 233 b 315 -21 564 93 490 -21 m 107 238 b 315 18 107 119 160 18 b 524 238 471 18 524 119 l 524 765 b 315 985 524 883 471 985 b 107 765 160 985 107 883 m 315 68 b 158 243 196 68 158 151 l 158 760 b 315 935 158 851 196 935 b 472 760 435 935 472 851 l 472 243 b 315 68 472 151 435 68 m 199 249 b 315 107 199 168 232 107 b 432 249 399 107 432 168 l 432 754 b 315 896 432 835 399 896 b 199 754 232 896 199 835 m 336 1090 l 238 1243 l 278 1243 l 375 1090 m 256 1090 l 126 1243 l 168 1243 l 296 1090 "},"ô":{"ha":631,"x_min":0,"x_max":0,"o":""},"ö":{"ha":631,"x_min":0,"x_max":0,"o":"m 315 -21 b 67 233 140 -21 67 93 l 67 769 b 315 1024 67 910 140 1024 b 564 769 490 1024 564 910 l 564 233 b 315 -21 564 93 490 -21 m 107 238 b 315 18 107 119 160 18 b 524 238 471 18 524 119 l 524 765 b 315 985 524 883 471 985 b 107 765 160 985 107 883 m 315 68 b 158 243 196 68 158 151 l 158 760 b 315 935 158 851 196 935 b 472 760 435 935 472 851 l 472 243 b 315 68 472 151 435 68 m 199 249 b 315 107 199 168 232 107 b 432 249 399 107 432 168 l 432 754 b 315 896 432 835 399 896 b 199 754 232 896 199 835 m 235 1090 l 235 1215 l 274 1215 l 274 1090 m 149 1090 l 149 1215 l 188 1215 l 188 1090 m 443 1090 l 443 1215 l 482 1215 l 482 1090 m 357 1090 l 357 1215 l 396 1215 l 396 1090 "},"õ":{"ha":631,"x_min":0,"x_max":0,"o":""},"ú":{"ha":650,"x_min":0,"x_max":0,"o":""},"ù":{"ha":650,"x_min":0,"x_max":0,"o":"m 207 1003 l 207 279 b 226 142 207 222 207 175 b 300 104 242 115 267 104 b 440 336 407 104 440 214 l 440 1003 l 481 1003 l 481 342 b 293 65 481 208 440 65 b 197 118 247 65 219 82 b 167 275 174 156 167 208 l 167 1003 m 115 1003 l 115 269 b 153 82 115 190 124 128 b 282 18 181 39 221 18 b 481 174 439 18 481 174 l 481 0 l 447 0 l 447 67 b 274 -21 431 40 375 -21 b 119 58 199 -21 150 13 b 75 265 86 108 75 175 l 75 1003 m 572 1003 l 572 0 l 532 0 l 532 1003 m 343 1090 l 244 1243 l 285 1243 l 382 1090 m 263 1090 l 133 1243 l 175 1243 l 303 1090 "},"û":{"ha":650,"x_min":0,"x_max":0,"o":""},"ü":{"ha":650,"x_min":0,"x_max":0,"o":"m 207 1003 l 207 279 b 226 142 207 222 207 175 b 300 104 242 115 267 104 b 440 336 407 104 440 214 l 440 1003 l 481 1003 l 481 342 b 293 65 481 208 440 65 b 197 118 247 65 219 82 b 167 275 174 156 167 208 l 167 1003 m 115 1003 l 115 269 b 153 82 115 190 124 128 b 282 18 181 39 221 18 b 481 174 439 18 481 174 l 481 0 l 447 0 l 447 67 b 274 -21 431 40 375 -21 b 119 58 199 -21 150 13 b 75 265 86 108 75 175 l 75 1003 m 572 1003 l 572 0 l 532 0 l 532 1003 m 242 1090 l 242 1215 l 281 1215 l 281 1090 m 156 1090 l 156 1215 l 194 1215 l 194 1090 m 450 1090 l 450 1215 l 489 1215 l 489 1090 m 364 1090 l 364 1215 l 403 1215 l 403 1090 "},"†":{"ha":646,"x_min":0,"x_max":0,"o":"m 297 665 l 297 -14 l 257 -14 l 257 626 l 47 626 l 47 665 m 47 713 l 47 751 l 257 751 l 257 1017 l 297 1017 l 297 713 m 349 713 l 349 1017 l 389 1017 l 389 751 l 599 751 l 599 713 m 599 665 l 599 626 l 389 626 l 389 -14 l 349 -14 l 349 665 "},"°":{"ha":422,"x_min":0,"x_max":0,"o":"m 38 839 b 211 1013 38 935 115 1013 b 385 839 307 1013 385 935 b 211 665 385 743 307 665 b 38 839 115 665 38 743 m 71 839 b 211 699 71 761 133 699 b 351 839 289 699 351 761 b 211 979 351 917 289 979 b 71 839 133 979 71 917 m 106 839 b 211 944 106 897 153 944 b 317 839 269 944 317 897 b 211 733 317 781 269 733 b 106 839 153 733 106 781 m 139 839 b 211 767 139 799 171 767 b 283 839 251 767 283 799 b 211 911 283 879 251 911 b 139 839 171 911 139 879 "},"¢":{"ha":561,"x_min":0,"x_max":0,"o":"m 217 1017 l 257 1017 l 257 839 b 88 628 138 828 88 740 l 88 375 b 257 164 88 263 138 175 l 257 -14 l 217 -14 l 217 131 b 47 371 100 156 47 251 l 47 632 b 217 872 47 751 100 846 m 426 371 b 282 213 424 283 383 213 b 139 381 176 213 139 289 l 139 622 b 282 790 139 714 176 790 b 426 622 388 790 426 714 l 426 571 l 386 571 l 386 617 b 282 751 386 697 353 751 b 179 617 213 751 179 697 l 179 386 b 282 251 179 306 213 251 b 386 371 349 251 382 299 m 308 1017 l 349 1017 l 349 872 b 517 632 463 846 517 751 l 517 571 l 476 571 l 476 628 b 308 839 476 740 428 828 m 308 164 b 476 371 428 175 475 263 l 517 371 b 349 131 517 251 461 157 l 349 -14 l 308 -14 "},"•":{"ha":542,"x_min":0,"x_max":0,"o":"m 68 501 b 271 704 68 614 158 704 b 474 501 383 704 474 614 b 271 299 474 389 383 299 b 68 501 158 299 68 389 m 271 665 b 108 501 181 665 108 593 b 271 338 108 410 181 338 b 433 501 361 338 433 410 b 271 665 433 593 361 665 m 271 385 b 160 501 210 385 160 433 b 271 618 160 569 210 618 b 382 501 332 618 382 569 b 271 385 382 433 332 385 "},"¶":{"ha":674,"x_min":0,"x_max":0,"o":"m 556 -21 l 556 964 l 231 964 b 89 818 129 964 89 901 l 89 542 b 231 396 89 458 129 396 l 321 396 l 321 -21 l 281 -21 l 281 357 l 222 357 b 49 539 99 357 49 435 l 49 821 b 222 1003 49 925 99 1003 l 596 1003 l 596 -21 m 372 -21 l 372 443 l 242 443 b 140 546 167 443 140 488 l 140 814 b 242 917 140 872 167 917 l 504 917 l 504 -21 l 464 -21 l 464 878 l 250 878 b 181 810 196 878 181 850 l 181 550 b 250 482 181 510 196 482 l 413 482 l 413 -21 "},"ß":{"ha":1197,"x_min":0,"x_max":0,"o":"m 504 289 b 356 474 504 383 460 418 l 269 519 b 142 690 153 581 142 607 l 142 760 b 297 935 142 851 179 935 b 454 760 415 935 454 851 l 454 653 l 414 653 l 414 754 b 297 896 414 835 381 896 b 182 754 215 896 182 835 l 182 703 b 311 546 182 629 185 613 l 394 501 b 544 303 485 453 544 407 l 544 233 b 296 -21 544 93 471 -21 b 47 233 121 -21 47 93 l 47 268 l 88 268 l 88 238 b 296 18 88 119 140 18 b 504 238 451 18 504 119 m 413 256 b 267 413 413 329 401 339 l 175 463 b 50 663 89 510 50 556 l 50 769 b 297 1024 50 910 124 1024 b 544 769 471 1024 544 910 l 544 653 l 504 653 l 504 765 b 297 985 504 883 451 985 b 90 765 143 985 90 883 l 90 675 b 217 489 90 576 117 543 l 307 440 b 453 271 428 374 453 351 l 453 243 b 296 68 453 151 415 68 b 138 243 176 68 138 151 l 138 268 l 178 268 l 178 249 b 296 107 178 168 211 107 b 413 249 379 107 413 168 m 1103 289 b 954 474 1103 383 1058 418 l 868 519 b 740 690 751 581 740 607 l 740 760 b 896 935 740 851 778 935 b 1053 760 1014 935 1053 851 l 1053 653 l 1013 653 l 1013 754 b 896 896 1013 835 979 896 b 781 754 814 896 781 835 l 781 703 b 910 546 781 629 783 613 l 993 501 b 1143 303 1083 453 1143 407 l 1143 233 b 894 -21 1143 93 1069 -21 b 646 233 719 -21 646 93 l 646 268 l 686 268 l 686 238 b 894 18 686 119 739 18 b 1103 238 1050 18 1103 119 m 1011 256 b 865 413 1011 329 1000 339 l 774 463 b 649 663 688 510 649 556 l 649 769 b 896 1024 649 910 722 1024 b 1143 769 1069 1024 1143 910 l 1143 653 l 1103 653 l 1103 765 b 896 985 1103 883 1050 985 b 689 765 742 985 689 883 l 689 675 b 815 489 689 576 715 543 l 906 440 b 1051 271 1026 374 1051 351 l 1051 243 b 894 68 1051 151 1014 68 b 736 243 775 68 736 151 l 736 268 l 776 268 l 776 249 b 894 107 776 168 810 107 b 1011 249 978 107 1011 168 "},"®":{"ha":722,"x_min":0,"x_max":0,"o":"m 361 399 b 661 699 526 399 661 533 b 361 999 661 863 526 999 b 61 699 196 999 61 863 b 361 399 61 533 196 399 m 361 424 b 90 699 213 424 90 547 b 361 972 90 849 213 972 b 632 699 510 972 632 849 b 361 424 632 547 510 424 m 481 533 l 481 597 b 418 674 481 626 476 654 b 481 751 467 690 481 715 l 481 769 b 399 839 481 814 454 839 l 258 839 l 258 533 l 233 533 l 233 864 l 408 864 b 506 771 478 864 506 824 l 506 751 b 460 674 506 721 496 690 b 506 600 497 660 506 631 l 506 533 m 444 750 b 371 688 444 706 417 688 l 294 688 l 294 814 l 390 814 b 444 761 431 814 444 790 m 419 533 l 419 588 b 371 638 419 617 414 638 l 319 638 l 319 533 l 294 533 l 294 663 l 376 663 b 444 592 435 663 444 621 l 444 533 m 361 374 b 36 699 182 374 36 519 b 361 1024 36 876 182 1024 b 686 699 540 1024 686 876 b 361 374 686 519 540 374 m 361 450 b 607 699 496 450 607 563 b 361 947 607 835 496 947 b 115 699 226 947 115 835 b 361 450 115 563 226 450 m 419 757 b 382 789 419 781 408 789 l 319 789 l 319 713 l 371 713 b 419 750 401 713 419 719 "},"©":{"ha":1111,"x_min":0,"x_max":0,"o":"m 556 -21 b 33 501 268 -21 33 214 b 556 1024 33 789 268 1024 b 1078 501 843 1024 1078 789 b 556 -21 1078 214 843 -21 m 556 14 b 1043 501 824 14 1043 233 b 556 989 1043 769 824 989 b 68 501 288 989 68 769 b 556 14 68 233 288 14 m 556 44 b 104 501 307 44 104 249 b 556 958 104 754 307 958 b 1007 501 804 958 1007 754 b 556 44 1007 249 804 44 m 556 79 b 972 501 785 79 972 268 b 556 924 972 735 785 924 b 139 501 326 924 139 735 b 556 79 139 268 326 79 m 789 426 l 789 415 b 556 171 789 272 718 171 b 322 415 393 171 322 272 l 322 588 b 556 832 322 731 393 832 b 789 588 718 832 789 731 l 789 571 l 754 571 l 754 585 b 556 797 754 711 696 797 b 357 585 415 797 357 711 l 357 418 b 556 206 357 292 415 206 b 754 418 696 206 754 292 l 754 426 m 701 426 l 701 422 b 556 256 701 324 661 256 b 411 422 450 256 411 324 l 411 581 b 556 747 411 679 450 747 b 701 581 661 747 701 679 l 701 571 l 667 571 l 667 581 b 556 713 667 658 640 713 b 446 576 472 713 446 658 l 446 426 b 556 290 446 344 472 290 b 667 426 640 290 667 344 "},"´":{"ha":393,"x_min":0,"x_max":0,"o":"m 122 1090 l 219 1243 l 260 1243 l 161 1090 m 201 1090 l 329 1243 l 371 1243 l 242 1090 "},"¨":{"ha":472,"x_min":0,"x_max":0,"o":"m 156 1090 l 156 1215 l 194 1215 l 194 1090 m 69 1090 l 69 1215 l 108 1215 l 108 1090 m 364 1090 l 364 1215 l 403 1215 l 403 1090 m 278 1090 l 278 1215 l 317 1215 l 317 1090 "},"Æ":{"ha":853,"x_min":0,"x_max":0,"o":"m 176 332 l 268 785 b 397 917 286 874 315 917 l 467 917 l 467 332 m 426 878 l 401 878 b 304 779 351 878 321 860 l 222 371 l 426 371 m 15 0 l 176 799 b 389 1003 199 908 232 1003 l 800 1003 l 800 964 l 393 964 b 213 793 269 964 233 894 l 53 0 m 426 0 l 426 246 l 197 246 l 147 0 l 110 0 l 167 285 l 467 285 l 467 39 l 800 39 l 800 0 m 518 476 l 518 917 l 800 917 l 800 878 l 558 878 l 558 515 l 779 515 l 779 476 m 518 86 l 518 429 l 779 429 l 779 390 l 558 390 l 558 125 l 800 125 l 800 86 "},"Ø":{"ha":631,"x_min":0,"x_max":0,"o":"m 199 111 b 156 243 167 143 156 194 l 156 760 b 315 938 156 851 196 938 b 410 911 347 938 381 931 m 196 249 b 197 221 196 236 197 221 l 372 886 b 315 899 357 894 339 899 b 196 754 229 899 196 838 m 147 33 b 67 233 90 81 67 153 l 67 769 b 315 1024 67 910 140 1024 b 406 1011 349 1024 379 1018 l 418 1058 l 449 1058 l 424 963 b 315 985 378 983 344 985 b 107 765 160 985 107 883 l 107 238 b 183 54 107 175 121 100 l 154 -56 l 124 -56 m 483 969 b 564 769 540 922 564 850 l 564 233 b 315 -21 564 93 490 -21 b 225 -8 282 -21 251 -17 l 213 -56 l 182 -56 l 207 40 b 315 18 253 19 286 18 b 524 238 471 18 524 119 l 524 765 b 447 949 524 828 510 903 l 476 1058 l 507 1058 m 432 892 b 475 760 464 860 475 808 l 475 243 b 315 65 475 151 435 65 b 221 92 283 65 250 72 m 435 754 b 433 782 435 767 433 782 l 258 117 b 315 104 274 108 292 104 b 435 249 401 104 435 165 "},"±":{"ha":728,"x_min":0,"x_max":0,"o":"m 675 39 l 675 0 l 53 0 l 53 39 m 53 83 l 53 122 l 675 122 l 675 83 m 675 503 l 675 464 l 425 464 l 425 214 l 385 214 l 385 503 m 343 503 l 343 214 l 303 214 l 303 464 l 53 464 l 53 503 m 53 547 l 53 586 l 303 586 l 303 836 l 343 836 l 343 547 m 385 547 l 385 836 l 425 836 l 425 586 l 675 586 l 675 547 "},"¥":{"ha":617,"x_min":0,"x_max":0,"o":"m 308 539 b 192 667 224 539 199 590 l 161 1003 l 201 1003 l 232 675 b 308 578 239 601 260 578 b 385 675 357 578 378 601 l 415 1003 l 456 1003 l 425 667 b 308 539 418 590 393 539 m 333 356 l 333 486 b 474 657 438 499 467 576 l 506 1003 l 546 1003 l 513 649 b 374 451 504 567 476 476 l 374 394 l 564 394 l 564 356 m 53 356 l 53 394 l 243 394 l 243 451 b 104 649 140 476 113 567 l 71 1003 l 111 1003 l 143 657 b 283 486 150 576 179 499 l 283 356 m 333 169 l 333 315 l 564 315 l 564 276 l 374 276 l 374 208 l 564 208 l 564 169 m 53 169 l 53 208 l 243 208 l 243 276 l 53 276 l 53 315 l 283 315 l 283 169 m 283 129 l 283 0 l 243 0 l 243 90 l 53 90 l 53 129 m 564 129 l 564 90 l 374 90 l 374 0 l 333 0 l 333 129 "},"ª":{"ha":531,"x_min":0,"x_max":0,"o":"m 125 721 b 163 872 125 783 138 839 b 243 915 181 897 204 915 b 388 714 349 915 388 818 b 243 513 388 610 349 513 b 163 556 204 513 181 531 b 125 707 138 589 125 644 m 356 714 b 253 882 356 810 322 882 b 189 851 224 882 203 871 b 160 718 167 822 160 774 l 160 710 b 189 576 160 654 167 606 b 253 546 203 557 224 546 b 356 714 322 546 356 618 m 49 726 b 97 928 49 806 64 882 b 221 988 124 964 164 988 b 363 926 314 988 357 935 l 363 976 l 397 976 l 397 824 b 231 954 388 869 336 954 b 124 904 185 954 147 938 b 83 724 94 864 83 796 l 83 704 b 124 524 83 632 94 564 b 231 474 147 490 185 474 b 397 604 336 474 388 558 l 397 451 l 363 451 l 363 500 b 221 440 357 493 314 440 b 97 500 164 440 124 464 b 49 701 64 546 49 622 m 429 451 l 429 978 l 464 978 l 464 451 "},"º":{"ha":508,"x_min":0,"x_max":0,"o":"m 463 697 b 254 440 463 519 376 440 b 46 697 132 440 46 519 l 46 731 b 254 988 46 908 132 988 b 463 731 376 988 463 908 m 156 714 b 254 546 156 589 194 546 b 353 714 314 546 353 589 b 254 882 353 839 314 882 b 156 714 194 882 156 839 m 121 714 b 254 915 121 861 174 915 b 388 714 335 915 388 861 b 254 513 388 567 335 513 b 121 714 174 513 121 567 m 428 725 b 254 954 428 886 357 954 b 81 725 149 954 81 886 l 81 703 b 254 474 81 542 151 474 b 428 703 357 474 428 542 "},"æ":{"ha":999,"x_min":0,"x_max":0,"o":"m 504 881 b 324 985 468 961 397 985 b 115 765 168 985 115 883 l 115 0 l 75 0 l 75 769 b 324 1024 75 910 149 1024 b 506 950 410 1024 469 996 b 689 1024 543 996 601 1024 b 938 769 864 1024 938 910 l 938 390 l 572 390 l 572 249 b 689 107 572 168 606 107 b 807 249 774 107 807 168 l 807 268 l 847 268 l 847 243 b 689 68 847 151 808 68 b 532 243 569 68 532 151 l 532 429 l 897 429 l 897 765 b 689 985 897 883 844 985 b 504 881 615 985 544 963 m 167 476 l 167 760 b 324 935 167 851 204 935 b 481 760 443 935 481 851 l 481 476 m 532 476 l 532 760 b 689 935 532 851 569 935 b 846 760 808 935 846 851 l 846 476 m 207 515 l 440 515 l 440 754 b 324 896 440 835 407 896 b 207 754 240 896 207 835 m 572 515 l 806 515 l 806 754 b 689 896 806 835 772 896 b 572 754 606 896 572 835 m 481 429 l 481 238 b 689 18 481 119 533 18 b 897 238 844 18 897 119 l 897 268 l 938 268 l 938 233 b 689 -21 938 93 864 -21 b 440 233 514 -21 440 93 l 440 390 l 207 390 l 207 0 l 167 0 l 167 429 "},"ø":{"ha":631,"x_min":0,"x_max":0,"o":"m 199 111 b 156 243 167 143 156 194 l 156 760 b 315 938 156 851 196 938 b 410 911 347 938 381 931 m 196 249 b 197 221 196 236 197 221 l 372 886 b 315 899 357 894 339 899 b 196 754 229 899 196 838 m 147 33 b 67 233 90 81 67 153 l 67 769 b 315 1024 67 910 140 1024 b 406 1011 349 1024 379 1018 l 418 1058 l 449 1058 l 424 963 b 315 985 378 983 344 985 b 107 765 160 985 107 883 l 107 238 b 183 54 107 175 121 100 l 154 -56 l 124 -56 m 483 969 b 564 769 540 922 564 850 l 564 233 b 315 -21 564 93 490 -21 b 225 -8 282 -21 251 -17 l 213 -56 l 182 -56 l 207 40 b 315 18 253 19 286 18 b 524 238 471 18 524 119 l 524 765 b 447 949 524 828 510 903 l 476 1058 l 507 1058 m 432 892 b 475 760 464 860 475 808 l 475 243 b 315 65 475 151 435 65 b 221 92 283 65 250 72 m 435 754 b 433 782 435 767 433 782 l 258 117 b 315 104 274 108 292 104 b 435 249 401 104 435 165 "},"¿":{"ha":576,"x_min":0,"x_max":0,"o":"m 368 933 l 368 808 l 329 808 l 329 933 m 458 933 l 458 808 l 419 808 l 419 933 m 458 711 l 458 631 b 346 460 458 557 424 501 l 263 415 b 175 274 185 374 175 347 l 175 179 b 290 38 175 99 208 38 b 407 179 374 38 407 99 l 407 281 l 447 281 l 447 174 b 290 -1 447 82 408 -1 b 135 174 172 -1 135 82 l 135 286 b 221 442 135 369 144 401 l 307 488 b 419 644 397 535 419 569 l 419 711 m 368 711 l 368 663 b 300 536 368 583 326 550 l 210 488 b 83 301 110 433 83 400 l 83 168 b 290 -51 83 50 136 -51 b 497 168 444 -51 497 50 l 497 281 l 538 281 l 538 164 b 290 -90 538 24 464 -90 b 43 164 117 -90 43 24 l 43 314 b 168 514 43 421 82 467 l 260 564 b 329 678 285 578 329 604 l 329 711 "},"¡":{"ha":279,"x_min":0,"x_max":0,"o":"m 193 711 l 210 -69 l 169 -69 l 158 711 m 121 711 l 110 -69 l 69 -69 l 86 711 m 204 933 l 204 808 l 165 808 l 165 933 m 114 933 l 114 808 l 75 808 l 75 933 "},"«":{"ha":531,"x_min":0,"x_max":0,"o":"m 136 190 l 28 432 l 136 674 l 174 674 l 68 432 l 174 190 m 222 190 l 117 432 l 222 674 l 260 674 l 157 432 l 260 190 m 358 190 l 250 432 l 358 674 l 396 674 l 290 432 l 396 190 m 444 190 l 339 432 l 444 674 l 482 674 l 379 432 l 482 190 "},"»":{"ha":531,"x_min":0,"x_max":0,"o":"m 357 190 l 463 432 l 357 674 l 394 674 l 503 432 l 394 190 m 271 190 l 374 432 l 271 674 l 308 674 l 414 432 l 308 190 m 135 190 l 240 432 l 135 674 l 172 674 l 281 432 l 172 190 m 49 190 l 151 432 l 49 674 l 86 674 l 192 432 l 86 190 "},"…":{"ha":654,"x_min":0,"x_max":0,"o":"m 135 0 l 135 125 l 174 125 l 174 0 m 44 0 l 44 125 l 83 125 l 83 0 m 353 0 l 353 125 l 392 125 l 392 0 m 263 0 l 263 125 l 301 125 l 301 0 m 571 0 l 571 125 l 610 125 l 610 0 m 481 0 l 481 125 l 519 125 l 519 0 "},"À":{"ha":617,"x_min":0,"x_max":0,"o":""},"Ã":{"ha":617,"x_min":0,"x_max":0,"o":"m 444 0 l 421 246 l 196 246 l 172 0 l 132 0 l 160 285 l 457 285 l 485 0 m 308 985 b 161 811 190 985 169 903 l 83 0 l 43 0 l 121 819 b 308 1024 131 915 154 1024 b 496 819 463 1024 486 915 l 574 0 l 533 0 l 456 811 b 308 985 447 903 426 985 m 210 801 b 308 935 218 886 236 935 b 407 801 381 935 399 886 l 451 332 l 165 332 m 208 371 l 408 371 l 368 804 b 308 896 361 878 346 896 b 249 804 271 896 256 878 m 375 1076 b 242 1118 326 1076 285 1118 b 193 1076 222 1118 208 1108 l 165 1094 b 242 1150 182 1132 211 1150 b 375 1108 286 1150 328 1108 b 475 1186 424 1108 456 1144 l 503 1169 b 375 1076 481 1122 435 1076 m 242 1219 b 375 1178 290 1219 332 1178 b 424 1219 394 1178 408 1188 l 451 1201 b 375 1146 435 1164 406 1146 b 242 1188 331 1146 289 1188 b 142 1110 193 1188 161 1151 l 114 1126 b 242 1219 136 1174 182 1219 "},"Õ":{"ha":631,"x_min":0,"x_max":0,"o":""},"Œ":{"ha":857,"x_min":0,"x_max":0,"o":"m 315 68 b 158 243 196 68 158 151 l 158 760 b 315 935 158 851 196 935 b 472 760 435 935 472 851 l 472 243 b 315 68 472 151 435 68 m 199 249 b 315 107 199 168 232 107 b 432 249 399 107 432 168 l 432 754 b 315 896 432 835 399 896 b 199 754 232 896 199 835 m 308 -21 b 67 233 140 -21 67 93 l 67 769 b 308 1024 67 910 140 1024 b 432 985 354 1024 406 1006 l 432 1003 l 804 1003 l 804 964 l 472 964 l 472 907 b 313 985 439 957 386 985 b 107 765 160 985 107 883 l 107 238 b 313 18 107 119 160 18 b 472 96 386 18 439 46 l 472 39 l 804 39 l 804 0 l 432 0 l 432 18 b 308 -21 406 -3 354 -21 m 524 476 l 524 917 l 804 917 l 804 878 l 564 878 l 564 515 l 783 515 l 783 476 m 524 86 l 524 429 l 783 429 l 783 390 l 564 390 l 564 125 l 804 125 l 804 86 "},"œ":{"ha":990,"x_min":0,"x_max":0,"o":"m 315 68 b 158 243 196 68 158 151 l 158 760 b 315 935 158 851 196 935 b 472 760 435 935 472 851 l 472 243 b 315 68 472 151 435 68 m 199 249 b 315 107 199 168 232 107 b 432 249 399 107 432 168 l 432 754 b 315 896 432 835 399 896 b 199 754 232 896 199 835 m 524 476 l 524 760 b 681 935 524 851 561 935 b 838 760 800 935 838 851 l 838 476 m 564 515 l 797 515 l 797 754 b 681 896 797 835 764 896 b 564 754 597 896 564 835 m 497 122 b 681 18 539 35 606 18 b 889 238 836 18 889 119 l 889 268 l 929 268 l 929 233 b 681 -21 929 93 856 -21 b 497 53 593 -21 535 7 b 315 -21 461 7 401 -21 b 67 233 140 -21 67 93 l 67 769 b 315 1024 67 910 140 1024 b 497 950 401 1024 461 994 b 681 1024 535 996 593 1024 b 929 769 856 1024 929 910 l 929 390 l 564 390 l 564 249 b 681 107 564 168 597 107 b 799 249 765 107 799 168 l 799 268 l 839 268 l 839 243 b 681 68 839 151 800 68 b 524 243 561 68 524 151 l 524 429 l 889 429 l 889 765 b 681 985 889 883 836 985 b 497 881 606 985 539 968 b 315 985 456 968 389 985 b 107 765 160 985 107 883 l 107 238 b 315 18 107 119 160 18 b 497 122 389 18 456 35 "},"–":{"ha":613,"x_min":0,"x_max":0,"o":"m 57 389 l 57 429 l 556 429 l 556 389 m 57 475 l 57 515 l 556 515 l 556 475 "},"—":{"ha":951,"x_min":0,"x_max":0,"o":"m 57 389 l 57 429 l 894 429 l 894 389 m 57 475 l 57 515 l 894 515 l 894 475 "},"“":{"ha":450,"x_min":0,"x_max":0,"o":"m 313 711 l 382 1003 l 419 1003 l 353 711 m 226 711 l 314 1003 l 351 1003 l 267 711 m 122 711 l 192 1003 l 229 1003 l 163 711 m 36 711 l 124 1003 l 161 1003 l 76 711 "},"”":{"ha":447,"x_min":0,"x_max":0,"o":"m 39 711 l 106 1003 l 146 1003 l 76 711 m 107 711 l 192 1003 l 232 1003 l 144 711 m 229 711 l 296 1003 l 336 1003 l 267 711 m 297 711 l 382 1003 l 422 1003 l 335 711 "},"‘":{"ha":260,"x_min":0,"x_max":0,"o":"m 229 1003 l 163 711 l 122 711 l 192 1003 m 161 1003 l 76 711 l 36 711 l 124 1003 "},"’":{"ha":257,"x_min":0,"x_max":0,"o":"m 39 711 l 106 1003 l 146 1003 l 76 711 m 107 711 l 192 1003 l 232 1003 l 144 711 "},"÷":{"ha":706,"x_min":0,"x_max":0,"o":"m 378 290 l 418 290 l 418 165 l 378 165 m 328 165 l 288 165 l 288 290 l 328 290 m 378 742 l 418 742 l 418 617 l 378 617 m 328 617 l 288 617 l 288 742 l 328 742 m 664 432 l 664 393 l 42 393 l 42 432 m 42 476 l 42 515 l 664 515 l 664 476 "},"ÿ":{"ha":642,"x_min":0,"x_max":0,"o":""},"Ÿ":{"ha":575,"x_min":0,"x_max":0,"o":"m 261 0 l 221 0 l 221 424 b 85 621 118 449 93 539 l 49 1003 l 89 1003 l 124 629 b 261 457 131 549 153 464 m 313 457 b 451 629 422 464 444 549 l 486 1003 l 526 1003 l 490 621 b 353 424 482 539 457 449 l 353 0 l 313 0 m 288 550 b 363 647 338 550 356 574 l 396 1003 l 432 1003 l 397 640 b 288 511 390 564 363 511 b 178 640 213 511 185 564 l 143 1003 l 179 1003 l 213 647 b 288 550 219 574 238 550 m 207 1090 l 207 1215 l 246 1215 l 246 1090 m 121 1090 l 121 1215 l 160 1215 l 160 1090 m 415 1090 l 415 1215 l 454 1215 l 454 1090 m 329 1090 l 329 1215 l 368 1215 l 368 1090 "},"⁄":{"ha":594,"x_min":0,"x_max":0,"o":"m 82 0 l 551 1003 l 592 1003 l 122 0 m 3 0 l 474 1003 l 514 1003 l 43 0 "},"¤":{"ha":736,"x_min":0,"x_max":0,"o":"m 150 496 b 368 717 150 621 246 717 b 586 496 490 717 586 621 b 368 275 586 371 490 275 b 150 496 246 275 150 371 m 368 678 b 190 496 271 678 190 596 b 368 314 190 396 271 314 b 546 496 465 314 546 396 b 368 678 546 596 465 678 m 529 274 b 640 496 607 325 640 415 b 529 718 640 576 607 667 l 649 883 l 682 861 l 582 722 b 681 496 643 665 681 585 b 582 269 681 407 643 326 l 682 131 l 649 108 m 88 108 l 54 131 l 154 269 b 56 496 93 326 56 407 b 154 722 56 585 93 665 l 54 861 l 88 883 l 207 718 b 96 496 129 667 96 576 b 207 274 96 415 129 325 m 244 251 b 368 222 279 232 328 222 b 492 251 408 222 457 232 l 607 79 l 574 57 l 476 203 b 368 183 443 190 406 183 b 260 203 331 183 293 190 l 163 57 l 129 79 m 492 740 b 368 769 457 760 408 769 b 244 740 328 769 279 760 l 129 913 l 163 935 l 260 789 b 368 808 293 801 331 808 b 476 789 406 808 443 801 l 574 935 l 607 913 "},"‹":{"ha":308,"x_min":0,"x_max":0,"o":"m 136 190 l 28 432 l 136 674 l 174 674 l 68 432 l 174 190 m 222 190 l 117 432 l 222 674 l 260 674 l 157 432 l 260 190 "},"›":{"ha":308,"x_min":0,"x_max":0,"o":"m 135 190 l 240 432 l 135 674 l 172 674 l 281 432 l 172 190 m 49 190 l 151 432 l 49 674 l 86 674 l 192 432 l 86 190 "},"ﬁ":{"ha":896,"x_min":0,"x_max":0,"o":"m 75 0 l 75 769 b 324 1024 75 910 149 1024 b 572 769 499 1024 572 910 l 572 653 l 532 653 l 532 765 b 324 985 532 883 479 985 b 115 765 168 985 115 883 l 115 0 m 167 476 l 167 760 b 324 935 167 851 204 935 b 482 760 443 935 482 851 l 482 653 l 442 653 l 442 754 b 324 896 442 835 408 896 b 207 754 240 896 207 835 l 207 515 l 518 515 l 518 476 m 518 429 l 518 390 l 207 390 l 207 0 l 167 0 l 167 429 m 778 0 l 778 1003 l 818 1003 l 818 0 m 686 0 l 686 1003 l 726 1003 l 726 0 "},"ﬂ":{"ha":1050,"x_min":0,"x_max":0,"o":"m 75 0 l 75 769 b 324 1024 75 910 149 1024 b 572 769 499 1024 572 910 l 572 653 l 532 653 l 532 765 b 324 985 532 883 479 985 b 115 765 168 985 115 883 l 115 0 m 167 476 l 167 760 b 324 935 167 851 204 935 b 482 760 443 935 482 851 l 482 653 l 442 653 l 442 754 b 324 896 442 835 408 896 b 207 754 240 896 207 835 l 207 515 l 518 515 l 518 476 m 518 429 l 518 390 l 207 390 l 207 0 l 167 0 l 167 429 m 686 0 l 686 1003 l 726 1003 l 726 39 l 1031 39 l 1031 0 m 778 86 l 778 1003 l 818 1003 l 818 125 l 1031 125 l 1031 86 "},"‡":{"ha":646,"x_min":0,"x_max":0,"o":"m 47 397 l 47 436 l 257 436 l 257 626 l 47 626 l 47 665 l 297 665 l 297 397 m 349 397 l 349 665 l 599 665 l 599 626 l 389 626 l 389 436 l 599 436 l 599 397 m 599 350 l 599 311 l 389 311 l 389 -14 l 349 -14 l 349 350 m 297 350 l 297 -14 l 257 -14 l 257 311 l 47 311 l 47 350 m 349 713 l 349 1017 l 389 1017 l 389 751 l 599 751 l 599 713 m 47 713 l 47 751 l 257 751 l 257 1017 l 297 1017 l 297 713 "},"·":{"ha":243,"x_min":0,"x_max":0,"o":"m 147 439 l 147 564 l 186 564 l 186 439 m 57 439 l 57 564 l 96 564 l 96 439 "},"‚":{"ha":231,"x_min":0,"x_max":0,"o":"m 1 -146 l 68 146 l 108 146 l 39 -146 m 69 -146 l 154 146 l 194 146 l 107 -146 "},"„":{"ha":421,"x_min":0,"x_max":0,"o":"m 1 -146 l 68 146 l 108 146 l 39 -146 m 69 -146 l 154 146 l 194 146 l 107 -146 m 192 -146 l 258 146 l 299 146 l 229 -146 m 260 -146 l 344 146 l 385 146 l 297 -146 "},"‰":{"ha":1188,"x_min":0,"x_max":0,"o":"m 197 989 b 74 847 108 989 74 936 l 74 700 b 197 558 74 611 108 558 b 321 700 286 558 321 611 l 321 847 b 197 989 321 936 286 989 m 110 840 b 197 956 110 907 129 956 b 285 840 265 956 285 907 l 285 707 b 197 592 285 640 265 592 b 110 707 129 592 110 640 m 38 854 b 197 1024 38 958 88 1024 b 357 854 307 1024 357 958 l 357 693 b 197 524 357 589 307 524 b 38 693 88 524 38 589 m 197 921 b 146 832 151 921 146 882 l 146 715 b 197 626 146 665 151 626 b 249 715 243 626 249 665 l 249 832 b 197 921 249 882 243 921 m 192 0 l 661 1003 l 701 1003 l 232 0 m 113 0 l 583 1003 l 624 1003 l 153 0 m 617 444 b 493 303 528 444 493 392 l 493 156 b 617 14 493 67 528 14 b 740 156 706 14 740 67 l 740 303 b 617 444 740 392 706 444 m 529 296 b 617 411 529 363 549 411 b 704 296 685 411 704 363 l 704 163 b 617 47 704 96 685 47 b 529 163 549 47 529 96 m 457 310 b 617 479 457 414 507 479 b 776 310 726 479 776 414 l 776 149 b 617 -21 776 44 726 -21 b 457 149 507 -21 457 44 m 617 376 b 565 288 571 376 565 338 l 565 171 b 617 82 565 121 571 82 b 668 171 663 82 668 121 l 668 288 b 617 376 668 338 663 376 m 990 444 b 867 303 901 444 867 392 l 867 156 b 990 14 867 67 901 14 b 1114 156 1079 14 1114 67 l 1114 303 b 990 444 1114 392 1079 444 m 903 296 b 990 411 903 363 922 411 b 1078 296 1058 411 1078 363 l 1078 163 b 990 47 1078 96 1058 47 b 903 163 922 47 903 96 m 831 310 b 990 479 831 414 881 479 b 1150 310 1100 479 1150 414 l 1150 149 b 990 -21 1150 44 1100 -21 b 831 149 881 -21 831 44 m 990 376 b 939 288 944 376 939 338 l 939 171 b 990 82 939 121 944 82 b 1042 171 1036 82 1042 121 l 1042 288 b 990 376 1042 338 1036 376 "},"Â":{"ha":617,"x_min":0,"x_max":0,"o":""},"Ê":{"ha":503,"x_min":0,"x_max":0,"o":"m 78 0 l 78 1003 l 450 1003 l 450 964 l 118 964 l 118 39 l 450 39 l 450 0 m 169 476 l 169 917 l 450 917 l 450 878 l 210 878 l 210 515 l 429 515 l 429 476 m 169 86 l 169 429 l 429 429 l 429 390 l 210 390 l 210 125 l 450 125 l 450 86 m 403 1090 l 311 1217 l 217 1217 l 125 1090 l 85 1090 l 196 1243 l 332 1243 l 443 1090 m 324 1090 l 264 1175 l 204 1090 l 164 1090 l 232 1183 l 296 1183 l 364 1090 "},"Á":{"ha":617,"x_min":0,"x_max":0,"o":""},"Ë":{"ha":503,"x_min":0,"x_max":0,"o":""},"È":{"ha":503,"x_min":0,"x_max":0,"o":"m 78 0 l 78 1003 l 450 1003 l 450 964 l 118 964 l 118 39 l 450 39 l 450 0 m 169 476 l 169 917 l 450 917 l 450 878 l 210 878 l 210 515 l 429 515 l 429 476 m 169 86 l 169 429 l 429 429 l 429 390 l 210 390 l 210 125 l 450 125 l 450 86 m 285 1090 l 186 1243 l 226 1243 l 324 1090 m 204 1090 l 75 1243 l 117 1243 l 244 1090 "},"Í":{"ha":507,"x_min":0,"x_max":0,"o":""},"Î":{"ha":288,"x_min":0,"x_max":0,"o":"m 169 0 l 169 1003 l 210 1003 l 210 0 m 78 0 l 78 1003 l 118 1003 l 118 0 m 282 1090 l 190 1217 l 96 1217 l 4 1090 l -36 1090 l 75 1243 l 211 1243 l 322 1090 m 203 1090 l 143 1175 l 83 1090 l 43 1090 l 111 1183 l 175 1183 l 243 1090 "},"Ï":{"ha":453,"x_min":0,"x_max":0,"o":""},"Ì":{"ha":288,"x_min":0,"x_max":0,"o":"m 169 0 l 169 1003 l 210 1003 l 210 0 m 78 0 l 78 1003 l 118 1003 l 118 0 m 165 1090 l 67 1243 l 107 1243 l 204 1090 m 85 1090 l -44 1243 l -3 1243 l 125 1090 "},"Ó":{"ha":631,"x_min":0,"x_max":0,"o":""},"Ô":{"ha":631,"x_min":0,"x_max":0,"o":"m 315 -21 b 67 233 140 -21 67 93 l 67 769 b 315 1024 67 910 140 1024 b 564 769 490 1024 564 910 l 564 233 b 315 -21 564 93 490 -21 m 107 238 b 315 18 107 119 160 18 b 524 238 471 18 524 119 l 524 765 b 315 985 524 883 471 985 b 107 765 160 985 107 883 m 315 68 b 158 243 196 68 158 151 l 158 760 b 315 935 158 851 196 935 b 472 760 435 935 472 851 l 472 243 b 315 68 472 151 435 68 m 199 249 b 315 107 199 168 232 107 b 432 249 399 107 432 168 l 432 754 b 315 896 432 835 399 896 b 199 754 232 896 199 835 m 454 1090 l 363 1217 l 268 1217 l 176 1090 l 136 1090 l 247 1243 l 383 1243 l 494 1090 m 375 1090 l 315 1175 l 256 1090 l 215 1090 l 283 1183 l 347 1183 l 415 1090 "},"":{"ha":1179,"x_min":0,"x_max":0,"o":"m 474 0 l 358 578 l 589 804 l 821 578 l 706 0 m 219 0 l 69 197 l 167 383 l 358 289 l 417 0 m 764 0 l 821 289 l 1011 383 l 1110 197 l 961 0 "},"Ò":{"ha":631,"x_min":0,"x_max":0,"o":""},"Ú":{"ha":647,"x_min":0,"x_max":0,"o":""},"Û":{"ha":647,"x_min":0,"x_max":0,"o":"m 324 -21 b 75 233 149 -21 75 93 l 75 1003 l 115 1003 l 115 238 b 324 18 115 119 168 18 b 532 238 479 18 532 119 l 532 1003 l 572 1003 l 572 233 b 324 -21 572 93 499 -21 m 324 68 b 167 243 204 68 167 151 l 167 1003 l 207 1003 l 207 249 b 324 107 207 168 240 107 b 440 249 407 107 440 168 l 440 1003 l 481 1003 l 481 243 b 324 68 481 151 443 68 m 463 1090 l 371 1217 l 276 1217 l 185 1090 l 144 1090 l 256 1243 l 392 1243 l 503 1090 m 383 1090 l 324 1175 l 264 1090 l 224 1090 l 292 1183 l 356 1183 l 424 1090 "},"Ù":{"ha":647,"x_min":0,"x_max":0,"o":""},"ı":{"ha":288,"x_min":0,"x_max":0,"o":"m 169 0 l 169 1003 l 210 1003 l 210 0 m 78 0 l 78 1003 l 118 1003 l 118 0 "},"ˆ":{"ha":497,"x_min":0,"x_max":0,"o":"m 388 1090 l 296 1217 l 201 1217 l 110 1090 l 69 1090 l 181 1243 l 317 1243 l 428 1090 m 308 1090 l 249 1175 l 189 1090 l 149 1090 l 217 1183 l 281 1183 l 349 1090 "},"˜":{"ha":528,"x_min":0,"x_max":0,"o":"m 331 1076 b 197 1118 282 1076 240 1118 b 149 1076 178 1118 164 1108 l 121 1094 b 197 1150 138 1132 167 1150 b 331 1108 242 1150 283 1108 b 431 1186 379 1108 411 1144 l 458 1169 b 331 1076 436 1122 390 1076 m 197 1219 b 331 1178 246 1219 288 1178 b 379 1219 350 1178 364 1188 l 407 1201 b 331 1146 390 1164 361 1146 b 197 1188 286 1146 244 1188 b 97 1110 149 1188 117 1151 l 69 1126 b 197 1219 92 1174 138 1219 "},"¯":{"ha":501,"x_min":0,"x_max":0,"o":"m 69 1175 l 69 1213 l 432 1213 l 432 1175 m 69 1097 l 69 1135 l 432 1135 l 432 1097 "},"˚":{"ha":414,"x_min":0,"x_max":0,"o":"m 69 1179 b 207 1317 69 1256 131 1317 b 344 1179 283 1317 344 1256 b 207 1042 344 1103 283 1042 b 69 1179 131 1042 69 1103 m 314 1179 b 207 1289 314 1239 268 1289 b 100 1179 146 1289 100 1239 b 207 1069 100 1119 146 1069 b 314 1179 268 1069 314 1119 m 128 1179 b 207 1258 128 1222 164 1258 b 286 1179 250 1258 286 1222 b 207 1100 286 1136 250 1100 b 128 1179 164 1100 128 1136 m 207 1231 b 158 1179 181 1231 158 1207 b 207 1128 158 1151 181 1128 b 256 1179 233 1128 256 1151 b 207 1231 256 1207 233 1231 "},"¸":{"ha":450,"x_min":0,"x_max":0,"o":"m 221 -322 b 83 -196 110 -322 83 -264 l 83 -189 l 107 -189 l 107 -196 b 217 -297 107 -250 128 -297 l 257 -297 b 353 -185 319 -297 353 -269 b 257 -81 353 -93 322 -81 l 231 -81 l 231 0 l 256 0 l 256 -56 l 264 -56 b 381 -182 333 -56 381 -71 b 264 -322 381 -286 333 -322 m 211 -264 b 135 -194 150 -264 135 -233 l 135 -189 l 158 -189 l 158 -194 b 207 -239 158 -219 167 -239 l 243 -239 b 292 -194 283 -239 292 -219 l 292 -186 b 244 -139 292 -158 286 -139 l 174 -139 l 174 0 l 199 0 l 199 -114 l 250 -114 b 319 -183 301 -114 319 -132 l 319 -193 b 249 -264 319 -239 299 -264 "},"ˇ":{"ha":497,"x_min":0,"x_max":0,"o":"m 428 1243 l 317 1090 l 181 1090 l 69 1243 l 110 1243 l 201 1117 l 296 1117 l 388 1243 m 349 1243 l 281 1150 l 217 1150 l 149 1243 l 189 1243 l 249 1158 l 308 1243 "},"Ð":{"ha":671,"x_min":0,"x_max":0,"o":"m 29 476 l 29 515 l 126 515 l 126 1003 l 425 1003 b 599 821 549 1003 599 925 l 599 182 b 425 0 599 78 549 0 l 126 0 l 126 390 l 29 390 l 29 429 l 167 429 l 167 39 l 417 39 b 558 185 518 39 558 101 l 558 818 b 417 964 558 901 518 964 l 167 964 l 167 476 m 218 476 l 218 917 l 406 917 b 507 814 481 917 507 872 l 507 189 b 406 86 507 131 481 86 l 218 86 l 218 429 l 376 429 l 376 390 l 258 390 l 258 125 l 397 125 b 467 193 451 125 467 153 l 467 810 b 397 878 467 850 451 878 l 258 878 l 258 515 l 376 515 l 376 476 "},"€":{"ha":644,"x_min":0,"x_max":0,"o":"m 40 601 l 40 640 l 126 640 l 126 776 b 361 1024 126 917 200 1024 b 596 776 522 1024 596 917 l 596 707 l 556 707 l 556 772 b 361 985 556 890 503 985 b 167 772 219 985 167 890 l 167 601 m 167 358 l 167 231 b 361 18 167 113 219 18 b 556 231 503 18 556 113 l 556 254 l 596 254 l 596 226 b 361 -21 596 86 522 -21 b 126 226 200 -21 126 86 l 126 319 l 40 319 l 40 358 m 218 767 b 361 935 218 858 256 935 b 506 767 467 935 506 858 l 506 707 l 465 707 l 465 761 b 361 896 465 842 432 896 b 258 761 292 896 258 842 l 258 640 l 519 640 l 519 601 l 218 601 m 519 358 l 519 319 l 258 319 l 258 242 b 361 107 258 161 292 107 b 465 242 432 107 465 161 l 465 254 l 506 254 l 506 236 b 361 68 506 144 467 68 b 218 236 256 68 218 144 l 218 358 m 218 561 l 519 561 l 519 522 l 258 522 l 258 438 l 519 438 l 519 399 l 218 399 m 167 399 l 40 399 l 40 438 l 126 438 l 126 522 l 40 522 l 40 561 l 167 561 "}," ":{"ha":225,"x_min":0,"x_max":0,"o":""},"\u0000":{"ha":0,"x_min":0,"x_max":0,"o":""},"\r":{"ha":225,"x_min":0,"x_max":0,"o":""},"₤":{"ha":690,"x_min":0,"x_max":0,"o":"m 50 536 l 50 575 l 157 575 l 157 776 b 399 1024 157 917 231 1024 b 640 776 567 1024 640 917 l 640 681 l 600 681 l 600 772 b 399 985 600 890 539 985 b 197 772 258 985 197 890 l 197 536 m 560 575 l 560 536 l 249 536 l 249 767 b 399 935 249 858 294 935 b 550 767 503 935 550 858 l 550 681 l 510 681 l 510 761 b 399 896 510 842 476 896 b 289 761 322 896 289 842 l 289 575 m 249 335 l 249 496 l 560 496 l 560 457 l 289 457 l 289 374 l 560 374 l 560 335 m 560 294 l 560 256 l 289 256 l 289 125 l 640 125 l 640 86 l 249 86 l 249 294 m 50 0 l 50 39 l 640 39 l 640 0 m 50 335 l 50 374 l 157 374 l 157 457 l 50 457 l 50 496 l 197 496 l 197 335 m 197 294 l 197 86 l 50 86 l 50 125 l 157 125 l 157 256 l 50 256 l 50 294 "},"‥":{"ha":436,"x_min":0,"x_max":0,"o":"m 135 0 l 135 125 l 174 125 l 174 0 m 44 0 l 44 125 l 83 125 l 83 0 m 353 0 l 353 125 l 392 125 l 392 0 m 263 0 l 263 125 l 301 125 l 301 0 "},"ȷ":{"ha":383,"x_min":0,"x_max":0,"o":"m 25 32 l 60 32 b 268 251 215 32 268 119 l 268 1003 l 308 1003 l 308 247 b 60 -7 308 93 235 -7 l 25 -7 m 25 118 l 60 118 b 176 263 143 118 176 168 l 176 1003 l 217 1003 l 217 257 b 60 79 217 151 179 79 l 25 79 "},"ĳ":{"ha":671,"x_min":0,"x_max":0,"o":"m 169 0 l 169 1003 l 210 1003 l 210 0 m 78 0 l 78 1003 l 118 1003 l 118 0 m 313 32 l 347 32 b 556 251 503 32 556 119 l 556 1003 l 596 1003 l 596 247 b 347 -7 596 93 522 -7 l 313 -7 m 313 118 l 347 118 b 464 263 431 118 464 168 l 464 1003 l 504 1003 l 504 257 b 347 79 504 151 467 79 l 313 79 "},"­":{"ha":432,"x_min":0,"x_max":0,"o":"m 57 389 l 57 429 l 375 429 l 375 389 m 57 475 l 57 515 l 375 515 l 375 475 "},"ĸ":{"ha":618,"x_min":0,"x_max":0,"o":"m 418 0 l 418 268 b 300 390 418 339 385 390 l 210 390 l 210 0 l 169 0 l 169 431 l 303 431 b 458 272 424 431 458 343 l 458 0 m 78 0 l 78 1003 l 118 1003 l 118 0 m 458 1003 l 458 633 b 303 475 458 563 424 475 l 169 475 l 169 1003 l 210 1003 l 210 515 l 300 515 b 418 638 385 515 418 565 l 418 1003 m 457 453 b 550 279 524 433 550 353 l 550 0 l 510 0 l 510 276 b 389 453 510 350 489 424 b 510 629 489 482 510 556 l 510 1003 l 550 1003 l 550 626 b 457 453 550 551 524 472 "},"˙":{"ha":271,"x_min":0,"x_max":0,"o":"m 161 1090 l 161 1215 l 201 1215 l 201 1090 m 69 1090 l 69 1215 l 110 1215 l 110 1090 "},"İ":{"ha":554,"x_min":0,"x_max":0,"o":""},"Ẅ":{"ha":986,"x_min":0,"x_max":0,"o":""},"ḟ":{"ha":607,"x_min":0,"x_max":0,"o":""},"ė":{"ha":625,"x_min":0,"x_max":0,"o":"m 524 429 l 524 765 b 315 985 524 883 471 985 b 107 765 160 985 107 883 l 107 238 b 315 18 107 119 160 18 b 524 238 471 18 524 119 l 524 268 l 564 268 l 564 233 b 315 -21 564 93 490 -21 b 67 233 140 -21 67 93 l 67 769 b 315 1024 67 910 140 1024 b 564 769 490 1024 564 910 l 564 390 l 199 390 l 199 249 b 315 107 199 168 232 107 b 433 249 400 107 433 168 l 433 268 l 474 268 l 474 243 b 315 68 474 151 435 68 b 158 243 196 68 158 151 l 158 429 m 158 476 l 158 760 b 315 935 158 851 196 935 b 472 760 435 935 472 851 l 472 476 m 199 515 l 432 515 l 432 754 b 315 896 432 835 399 896 b 199 754 232 896 199 835 m 342 1090 l 342 1215 l 382 1215 l 382 1090 m 250 1090 l 250 1215 l 290 1215 l 290 1090 "},"Ṫ":{"ha":493,"x_min":0,"x_max":0,"o":""},"ġ":{"ha":625,"x_min":0,"x_max":0,"o":"m 107 238 b 315 18 107 119 160 18 b 524 238 471 18 524 119 l 524 476 l 268 476 l 268 515 l 564 515 l 564 233 b 315 -21 564 93 490 -21 b 67 233 140 -21 67 93 l 67 769 b 315 1024 67 910 140 1024 b 564 769 490 1024 564 910 l 564 653 l 524 653 l 524 765 b 315 985 524 883 471 985 b 107 765 160 985 107 883 m 158 760 b 315 935 158 851 196 935 b 474 760 435 935 474 851 l 474 653 l 433 653 l 433 754 b 315 896 433 835 400 896 b 199 754 232 896 199 835 l 199 249 b 315 107 199 168 232 107 b 433 249 399 107 433 168 l 433 390 l 268 390 l 268 429 l 474 429 l 474 243 b 315 68 474 151 435 68 b 158 243 196 68 158 151 m 342 1090 l 342 1215 l 382 1215 l 382 1090 m 250 1090 l 250 1215 l 290 1215 l 290 1090 "},"Ġ":{"ha":625,"x_min":0,"x_max":0,"o":"m 107 238 b 315 18 107 119 160 18 b 524 238 471 18 524 119 l 524 476 l 268 476 l 268 515 l 564 515 l 564 233 b 315 -21 564 93 490 -21 b 67 233 140 -21 67 93 l 67 769 b 315 1024 67 910 140 1024 b 564 769 490 1024 564 910 l 564 653 l 524 653 l 524 765 b 315 985 524 883 471 985 b 107 765 160 985 107 883 m 158 760 b 315 935 158 851 196 935 b 474 760 435 935 474 851 l 474 653 l 433 653 l 433 754 b 315 896 433 835 400 896 b 199 754 232 896 199 835 l 199 249 b 315 107 199 168 232 107 b 433 249 399 107 433 168 l 433 390 l 268 390 l 268 429 l 474 429 l 474 243 b 315 68 474 151 435 68 b 158 243 196 68 158 151 m 342 1090 l 342 1215 l 382 1215 l 382 1090 m 250 1090 l 250 1215 l 290 1215 l 290 1090 "},"Ċ":{"ha":606,"x_min":0,"x_max":0,"o":""},"ċ":{"ha":606,"x_min":0,"x_max":0,"o":"m 107 238 b 315 18 107 119 160 18 b 524 238 471 18 524 119 l 524 268 l 564 268 l 564 233 b 315 -21 564 93 490 -21 b 67 233 140 -21 67 93 l 67 769 b 315 1024 67 910 140 1024 b 564 769 490 1024 564 910 l 564 653 l 524 653 l 524 765 b 315 985 524 883 471 985 b 107 765 160 985 107 883 m 158 760 b 315 935 158 851 196 935 b 474 760 435 935 474 851 l 474 653 l 433 653 l 433 754 b 315 896 433 835 400 896 b 199 754 232 896 199 835 l 199 249 b 315 107 199 168 232 107 b 433 249 400 107 433 168 l 433 268 l 474 268 l 474 243 b 315 68 474 151 435 68 b 158 243 196 68 158 151 m 342 1090 l 342 1215 l 382 1215 l 382 1090 m 250 1090 l 250 1215 l 290 1215 l 290 1090 "},"Ṁ":{"ha":986,"x_min":0,"x_max":0,"o":"m 428 0 l 428 754 b 317 896 428 835 393 896 b 207 754 240 896 207 835 l 207 0 l 167 0 l 167 758 b 317 935 167 858 211 935 b 468 758 422 935 468 858 l 468 0 m 518 0 l 518 758 b 669 935 518 858 564 935 b 819 758 775 935 819 858 l 819 0 l 779 0 l 779 754 b 669 896 779 835 746 896 b 558 754 593 896 558 835 l 558 0 m 493 949 b 669 1024 532 993 589 1024 b 911 769 838 1024 911 910 l 911 0 l 871 0 l 871 764 b 669 985 871 888 810 985 b 493 871 601 985 536 964 b 317 985 450 964 385 985 b 115 764 176 985 115 888 l 115 0 l 75 0 l 75 769 b 317 1024 75 910 149 1024 b 493 949 397 1024 454 993 m 519 1090 l 519 1215 l 560 1215 l 560 1090 m 428 1090 l 428 1215 l 468 1215 l 468 1090 "},"ŋ":{"ha":650,"x_min":0,"x_max":0,"o":"m 292 -153 l 326 -153 b 443 -8 410 -153 443 -103 l 443 724 b 422 861 443 781 442 828 b 350 899 407 888 383 899 b 210 667 243 899 210 789 l 210 0 l 169 0 l 169 661 b 357 938 169 794 210 938 b 453 885 403 938 431 921 b 483 728 476 847 483 794 l 483 -14 b 326 -192 483 -119 446 -192 l 292 -192 m 292 -239 l 326 -239 b 535 -19 482 -239 535 -151 l 535 733 b 497 921 535 813 526 875 b 368 985 469 964 429 985 b 169 831 218 985 174 844 l 169 1003 l 203 1003 l 203 936 b 376 1024 219 963 275 1024 b 531 944 451 1024 500 990 b 575 738 564 894 575 828 l 575 -24 b 326 -278 575 -178 501 -278 l 292 -278 m 78 0 l 78 1003 l 118 1003 l 118 0 "},"Ŋ":{"ha":647,"x_min":0,"x_max":0,"o":"m 289 -240 l 324 -240 b 532 -21 479 -240 532 -153 l 532 765 b 324 985 532 883 479 985 b 115 765 168 985 115 883 l 115 0 l 75 0 l 75 769 b 324 1024 75 910 149 1024 b 572 769 499 1024 572 910 l 572 -25 b 324 -279 572 -179 499 -279 l 289 -279 m 289 -154 l 324 -154 b 440 -10 407 -154 440 -104 l 440 754 b 324 896 440 835 407 896 b 207 754 240 896 207 835 l 207 0 l 167 0 l 167 760 b 324 935 167 851 204 935 b 481 760 443 935 481 851 l 481 -15 b 324 -193 481 -121 443 -193 l 289 -193 "},"ḣ":{"ha":656,"x_min":0,"x_max":0,"o":""},"Ḣ":{"ha":656,"x_min":0,"x_max":0,"o":"m 169 476 l 169 1003 l 210 1003 l 210 515 l 446 515 l 446 1003 l 486 1003 l 486 476 m 446 0 l 446 390 l 210 390 l 210 0 l 169 0 l 169 429 l 486 429 l 486 0 m 538 0 l 538 1003 l 578 1003 l 578 0 m 78 0 l 78 1003 l 118 1003 l 118 0 m 353 1090 l 353 1215 l 393 1215 l 393 1090 m 261 1090 l 261 1215 l 301 1215 l 301 1090 "},"Ḟ":{"ha":486,"x_min":0,"x_max":0,"o":""},"ṫ":{"ha":597,"x_min":0,"x_max":0,"o":"m 75 1003 l 75 233 b 324 -21 75 93 149 -21 b 572 233 499 -21 572 93 l 572 268 l 532 268 l 532 238 b 324 18 532 119 479 18 b 115 238 168 18 115 119 l 115 1003 m 167 632 l 167 243 b 324 68 167 151 204 68 b 482 243 443 68 482 151 l 482 268 l 442 268 l 442 249 b 324 107 442 168 408 107 b 207 249 240 107 207 168 l 207 593 l 556 593 l 556 632 m 556 679 l 556 718 l 207 718 l 207 1003 l 167 1003 l 167 679 m 378 1090 l 378 1215 l 418 1215 l 418 1090 m 286 1090 l 286 1215 l 326 1215 l 326 1090 "},"ŀ":{"ha":494,"x_min":0,"x_max":0,"o":"m 78 0 l 78 1003 l 118 1003 l 118 39 l 422 39 l 422 0 m 169 86 l 169 1003 l 210 1003 l 210 125 l 422 125 l 422 86 m 410 439 l 410 564 l 449 564 l 449 439 m 319 439 l 319 564 l 358 564 l 358 439 "},"Ŀ":{"ha":494,"x_min":0,"x_max":0,"o":"m 78 0 l 78 1003 l 118 1003 l 118 39 l 422 39 l 422 0 m 169 86 l 169 1003 l 210 1003 l 210 125 l 422 125 l 422 86 m 410 439 l 410 564 l 449 564 l 449 439 m 319 439 l 319 564 l 358 564 l 358 439 "},"∆":{"ha":600,"x_min":0,"x_max":0,"o":"m 35 0 l 113 819 b 300 1024 122 915 146 1024 b 488 819 454 1024 478 915 l 565 0 m 300 985 b 153 811 182 985 161 903 l 79 39 l 521 39 l 447 811 b 300 985 439 903 418 985 m 132 86 l 203 807 b 300 935 211 886 233 935 b 397 807 367 935 389 886 l 468 86 m 360 804 b 300 896 353 878 338 896 b 240 804 263 896 247 878 l 176 125 l 424 125 "},"∏":{"ha":656,"x_min":0,"x_max":0,"o":"m 538 0 l 538 964 l 118 964 l 118 0 l 78 0 l 78 1003 l 578 1003 l 578 0 m 446 0 l 446 878 l 210 878 l 210 0 l 169 0 l 169 917 l 486 917 l 486 0 "},"Ḃ":{"ha":611,"x_min":0,"x_max":0,"o":""},"Ḋ":{"ha":622,"x_min":0,"x_max":0,"o":"m 376 1003 b 550 821 500 1003 550 925 l 550 182 b 376 0 550 78 500 0 l 78 0 l 78 1003 m 118 39 l 368 39 b 510 185 469 39 510 101 l 510 818 b 368 964 510 901 469 964 l 118 964 m 357 917 b 458 814 432 917 458 872 l 458 189 b 357 86 458 131 432 86 l 169 86 l 169 917 m 210 125 l 349 125 b 418 193 403 125 418 153 l 418 810 b 349 878 418 850 403 878 l 210 878 m 340 1090 l 340 1215 l 381 1215 l 381 1090 m 249 1090 l 249 1215 l 289 1215 l 289 1090 "},"ḋ":{"ha":622,"x_min":0,"x_max":0,"o":"m 376 1003 b 550 821 500 1003 550 925 l 550 182 b 376 0 550 78 500 0 l 78 0 l 78 1003 m 118 39 l 368 39 b 510 185 469 39 510 101 l 510 818 b 368 964 510 901 469 964 l 118 964 m 357 917 b 458 814 432 917 458 872 l 458 189 b 357 86 458 131 432 86 l 169 86 l 169 917 m 210 125 l 349 125 b 418 193 403 125 418 153 l 418 810 b 349 878 418 850 403 878 l 210 878 m 340 1090 l 340 1215 l 381 1215 l 381 1090 m 249 1090 l 249 1215 l 289 1215 l 289 1090 "},"ḃ":{"ha":611,"x_min":0,"x_max":0,"o":""},"Ṗ":{"ha":599,"x_min":0,"x_max":0,"o":"m 78 0 l 78 1003 l 376 1003 b 550 821 500 1003 550 925 l 550 568 b 376 386 550 464 500 386 l 210 386 l 210 0 l 169 0 l 169 425 l 368 425 b 510 571 469 425 510 488 l 510 818 b 368 964 510 901 469 964 l 118 964 l 118 0 m 357 917 b 458 814 432 917 458 872 l 458 575 b 357 472 458 517 432 472 l 169 472 l 169 917 m 210 511 l 349 511 b 418 579 403 511 418 539 l 418 810 b 349 878 418 850 403 878 l 210 878 m 340 1090 l 340 1215 l 381 1215 l 381 1090 m 249 1090 l 249 1215 l 289 1215 l 289 1090 "},"ṗ":{"ha":599,"x_min":0,"x_max":0,"o":"m 78 0 l 78 1003 l 376 1003 b 550 821 500 1003 550 925 l 550 568 b 376 386 550 464 500 386 l 210 386 l 210 0 l 169 0 l 169 425 l 368 425 b 510 571 469 425 510 488 l 510 818 b 368 964 510 901 469 964 l 118 964 l 118 0 m 357 917 b 458 814 432 917 458 872 l 458 575 b 357 472 458 517 432 472 l 169 472 l 169 917 m 210 511 l 349 511 b 418 579 403 511 418 539 l 418 810 b 349 878 418 850 403 878 l 210 878 m 340 1090 l 340 1215 l 381 1215 l 381 1090 m 249 1090 l 249 1215 l 289 1215 l 289 1090 "},"Ė":{"ha":503,"x_min":0,"x_max":0,"o":""},"Ż":{"ha":544,"x_min":0,"x_max":0,"o":"m 33 0 l 33 107 l 351 878 l 40 878 l 40 917 l 414 917 l 68 79 l 68 39 l 511 39 l 511 0 m 128 86 l 471 922 l 471 964 l 40 964 l 40 1003 l 504 1003 l 504 896 l 185 125 l 511 125 l 511 86 m 299 1090 l 299 1215 l 339 1215 l 339 1090 m 207 1090 l 207 1215 l 247 1215 l 247 1090 "},"ż":{"ha":544,"x_min":0,"x_max":0,"o":"m 33 0 l 33 107 l 351 878 l 40 878 l 40 917 l 414 917 l 68 79 l 68 39 l 511 39 l 511 0 m 128 86 l 471 922 l 471 964 l 40 964 l 40 1003 l 504 1003 l 504 896 l 185 125 l 511 125 l 511 86 m 299 1090 l 299 1215 l 339 1215 l 339 1090 m 207 1090 l 207 1215 l 247 1215 l 247 1090 "},"Ō":{"ha":631,"x_min":0,"x_max":0,"o":""},"ō":{"ha":631,"x_min":0,"x_max":0,"o":"m 315 -21 b 67 233 140 -21 67 93 l 67 769 b 315 1024 67 910 140 1024 b 564 769 490 1024 564 910 l 564 233 b 315 -21 564 93 490 -21 m 107 238 b 315 18 107 119 160 18 b 524 238 471 18 524 119 l 524 765 b 315 985 524 883 471 985 b 107 765 160 985 107 883 m 315 68 b 158 243 196 68 158 151 l 158 760 b 315 935 158 851 196 935 b 472 760 435 935 472 851 l 472 243 b 315 68 472 151 435 68 m 199 249 b 315 107 199 168 232 107 b 432 249 399 107 432 168 l 432 754 b 315 896 432 835 399 896 b 199 754 232 896 199 835 m 135 1175 l 135 1213 l 497 1213 l 497 1175 m 135 1097 l 135 1135 l 497 1135 l 497 1097 "},"Ā":{"ha":617,"x_min":0,"x_max":0,"o":"m 444 0 l 421 246 l 196 246 l 172 0 l 132 0 l 160 285 l 457 285 l 485 0 m 308 985 b 161 811 190 985 169 903 l 83 0 l 43 0 l 121 819 b 308 1024 131 915 154 1024 b 496 819 463 1024 486 915 l 574 0 l 533 0 l 456 811 b 308 985 447 903 426 985 m 210 801 b 308 935 218 886 236 935 b 407 801 381 935 399 886 l 451 332 l 165 332 m 208 371 l 408 371 l 368 804 b 308 896 361 878 346 896 b 249 804 271 896 256 878 m 128 1175 l 128 1213 l 490 1213 l 490 1175 m 128 1097 l 128 1135 l 490 1135 l 490 1097 "},"ā":{"ha":647,"x_min":0,"x_max":0,"o":""},"Ē":{"ha":503,"x_min":0,"x_max":0,"o":"m 78 0 l 78 1003 l 450 1003 l 450 964 l 118 964 l 118 39 l 450 39 l 450 0 m 169 476 l 169 917 l 450 917 l 450 878 l 210 878 l 210 515 l 429 515 l 429 476 m 169 86 l 169 429 l 429 429 l 429 390 l 210 390 l 210 125 l 450 125 l 450 86 m 83 1175 l 83 1213 l 446 1213 l 446 1175 m 83 1097 l 83 1135 l 446 1135 l 446 1097 "},"Ī":{"ha":439,"x_min":0,"x_max":0,"o":""},"ē":{"ha":625,"x_min":0,"x_max":0,"o":"m 524 429 l 524 765 b 315 985 524 883 471 985 b 107 765 160 985 107 883 l 107 238 b 315 18 107 119 160 18 b 524 238 471 18 524 119 l 524 268 l 564 268 l 564 233 b 315 -21 564 93 490 -21 b 67 233 140 -21 67 93 l 67 769 b 315 1024 67 910 140 1024 b 564 769 490 1024 564 910 l 564 390 l 199 390 l 199 249 b 315 107 199 168 232 107 b 433 249 400 107 433 168 l 433 268 l 474 268 l 474 243 b 315 68 474 151 435 68 b 158 243 196 68 158 151 l 158 429 m 158 476 l 158 760 b 315 935 158 851 196 935 b 472 760 435 935 472 851 l 472 476 m 199 515 l 432 515 l 432 754 b 315 896 432 835 399 896 b 199 754 232 896 199 835 m 135 1175 l 135 1213 l 497 1213 l 497 1175 m 135 1097 l 135 1135 l 497 1135 l 497 1097 "},"ī":{"ha":439,"x_min":0,"x_max":0,"o":""},"ˉ":{"ha":501,"x_min":0,"x_max":0,"o":"m 69 1175 l 69 1213 l 432 1213 l 432 1175 m 69 1097 l 69 1135 l 432 1135 l 432 1097 "},"¬":{"ha":731,"x_min":0,"x_max":0,"o":"m 625 143 l 625 475 l 44 475 l 44 515 l 665 515 l 665 143 m 543 143 l 543 393 l 44 393 l 44 433 l 583 433 l 583 143 "},"Ẃ":{"ha":986,"x_min":0,"x_max":0,"o":""},"Ẁ":{"ha":986,"x_min":0,"x_max":0,"o":"m 468 1003 l 468 244 b 317 68 468 144 422 68 b 167 244 211 68 167 144 l 167 1003 l 207 1003 l 207 249 b 317 107 207 168 240 107 b 428 249 393 107 428 168 l 428 1003 m 558 1003 l 558 249 b 669 107 558 168 593 107 b 779 249 746 107 779 168 l 779 1003 l 819 1003 l 819 244 b 669 68 819 144 775 68 b 518 244 564 68 518 144 l 518 1003 m 493 54 b 317 -21 454 10 397 -21 b 75 233 149 -21 75 93 l 75 1003 l 115 1003 l 115 239 b 317 18 115 115 176 18 b 493 132 385 18 450 39 b 669 18 536 39 601 18 b 871 239 810 18 871 115 l 871 1003 l 911 1003 l 911 233 b 669 -21 911 93 838 -21 b 493 54 589 -21 532 10 m 535 1090 l 436 1243 l 476 1243 l 574 1090 m 454 1090 l 325 1243 l 367 1243 l 494 1090 "},"Ź":{"ha":544,"x_min":0,"x_max":0,"o":"m 33 0 l 33 107 l 351 878 l 40 878 l 40 917 l 414 917 l 68 79 l 68 39 l 511 39 l 511 0 m 128 86 l 471 922 l 471 964 l 40 964 l 40 1003 l 504 1003 l 504 896 l 185 125 l 511 125 l 511 86 m 213 1090 l 310 1243 l 350 1243 l 251 1090 m 292 1090 l 419 1243 l 461 1243 l 332 1090 "},"ź":{"ha":544,"x_min":0,"x_max":0,"o":"m 33 0 l 33 107 l 351 878 l 40 878 l 40 917 l 414 917 l 68 79 l 68 39 l 511 39 l 511 0 m 128 86 l 471 922 l 471 964 l 40 964 l 40 1003 l 504 1003 l 504 896 l 185 125 l 511 125 l 511 86 m 213 1090 l 310 1243 l 350 1243 l 251 1090 m 292 1090 l 419 1243 l 461 1243 l 332 1090 "},"Ū":{"ha":647,"x_min":0,"x_max":0,"o":""},"ŕ":{"ha":615,"x_min":0,"x_max":0,"o":""},"Ć":{"ha":606,"x_min":0,"x_max":0,"o":"m 107 238 b 315 18 107 119 160 18 b 524 238 471 18 524 119 l 524 268 l 564 268 l 564 233 b 315 -21 564 93 490 -21 b 67 233 140 -21 67 93 l 67 769 b 315 1024 67 910 140 1024 b 564 769 490 1024 564 910 l 564 653 l 524 653 l 524 765 b 315 985 524 883 471 985 b 107 765 160 985 107 883 m 158 760 b 315 935 158 851 196 935 b 474 760 435 935 474 851 l 474 653 l 433 653 l 433 754 b 315 896 433 835 400 896 b 199 754 232 896 199 835 l 199 249 b 315 107 199 168 232 107 b 433 249 400 107 433 168 l 433 268 l 474 268 l 474 243 b 315 68 474 151 435 68 b 158 243 196 68 158 151 m 256 1090 l 353 1243 l 393 1243 l 294 1090 m 335 1090 l 463 1243 l 504 1243 l 375 1090 "},"ć":{"ha":606,"x_min":0,"x_max":0,"o":"m 107 238 b 315 18 107 119 160 18 b 524 238 471 18 524 119 l 524 268 l 564 268 l 564 233 b 315 -21 564 93 490 -21 b 67 233 140 -21 67 93 l 67 769 b 315 1024 67 910 140 1024 b 564 769 490 1024 564 910 l 564 653 l 524 653 l 524 765 b 315 985 524 883 471 985 b 107 765 160 985 107 883 m 158 760 b 315 935 158 851 196 935 b 474 760 435 935 474 851 l 474 653 l 433 653 l 433 754 b 315 896 433 835 400 896 b 199 754 232 896 199 835 l 199 249 b 315 107 199 168 232 107 b 433 249 400 107 433 168 l 433 268 l 474 268 l 474 243 b 315 68 474 151 435 68 b 158 243 196 68 158 151 m 256 1090 l 353 1243 l 393 1243 l 294 1090 m 335 1090 l 463 1243 l 504 1243 l 375 1090 "},"ǽ":{"ha":999,"x_min":0,"x_max":0,"o":""},"ḱ":{"ha":618,"x_min":0,"x_max":0,"o":"m 418 0 l 418 268 b 300 390 418 339 385 390 l 210 390 l 210 0 l 169 0 l 169 431 l 303 431 b 458 272 424 431 458 343 l 458 0 m 78 0 l 78 1003 l 118 1003 l 118 0 m 458 1003 l 458 633 b 303 475 458 563 424 475 l 169 475 l 169 1003 l 210 1003 l 210 515 l 300 515 b 418 638 385 515 418 565 l 418 1003 m 457 453 b 550 279 524 433 550 353 l 550 0 l 510 0 l 510 276 b 389 453 510 350 489 424 b 510 629 489 482 510 556 l 510 1003 l 550 1003 l 550 626 b 457 453 550 551 524 472 m 242 1090 l 339 1243 l 379 1243 l 281 1090 m 321 1090 l 449 1243 l 490 1243 l 361 1090 "},"Ĺ":{"ha":449,"x_min":0,"x_max":0,"o":""},"ĺ":{"ha":449,"x_min":0,"x_max":0,"o":"m 78 0 l 78 1003 l 118 1003 l 118 39 l 422 39 l 422 0 m 169 86 l 169 1003 l 210 1003 l 210 125 l 422 125 l 422 86 m 83 1090 l 181 1243 l 221 1243 l 122 1090 m 163 1090 l 290 1243 l 332 1243 l 203 1090 "},"Ń":{"ha":647,"x_min":0,"x_max":0,"o":"m 324 1024 b 572 769 499 1024 572 910 l 572 0 l 532 0 l 532 765 b 324 985 532 883 479 985 b 115 765 168 985 115 883 l 115 0 l 75 0 l 75 769 b 324 1024 75 910 149 1024 m 324 935 b 481 760 443 935 481 851 l 481 0 l 440 0 l 440 754 b 324 896 440 835 407 896 b 207 754 240 896 207 835 l 207 0 l 167 0 l 167 760 b 324 935 167 851 204 935 m 264 1090 l 361 1243 l 401 1243 l 303 1090 m 343 1090 l 471 1243 l 513 1243 l 383 1090 "},"ń":{"ha":650,"x_min":0,"x_max":0,"o":""},"ỳ":{"ha":642,"x_min":0,"x_max":0,"o":""},"ŷ":{"ha":642,"x_min":0,"x_max":0,"o":"m 110 1003 l 110 671 b 147 483 110 592 118 529 b 276 419 175 440 215 419 b 475 574 425 419 471 560 l 475 243 b 318 68 475 151 438 68 b 160 243 199 68 160 151 l 160 268 l 200 268 l 200 249 b 318 107 200 168 235 107 b 435 249 401 107 435 168 l 435 447 b 268 381 396 410 353 381 b 114 460 193 381 144 414 b 69 667 81 510 69 576 l 69 1003 m 567 1003 l 567 233 b 318 -21 567 93 493 -21 b 69 233 143 -21 69 93 l 69 268 l 110 268 l 110 238 b 318 18 110 119 163 18 b 526 238 474 18 526 119 l 526 1003 m 201 1003 l 201 681 b 222 543 201 624 203 576 b 294 506 238 517 261 506 b 435 738 401 506 435 615 l 435 1003 l 475 1003 l 475 743 b 288 467 475 610 435 467 b 192 519 242 467 214 483 b 161 676 168 557 161 610 l 161 1003 m 456 1090 l 364 1217 l 269 1217 l 178 1090 l 138 1090 l 249 1243 l 385 1243 l 496 1090 m 376 1090 l 317 1175 l 257 1090 l 217 1090 l 285 1183 l 349 1183 l 417 1090 "},"ĥ":{"ha":656,"x_min":0,"x_max":0,"o":""},"Ĥ":{"ha":656,"x_min":0,"x_max":0,"o":"m 169 476 l 169 1003 l 210 1003 l 210 515 l 446 515 l 446 1003 l 486 1003 l 486 476 m 446 0 l 446 390 l 210 390 l 210 0 l 169 0 l 169 429 l 486 429 l 486 0 m 538 0 l 538 1003 l 578 1003 l 578 0 m 78 0 l 78 1003 l 118 1003 l 118 0 m 465 1090 l 374 1217 l 279 1217 l 188 1090 l 147 1090 l 258 1243 l 394 1243 l 506 1090 m 386 1090 l 326 1175 l 267 1090 l 226 1090 l 294 1183 l 358 1183 l 426 1090 "},"ř":{"ha":615,"x_min":0,"x_max":0,"o":""},"ĉ":{"ha":606,"x_min":0,"x_max":0,"o":""},"Ĉ":{"ha":606,"x_min":0,"x_max":0,"o":"m 107 238 b 315 18 107 119 160 18 b 524 238 471 18 524 119 l 524 268 l 564 268 l 564 233 b 315 -21 564 93 490 -21 b 67 233 140 -21 67 93 l 67 769 b 315 1024 67 910 140 1024 b 564 769 490 1024 564 910 l 564 653 l 524 653 l 524 765 b 315 985 524 883 471 985 b 107 765 160 985 107 883 m 158 760 b 315 935 158 851 196 935 b 474 760 435 935 474 851 l 474 653 l 433 653 l 433 754 b 315 896 433 835 400 896 b 199 754 232 896 199 835 l 199 249 b 315 107 199 168 232 107 b 433 249 400 107 433 168 l 433 268 l 474 268 l 474 243 b 315 68 474 151 435 68 b 158 243 196 68 158 151 m 454 1090 l 363 1217 l 268 1217 l 176 1090 l 136 1090 l 247 1243 l 383 1243 l 494 1090 m 375 1090 l 315 1175 l 256 1090 l 215 1090 l 283 1183 l 347 1183 l 415 1090 "},"Č":{"ha":606,"x_min":0,"x_max":0,"o":""},"č":{"ha":606,"x_min":0,"x_max":0,"o":"m 107 238 b 315 18 107 119 160 18 b 524 238 471 18 524 119 l 524 268 l 564 268 l 564 233 b 315 -21 564 93 490 -21 b 67 233 140 -21 67 93 l 67 769 b 315 1024 67 910 140 1024 b 564 769 490 1024 564 910 l 564 653 l 524 653 l 524 765 b 315 985 524 883 471 985 b 107 765 160 985 107 883 m 158 760 b 315 935 158 851 196 935 b 474 760 435 935 474 851 l 474 653 l 433 653 l 433 754 b 315 896 433 835 400 896 b 199 754 232 896 199 835 l 199 249 b 315 107 199 168 232 107 b 433 249 400 107 433 168 l 433 268 l 474 268 l 474 243 b 315 68 474 151 435 68 b 158 243 196 68 158 151 m 494 1243 l 383 1090 l 247 1090 l 136 1243 l 176 1243 l 268 1117 l 363 1117 l 454 1243 m 415 1243 l 347 1150 l 283 1150 l 215 1243 l 256 1243 l 315 1158 l 375 1243 "},"Ŵ":{"ha":986,"x_min":0,"x_max":0,"o":""},"ū":{"ha":650,"x_min":0,"x_max":0,"o":""},"Ň":{"ha":647,"x_min":0,"x_max":0,"o":""},"Ď":{"ha":622,"x_min":0,"x_max":0,"o":"m 376 1003 b 550 821 500 1003 550 925 l 550 182 b 376 0 550 78 500 0 l 78 0 l 78 1003 m 118 39 l 368 39 b 510 185 469 39 510 101 l 510 818 b 368 964 510 901 469 964 l 118 964 m 357 917 b 458 814 432 917 458 872 l 458 189 b 357 86 458 131 432 86 l 169 86 l 169 917 m 210 125 l 349 125 b 418 193 403 125 418 153 l 418 810 b 349 878 418 850 403 878 l 210 878 m 493 1243 l 382 1090 l 246 1090 l 135 1243 l 175 1243 l 267 1117 l 361 1117 l 453 1243 m 414 1243 l 346 1150 l 282 1150 l 214 1243 l 254 1243 l 314 1158 l 374 1243 "},"Ě":{"ha":503,"x_min":0,"x_max":0,"o":""},"Ĝ":{"ha":625,"x_min":0,"x_max":0,"o":""},"ě":{"ha":625,"x_min":0,"x_max":0,"o":""},"ĵ":{"ha":397,"x_min":0,"x_max":0,"o":"m 25 32 l 60 32 b 268 251 215 32 268 119 l 268 1003 l 308 1003 l 308 247 b 60 -7 308 93 235 -7 l 25 -7 m 25 118 l 60 118 b 176 263 143 118 176 168 l 176 1003 l 217 1003 l 217 257 b 60 79 217 151 179 79 l 25 79 m 382 1090 l 290 1217 l 196 1217 l 104 1090 l 64 1090 l 175 1243 l 311 1243 l 422 1090 m 303 1090 l 243 1175 l 183 1090 l 143 1090 l 211 1183 l 275 1183 l 343 1090 "},"ň":{"ha":650,"x_min":0,"x_max":0,"o":"m 443 0 l 443 724 b 422 861 443 781 442 828 b 350 899 407 888 383 899 b 210 667 243 899 210 789 l 210 0 l 169 0 l 169 661 b 357 938 169 794 210 938 b 453 885 403 938 431 921 b 483 728 476 847 483 794 l 483 0 m 535 0 l 535 733 b 497 921 535 813 526 875 b 368 985 469 964 429 985 b 169 829 211 985 169 829 l 169 1003 l 203 1003 l 203 936 b 376 1024 219 963 275 1024 b 531 944 451 1024 500 990 b 575 738 564 894 575 828 l 575 0 m 78 0 l 78 1003 l 118 1003 l 118 0 m 526 1243 l 415 1090 l 279 1090 l 168 1243 l 208 1243 l 300 1117 l 394 1117 l 486 1243 m 447 1243 l 379 1150 l 315 1150 l 247 1243 l 288 1243 l 347 1158 l 407 1243 "},"ĝ":{"ha":625,"x_min":0,"x_max":0,"o":""},"ď":{"ha":622,"x_min":0,"x_max":0,"o":""},"":{"ha":365,"x_min":0,"x_max":0,"o":"m 93 -314 l 147 -69 l 188 -69 l 131 -314 m 161 -314 l 233 -69 l 274 -69 l 199 -314 "},"ŗ":{"ha":615,"x_min":0,"x_max":0,"o":"m 169 917 l 357 917 b 458 814 432 917 458 872 l 458 633 b 303 475 458 563 424 475 l 169 475 m 78 0 l 78 1003 l 376 1003 b 550 821 500 1003 550 925 l 550 626 b 457 453 550 551 524 472 b 550 279 524 433 550 353 l 550 0 l 510 0 l 510 276 b 389 453 510 350 489 424 b 510 629 489 482 510 556 l 510 818 b 368 964 510 901 469 964 l 118 964 l 118 0 m 418 810 b 349 878 418 850 403 878 l 210 878 l 210 515 l 300 515 b 418 638 385 515 418 565 m 418 0 l 418 268 b 300 390 418 339 385 390 l 210 390 l 210 0 l 169 0 l 169 431 l 303 431 b 458 272 424 431 458 343 l 458 0 m 218 -314 l 272 -69 l 313 -69 l 256 -314 m 286 -314 l 358 -69 l 399 -69 l 324 -314 "},"Ģ":{"ha":625,"x_min":0,"x_max":0,"o":"m 107 238 b 315 18 107 119 160 18 b 524 238 471 18 524 119 l 524 476 l 268 476 l 268 515 l 564 515 l 564 233 b 315 -21 564 93 490 -21 b 67 233 140 -21 67 93 l 67 769 b 315 1024 67 910 140 1024 b 564 769 490 1024 564 910 l 564 653 l 524 653 l 524 765 b 315 985 524 883 471 985 b 107 765 160 985 107 883 m 158 760 b 315 935 158 851 196 935 b 474 760 435 935 474 851 l 474 653 l 433 653 l 433 754 b 315 896 433 835 400 896 b 199 754 232 896 199 835 l 199 249 b 315 107 199 168 232 107 b 433 249 399 107 433 168 l 433 390 l 268 390 l 268 429 l 474 429 l 474 243 b 315 68 474 151 435 68 b 158 243 196 68 158 151 m 225 -314 l 279 -69 l 319 -69 l 263 -314 m 293 -314 l 365 -69 l 406 -69 l 331 -314 "},"ģ":{"ha":625,"x_min":0,"x_max":0,"o":"m 107 238 b 315 18 107 119 160 18 b 524 238 471 18 524 119 l 524 476 l 268 476 l 268 515 l 564 515 l 564 233 b 315 -21 564 93 490 -21 b 67 233 140 -21 67 93 l 67 769 b 315 1024 67 910 140 1024 b 564 769 490 1024 564 910 l 564 653 l 524 653 l 524 765 b 315 985 524 883 471 985 b 107 765 160 985 107 883 m 158 760 b 315 935 158 851 196 935 b 474 760 435 935 474 851 l 474 653 l 433 653 l 433 754 b 315 896 433 835 400 896 b 199 754 232 896 199 835 l 199 249 b 315 107 199 168 232 107 b 433 249 399 107 433 168 l 433 390 l 268 390 l 268 429 l 474 429 l 474 243 b 315 68 474 151 435 68 b 158 243 196 68 158 151 m 225 -314 l 279 -69 l 319 -69 l 263 -314 m 293 -314 l 365 -69 l 406 -69 l 331 -314 "},"ţ":{"ha":597,"x_min":0,"x_max":0,"o":"m 115 1003 l 115 238 b 324 18 115 119 168 18 b 532 238 479 18 532 119 l 532 268 l 572 268 l 572 233 b 324 -21 572 93 499 -21 b 75 233 149 -21 75 93 l 75 1003 m 556 632 l 556 593 l 207 593 l 207 249 b 324 107 207 168 240 107 b 442 249 408 107 442 168 l 442 268 l 482 268 l 482 243 b 324 68 482 151 443 68 b 167 243 204 68 167 151 l 167 632 m 167 679 l 167 1003 l 207 1003 l 207 718 l 556 718 l 556 679 m 214 -314 l 268 -69 l 308 -69 l 251 -314 m 282 -314 l 354 -69 l 394 -69 l 319 -314 "},"Ţ":{"ha":493,"x_min":0,"x_max":0,"o":"m 272 0 l 272 917 l 465 917 l 465 878 l 313 878 l 313 0 m 28 964 l 28 1003 l 465 1003 l 465 964 m 181 0 l 181 878 l 28 878 l 28 917 l 221 917 l 221 0 m 129 -314 l 183 -69 l 224 -69 l 167 -314 m 197 -314 l 269 -69 l 310 -69 l 235 -314 "},"ķ":{"ha":618,"x_min":0,"x_max":0,"o":"m 418 0 l 418 268 b 300 390 418 339 385 390 l 210 390 l 210 0 l 169 0 l 169 431 l 303 431 b 458 272 424 431 458 343 l 458 0 m 78 0 l 78 1003 l 118 1003 l 118 0 m 458 1003 l 458 633 b 303 475 458 563 424 475 l 169 475 l 169 1003 l 210 1003 l 210 515 l 300 515 b 418 638 385 515 418 565 l 418 1003 m 457 453 b 550 279 524 433 550 353 l 550 0 l 510 0 l 510 276 b 389 453 510 350 489 424 b 510 629 489 482 510 556 l 510 1003 l 550 1003 l 550 626 b 457 453 550 551 524 472 m 217 -314 l 271 -69 l 311 -69 l 254 -314 m 285 -314 l 357 -69 l 397 -69 l 322 -314 "},"ļ":{"ha":449,"x_min":0,"x_max":0,"o":"m 78 0 l 78 1003 l 118 1003 l 118 39 l 422 39 l 422 0 m 169 86 l 169 1003 l 210 1003 l 210 125 l 422 125 l 422 86 m 154 -314 l 208 -69 l 249 -69 l 192 -314 m 222 -314 l 294 -69 l 335 -69 l 260 -314 "},"Ļ":{"ha":449,"x_min":0,"x_max":0,"o":"m 78 0 l 78 1003 l 118 1003 l 118 39 l 422 39 l 422 0 m 169 86 l 169 1003 l 210 1003 l 210 125 l 422 125 l 422 86 m 154 -314 l 208 -69 l 249 -69 l 192 -314 m 222 -314 l 294 -69 l 335 -69 l 260 -314 "},"ņ":{"ha":650,"x_min":0,"x_max":0,"o":"m 443 0 l 443 724 b 422 861 443 781 442 828 b 350 899 407 888 383 899 b 210 667 243 899 210 789 l 210 0 l 169 0 l 169 661 b 357 938 169 794 210 938 b 453 885 403 938 431 921 b 483 728 476 847 483 794 l 483 0 m 535 0 l 535 733 b 497 921 535 813 526 875 b 368 985 469 964 429 985 b 169 829 211 985 169 829 l 169 1003 l 203 1003 l 203 936 b 376 1024 219 963 275 1024 b 531 944 451 1024 500 990 b 575 738 564 894 575 828 l 575 0 m 78 0 l 78 1003 l 118 1003 l 118 0 m 226 -314 l 281 -69 l 321 -69 l 264 -314 m 294 -314 l 367 -69 l 407 -69 l 332 -314 "},"Ņ":{"ha":647,"x_min":0,"x_max":0,"o":"m 324 1024 b 572 769 499 1024 572 910 l 572 0 l 532 0 l 532 765 b 324 985 532 883 479 985 b 115 765 168 985 115 883 l 115 0 l 75 0 l 75 769 b 324 1024 75 910 149 1024 m 324 935 b 481 760 443 935 481 851 l 481 0 l 440 0 l 440 754 b 324 896 440 835 407 896 b 207 754 240 896 207 835 l 207 0 l 167 0 l 167 760 b 324 935 167 851 204 935 m 225 -314 l 279 -69 l 319 -69 l 263 -314 m 293 -314 l 365 -69 l 406 -69 l 331 -314 "},"Ŕ":{"ha":614,"x_min":0,"x_max":0,"o":""},"Ř":{"ha":614,"x_min":0,"x_max":0,"o":"m 169 475 l 169 917 l 358 917 b 460 813 428 917 460 882 l 460 633 b 283 475 460 536 401 475 m 531 0 l 490 276 b 374 453 476 374 456 431 b 510 629 481 488 510 540 l 510 817 b 368 964 510 914 463 964 l 118 964 l 118 0 l 78 0 l 78 1003 l 376 1003 b 550 821 500 1003 550 925 l 550 626 b 443 453 550 536 510 472 b 529 279 496 433 514 381 l 571 0 m 439 0 l 397 268 b 286 390 383 356 357 390 l 210 390 l 210 0 l 169 0 l 169 431 l 283 431 b 438 272 393 431 424 363 l 481 0 m 418 810 b 349 878 418 850 403 878 l 210 878 l 210 515 l 286 515 b 418 638 371 515 418 550 m 494 1243 l 383 1090 l 247 1090 l 136 1243 l 176 1243 l 268 1117 l 363 1117 l 454 1243 m 415 1243 l 347 1150 l 283 1150 l 215 1243 l 256 1243 l 315 1158 l 375 1243 "},"Ŗ":{"ha":614,"x_min":0,"x_max":0,"o":"m 169 475 l 169 917 l 358 917 b 460 813 428 917 460 882 l 460 633 b 283 475 460 536 401 475 m 531 0 l 490 276 b 374 453 476 374 456 431 b 510 629 481 488 510 540 l 510 817 b 368 964 510 914 463 964 l 118 964 l 118 0 l 78 0 l 78 1003 l 376 1003 b 550 821 500 1003 550 925 l 550 626 b 443 453 550 536 510 472 b 529 279 496 433 514 381 l 571 0 m 439 0 l 397 268 b 286 390 383 356 357 390 l 210 390 l 210 0 l 169 0 l 169 431 l 283 431 b 438 272 393 431 424 363 l 481 0 m 418 810 b 349 878 418 850 403 878 l 210 878 l 210 515 l 286 515 b 418 638 371 515 418 550 m 214 -314 l 268 -69 l 308 -69 l 251 -314 m 282 -314 l 354 -69 l 394 -69 l 319 -314 "},"Ů":{"ha":647,"x_min":0,"x_max":0,"o":""},"ṁ":{"ha":990,"x_min":0,"x_max":0,"o":""},"đ":{"ha":671,"x_min":0,"x_max":0,"o":"m 29 476 l 29 515 l 126 515 l 126 1003 l 425 1003 b 599 821 549 1003 599 925 l 599 182 b 425 0 599 78 549 0 l 126 0 l 126 390 l 29 390 l 29 429 l 167 429 l 167 39 l 417 39 b 558 185 518 39 558 101 l 558 818 b 417 964 558 901 518 964 l 167 964 l 167 476 m 218 476 l 218 917 l 406 917 b 507 814 481 917 507 872 l 507 189 b 406 86 507 131 481 86 l 218 86 l 218 429 l 376 429 l 376 390 l 258 390 l 258 125 l 397 125 b 467 193 451 125 467 153 l 467 810 b 397 878 467 850 451 878 l 258 878 l 258 515 l 376 515 l 376 476 "},"Đ":{"ha":671,"x_min":0,"x_max":0,"o":"m 29 476 l 29 515 l 126 515 l 126 1003 l 425 1003 b 599 821 549 1003 599 925 l 599 182 b 425 0 599 78 549 0 l 126 0 l 126 390 l 29 390 l 29 429 l 167 429 l 167 39 l 417 39 b 558 185 518 39 558 101 l 558 818 b 417 964 558 901 518 964 l 167 964 l 167 476 m 218 476 l 218 917 l 406 917 b 507 814 481 917 507 872 l 507 189 b 406 86 507 131 481 86 l 218 86 l 218 429 l 376 429 l 376 390 l 258 390 l 258 125 l 397 125 b 467 193 451 125 467 153 l 467 810 b 397 878 467 850 451 878 l 258 878 l 258 515 l 376 515 l 376 476 "},"ǻ":{"ha":647,"x_min":0,"x_max":0,"o":"m 167 332 l 167 760 b 324 935 167 851 204 935 b 481 760 443 935 481 851 l 481 332 m 207 371 l 440 371 l 440 754 b 324 896 440 835 407 896 b 207 754 240 896 207 835 m 293 969 b 115 765 165 958 115 865 l 115 0 l 75 0 l 75 769 b 214 992 75 875 118 958 b 186 1075 196 1015 186 1043 b 324 1213 186 1151 247 1213 b 461 1075 400 1213 461 1151 b 433 992 461 1043 451 1015 b 572 769 529 958 572 875 l 572 0 l 532 0 l 532 765 b 354 969 532 865 482 958 b 431 1075 406 986 431 1031 b 324 1185 431 1135 385 1185 b 217 1075 263 1185 217 1135 b 293 969 217 1031 242 986 m 481 285 l 481 0 l 440 0 l 440 246 l 207 246 l 207 0 l 167 0 l 167 285 m 244 1075 b 324 1154 244 1118 281 1154 b 403 1075 367 1154 403 1118 b 324 996 403 1032 367 996 b 244 1075 281 996 244 1032 m 324 1126 b 275 1075 297 1126 275 1103 b 324 1024 275 1047 297 1024 b 372 1075 350 1024 372 1047 b 324 1126 372 1103 350 1126 m 264 1249 l 361 1401 l 401 1401 l 303 1249 m 343 1249 l 471 1401 l 513 1401 l 383 1249 "},"Ǻ":{"ha":617,"x_min":0,"x_max":0,"o":"m 229 1075 b 308 1154 229 1118 265 1154 b 388 1075 351 1154 388 1118 b 308 996 388 1032 351 996 b 229 1075 265 996 229 1032 m 308 1126 b 260 1075 282 1126 260 1103 b 308 1024 260 1047 282 1024 b 357 1075 335 1024 357 1047 b 308 1126 357 1103 335 1126 m 444 0 l 421 246 l 196 246 l 172 0 l 132 0 l 160 285 l 457 285 l 485 0 m 308 1213 b 446 1075 385 1213 446 1151 b 414 988 446 1042 433 1011 b 496 819 475 954 489 886 l 574 0 l 533 0 l 456 811 b 347 972 447 892 432 958 b 415 1075 392 990 415 1032 b 308 1185 415 1135 369 1185 b 201 1075 247 1185 201 1135 b 269 972 201 1032 225 990 b 161 811 185 958 169 892 l 83 0 l 43 0 l 121 819 b 203 988 128 886 142 954 b 171 1075 183 1011 171 1042 b 308 1213 171 1151 232 1213 m 249 1249 l 346 1401 l 386 1401 l 288 1249 m 328 1249 l 456 1401 l 497 1401 l 368 1249 m 210 801 b 308 935 218 886 236 935 b 407 801 381 935 399 886 l 451 332 l 165 332 m 208 371 l 408 371 l 368 804 b 308 896 361 878 346 896 b 249 804 271 896 256 878 "},"Ḱ":{"ha":600,"x_min":0,"x_max":0,"o":""},"Ķ":{"ha":600,"x_min":0,"x_max":0,"o":"m 169 475 l 169 1003 l 210 1003 l 210 515 l 272 515 b 390 638 357 515 385 565 l 418 1003 l 460 1003 l 432 635 b 283 475 425 539 371 475 m 510 0 l 482 275 b 360 453 475 346 454 425 b 481 631 460 483 475 563 l 510 1003 l 550 1003 l 522 626 b 429 453 517 551 489 472 b 522 279 489 433 515 353 l 550 0 m 418 0 l 390 268 b 272 390 383 339 357 390 l 210 390 l 210 0 l 169 0 l 169 431 l 283 431 b 432 271 371 431 421 376 l 460 0 m 78 0 l 78 1003 l 118 1003 l 118 0 m 206 -314 l 260 -69 l 300 -69 l 243 -314 m 274 -314 l 346 -69 l 386 -69 l 311 -314 "},"Ỳ":{"ha":575,"x_min":0,"x_max":0,"o":""},"Ŷ":{"ha":575,"x_min":0,"x_max":0,"o":"m 261 0 l 221 0 l 221 424 b 85 621 118 449 93 539 l 49 1003 l 89 1003 l 124 629 b 261 457 131 549 153 464 m 313 457 b 451 629 422 464 444 549 l 486 1003 l 526 1003 l 490 621 b 353 424 482 539 457 449 l 353 0 l 313 0 m 288 550 b 363 647 338 550 356 574 l 396 1003 l 432 1003 l 397 640 b 288 511 390 564 363 511 b 178 640 213 511 185 564 l 143 1003 l 179 1003 l 213 647 b 288 550 219 574 238 550 m 426 1090 l 335 1217 l 240 1217 l 149 1090 l 108 1090 l 219 1243 l 356 1243 l 467 1090 m 347 1090 l 288 1175 l 228 1090 l 188 1090 l 256 1183 l 319 1183 l 388 1090 "},"ħ":{"ha":708,"x_min":0,"x_max":0,"o":"m 196 476 l 196 760 l 513 760 l 513 476 m 472 721 l 236 721 l 236 515 l 472 515 m 472 0 l 472 390 l 236 390 l 236 0 l 196 0 l 196 429 l 513 429 l 513 0 m 104 0 l 104 721 l 21 721 l 21 760 l 144 760 l 144 0 m 564 0 l 564 760 l 688 760 l 688 721 l 604 721 l 604 0 m 196 807 l 196 1003 l 236 1003 l 236 846 l 472 846 l 472 1003 l 513 1003 l 513 807 m 21 807 l 21 846 l 104 846 l 104 1003 l 144 1003 l 144 807 m 564 807 l 564 1003 l 604 1003 l 604 846 l 688 846 l 688 807 "},"Ħ":{"ha":708,"x_min":0,"x_max":0,"o":"m 196 476 l 196 760 l 513 760 l 513 476 m 472 721 l 236 721 l 236 515 l 472 515 m 472 0 l 472 390 l 236 390 l 236 0 l 196 0 l 196 429 l 513 429 l 513 0 m 104 0 l 104 721 l 21 721 l 21 760 l 144 760 l 144 0 m 564 0 l 564 760 l 688 760 l 688 721 l 604 721 l 604 0 m 196 807 l 196 1003 l 236 1003 l 236 846 l 472 846 l 472 1003 l 513 1003 l 513 807 m 21 807 l 21 846 l 104 846 l 104 1003 l 144 1003 l 144 807 m 564 807 l 564 1003 l 604 1003 l 604 846 l 688 846 l 688 807 "},"˘":{"ha":419,"x_min":0,"x_max":0,"o":"m 210 1079 b 347 1189 299 1079 347 1129 l 347 1194 l 375 1194 l 375 1189 b 210 1051 375 1113 314 1051 b 44 1189 106 1051 44 1113 l 44 1194 l 72 1194 l 72 1189 b 210 1079 72 1129 121 1079 m 314 1194 l 314 1189 b 210 1110 314 1146 279 1110 b 106 1189 140 1110 106 1146 l 106 1194 l 133 1194 l 133 1189 b 210 1138 133 1161 156 1138 b 286 1189 264 1138 286 1161 l 286 1194 "},"˝":{"ha":604,"x_min":0,"x_max":0,"o":"m 122 1090 l 219 1243 l 260 1243 l 161 1090 m 201 1090 l 329 1243 l 371 1243 l 242 1090 m 333 1090 l 431 1243 l 471 1243 l 372 1090 m 413 1090 l 540 1243 l 582 1243 l 453 1090 "},"˛":{"ha":694,"x_min":0,"x_max":0,"o":"m 556 -249 b 472 -269 531 -262 501 -269 b 319 -136 396 -269 319 -222 b 414 14 319 -79 353 -19 l 451 14 b 351 -128 385 -22 351 -79 b 482 -237 351 -199 415 -237 b 556 -221 528 -237 556 -221 m 556 -181 b 496 -192 556 -181 525 -192 b 394 -117 444 -192 394 -168 b 488 14 394 -78 422 -28 l 526 14 b 426 -107 450 -31 426 -76 b 506 -162 426 -146 464 -162 b 556 -153 538 -162 556 -153 "},"Ă":{"ha":617,"x_min":0,"x_max":0,"o":""},"ă":{"ha":647,"x_min":0,"x_max":0,"o":"m 167 332 l 167 760 b 324 935 167 851 204 935 b 481 760 443 935 481 851 l 481 332 m 207 371 l 440 371 l 440 754 b 324 896 440 835 407 896 b 207 754 240 896 207 835 m 324 1024 b 572 769 499 1024 572 910 l 572 0 l 532 0 l 532 765 b 324 985 532 883 479 985 b 115 765 168 985 115 883 l 115 0 l 75 0 l 75 769 b 324 1024 75 910 149 1024 m 481 285 l 481 0 l 440 0 l 440 246 l 207 246 l 207 0 l 167 0 l 167 285 m 324 1079 b 461 1189 413 1079 461 1129 l 461 1194 l 489 1194 l 489 1189 b 324 1051 489 1113 428 1051 b 158 1189 219 1051 158 1113 l 158 1194 l 186 1194 l 186 1189 b 324 1079 186 1129 235 1079 m 428 1194 l 428 1189 b 324 1110 428 1146 393 1110 b 219 1189 254 1110 219 1146 l 219 1194 l 247 1194 l 247 1189 b 324 1138 247 1161 269 1138 b 400 1189 378 1138 400 1161 l 400 1194 "},"Ť":{"ha":493,"x_min":0,"x_max":0,"o":""},"Ŏ":{"ha":631,"x_min":0,"x_max":0,"o":""},"Ŭ":{"ha":647,"x_min":0,"x_max":0,"o":"m 324 -21 b 75 233 149 -21 75 93 l 75 1003 l 115 1003 l 115 238 b 324 18 115 119 168 18 b 532 238 479 18 532 119 l 532 1003 l 572 1003 l 572 233 b 324 -21 572 93 499 -21 m 324 68 b 167 243 204 68 167 151 l 167 1003 l 207 1003 l 207 249 b 324 107 207 168 240 107 b 440 249 407 107 440 168 l 440 1003 l 481 1003 l 481 243 b 324 68 481 151 443 68 m 324 1079 b 461 1189 413 1079 461 1129 l 461 1194 l 489 1194 l 489 1189 b 324 1051 489 1113 428 1051 b 158 1189 219 1051 158 1113 l 158 1194 l 186 1194 l 186 1189 b 324 1079 186 1129 235 1079 m 428 1194 l 428 1189 b 324 1110 428 1146 393 1110 b 219 1189 254 1110 219 1146 l 219 1194 l 247 1194 l 247 1189 b 324 1138 247 1161 269 1138 b 400 1189 378 1138 400 1161 l 400 1194 "},"ğ":{"ha":625,"x_min":0,"x_max":0,"o":""},"Ğ":{"ha":625,"x_min":0,"x_max":0,"o":"m 107 238 b 315 18 107 119 160 18 b 524 238 471 18 524 119 l 524 476 l 268 476 l 268 515 l 564 515 l 564 233 b 315 -21 564 93 490 -21 b 67 233 140 -21 67 93 l 67 769 b 315 1024 67 910 140 1024 b 564 769 490 1024 564 910 l 564 653 l 524 653 l 524 765 b 315 985 524 883 471 985 b 107 765 160 985 107 883 m 158 760 b 315 935 158 851 196 935 b 474 760 435 935 474 851 l 474 653 l 433 653 l 433 754 b 315 896 433 835 400 896 b 199 754 232 896 199 835 l 199 249 b 315 107 199 168 232 107 b 433 249 399 107 433 168 l 433 390 l 268 390 l 268 429 l 474 429 l 474 243 b 315 68 474 151 435 68 b 158 243 196 68 158 151 m 315 1079 b 453 1189 404 1079 453 1129 l 453 1194 l 481 1194 l 481 1189 b 315 1051 481 1113 419 1051 b 150 1189 211 1051 150 1113 l 150 1194 l 178 1194 l 178 1189 b 315 1079 178 1129 226 1079 m 419 1194 l 419 1189 b 315 1110 419 1146 385 1110 b 211 1189 246 1110 211 1146 l 211 1194 l 239 1194 l 239 1189 b 315 1138 239 1161 261 1138 b 392 1189 369 1138 392 1161 l 392 1194 "},"ŏ":{"ha":631,"x_min":0,"x_max":0,"o":"m 315 -21 b 67 233 140 -21 67 93 l 67 769 b 315 1024 67 910 140 1024 b 564 769 490 1024 564 910 l 564 233 b 315 -21 564 93 490 -21 m 107 238 b 315 18 107 119 160 18 b 524 238 471 18 524 119 l 524 765 b 315 985 524 883 471 985 b 107 765 160 985 107 883 m 315 68 b 158 243 196 68 158 151 l 158 760 b 315 935 158 851 196 935 b 472 760 435 935 472 851 l 472 243 b 315 68 472 151 435 68 m 199 249 b 315 107 199 168 232 107 b 432 249 399 107 432 168 l 432 754 b 315 896 432 835 399 896 b 199 754 232 896 199 835 m 315 1079 b 453 1189 404 1079 453 1129 l 453 1194 l 481 1194 l 481 1189 b 315 1051 481 1113 419 1051 b 150 1189 211 1051 150 1113 l 150 1194 l 178 1194 l 178 1189 b 315 1079 178 1129 226 1079 m 419 1194 l 419 1189 b 315 1110 419 1146 385 1110 b 211 1189 246 1110 211 1146 l 211 1194 l 239 1194 l 239 1189 b 315 1138 239 1161 261 1138 b 392 1189 369 1138 392 1161 l 392 1194 "},"Ĭ":{"ha":479,"x_min":0,"x_max":0,"o":""},"ĭ":{"ha":288,"x_min":0,"x_max":0,"o":"m 169 0 l 169 1003 l 210 1003 l 210 0 m 78 0 l 78 1003 l 118 1003 l 118 0 m 143 1079 b 281 1189 232 1079 281 1129 l 281 1194 l 308 1194 l 308 1189 b 143 1051 308 1113 247 1051 b -22 1189 39 1051 -22 1113 l -22 1194 l 6 1194 l 6 1189 b 143 1079 6 1129 54 1079 m 247 1194 l 247 1189 b 143 1110 247 1146 213 1110 b 39 1189 74 1110 39 1146 l 39 1194 l 67 1194 l 67 1189 b 143 1138 67 1161 89 1138 b 219 1189 197 1138 219 1161 l 219 1194 "},"ĕ":{"ha":625,"x_min":0,"x_max":0,"o":"m 524 429 l 524 765 b 315 985 524 883 471 985 b 107 765 160 985 107 883 l 107 238 b 315 18 107 119 160 18 b 524 238 471 18 524 119 l 524 268 l 564 268 l 564 233 b 315 -21 564 93 490 -21 b 67 233 140 -21 67 93 l 67 769 b 315 1024 67 910 140 1024 b 564 769 490 1024 564 910 l 564 390 l 199 390 l 199 249 b 315 107 199 168 232 107 b 433 249 400 107 433 168 l 433 268 l 474 268 l 474 243 b 315 68 474 151 435 68 b 158 243 196 68 158 151 l 158 429 m 158 476 l 158 760 b 315 935 158 851 196 935 b 472 760 435 935 472 851 l 472 476 m 199 515 l 432 515 l 432 754 b 315 896 432 835 399 896 b 199 754 232 896 199 835 m 315 1079 b 453 1189 404 1079 453 1129 l 453 1194 l 481 1194 l 481 1189 b 315 1051 481 1113 419 1051 b 150 1189 211 1051 150 1113 l 150 1194 l 178 1194 l 178 1189 b 315 1079 178 1129 226 1079 m 419 1194 l 419 1189 b 315 1110 419 1146 385 1110 b 211 1189 246 1110 211 1146 l 211 1194 l 239 1194 l 239 1189 b 315 1138 239 1161 261 1138 b 392 1189 369 1138 392 1161 l 392 1194 "},"Ĕ":{"ha":503,"x_min":0,"x_max":0,"o":""},"Ő":{"ha":631,"x_min":0,"x_max":0,"o":""},"ő":{"ha":631,"x_min":0,"x_max":0,"o":"m 315 -21 b 67 233 140 -21 67 93 l 67 769 b 315 1024 67 910 140 1024 b 564 769 490 1024 564 910 l 564 233 b 315 -21 564 93 490 -21 m 107 238 b 315 18 107 119 160 18 b 524 238 471 18 524 119 l 524 765 b 315 985 524 883 471 985 b 107 765 160 985 107 883 m 315 68 b 158 243 196 68 158 151 l 158 760 b 315 935 158 851 196 935 b 472 760 435 935 472 851 l 472 243 b 315 68 472 151 435 68 m 199 249 b 315 107 199 168 232 107 b 432 249 399 107 432 168 l 432 754 b 315 896 432 835 399 896 b 199 754 232 896 199 835 m 150 1090 l 247 1243 l 288 1243 l 189 1090 m 229 1090 l 357 1243 l 399 1243 l 269 1090 m 361 1090 l 458 1243 l 499 1243 l 400 1090 m 440 1090 l 568 1243 l 610 1243 l 481 1090 "},"Ű":{"ha":647,"x_min":0,"x_max":0,"o":"m 324 -21 b 75 233 149 -21 75 93 l 75 1003 l 115 1003 l 115 238 b 324 18 115 119 168 18 b 532 238 479 18 532 119 l 532 1003 l 572 1003 l 572 233 b 324 -21 572 93 499 -21 m 324 68 b 167 243 204 68 167 151 l 167 1003 l 207 1003 l 207 249 b 324 107 207 168 240 107 b 440 249 407 107 440 168 l 440 1003 l 481 1003 l 481 243 b 324 68 481 151 443 68 m 158 1090 l 256 1243 l 296 1243 l 197 1090 m 238 1090 l 365 1243 l 407 1243 l 278 1090 m 369 1090 l 467 1243 l 507 1243 l 408 1090 m 449 1090 l 576 1243 l 618 1243 l 489 1090 "},"ŭ":{"ha":650,"x_min":0,"x_max":0,"o":""},"ű":{"ha":650,"x_min":0,"x_max":0,"o":"m 207 1003 l 207 279 b 226 142 207 222 207 175 b 300 104 242 115 267 104 b 440 336 407 104 440 214 l 440 1003 l 481 1003 l 481 342 b 293 65 481 208 440 65 b 197 118 247 65 219 82 b 167 275 174 156 167 208 l 167 1003 m 115 1003 l 115 269 b 153 82 115 190 124 128 b 282 18 181 39 221 18 b 481 174 439 18 481 174 l 481 0 l 447 0 l 447 67 b 274 -21 431 40 375 -21 b 119 58 199 -21 150 13 b 75 265 86 108 75 175 l 75 1003 m 572 1003 l 572 0 l 532 0 l 532 1003 m 157 1090 l 254 1243 l 294 1243 l 196 1090 m 236 1090 l 364 1243 l 406 1243 l 276 1090 m 368 1090 l 465 1243 l 506 1243 l 407 1090 m 447 1090 l 575 1243 l 617 1243 l 488 1090 "},"Ŧ":{"ha":504,"x_min":0,"x_max":0,"o":"m 278 0 l 278 550 l 419 550 l 419 510 l 318 510 l 318 0 m 186 0 l 186 510 l 85 510 l 85 550 l 226 550 l 226 0 m 85 596 l 85 636 l 186 636 l 186 878 l 33 878 l 33 917 l 226 917 l 226 596 m 278 596 l 278 917 l 471 917 l 471 878 l 318 878 l 318 636 l 419 636 l 419 596 m 33 964 l 33 1003 l 471 1003 l 471 964 "},"ŧ":{"ha":631,"x_min":0,"x_max":0,"o":"m 149 396 l 149 238 b 357 18 149 119 201 18 b 565 238 513 18 565 119 l 565 268 l 606 268 l 606 233 b 357 -21 606 93 532 -21 b 108 233 182 -21 108 93 l 108 356 l 29 356 l 29 396 m 29 442 l 29 482 l 108 482 l 108 1003 l 149 1003 l 149 442 m 483 396 l 483 356 l 240 356 l 240 249 b 357 107 240 168 274 107 b 475 249 442 107 475 168 l 475 268 l 515 268 l 515 243 b 357 68 515 151 476 68 b 200 243 238 68 200 151 l 200 396 m 200 442 l 200 632 l 589 632 l 589 593 l 240 593 l 240 482 l 483 482 l 483 442 m 200 679 l 200 1003 l 240 1003 l 240 718 l 589 718 l 589 679 "},"Ĳ":{"ha":871,"x_min":0,"x_max":0,"o":"m 169 0 l 169 1003 l 210 1003 l 210 0 m 78 0 l 78 1003 l 118 1003 l 118 0 m 796 1003 l 796 233 b 554 -21 796 93 722 -21 b 313 233 386 -21 313 93 l 313 268 l 351 268 l 351 238 b 554 18 351 119 410 18 b 756 238 699 18 756 119 l 756 1003 m 704 1003 l 704 243 b 554 68 704 151 663 68 b 401 243 446 68 401 151 l 401 268 l 443 268 l 443 249 b 554 107 443 168 476 107 b 664 249 631 107 664 168 l 664 1003 "},"Ĵ":{"ha":583,"x_min":0,"x_max":0,"o":"m 508 1003 l 508 233 b 267 -21 508 93 435 -21 b 25 233 99 -21 25 93 l 25 268 l 64 268 l 64 238 b 267 18 64 119 122 18 b 468 238 411 18 468 119 l 468 1003 m 417 1003 l 417 243 b 267 68 417 151 375 68 b 114 243 158 68 114 151 l 114 268 l 156 268 l 156 249 b 267 107 156 168 189 107 b 376 249 343 107 376 168 l 376 1003 m 581 1090 l 489 1217 l 394 1217 l 303 1090 l 263 1090 l 374 1243 l 510 1243 l 621 1090 m 501 1090 l 442 1175 l 382 1090 l 342 1090 l 410 1183 l 474 1183 l 542 1090 "},"Ś":{"ha":599,"x_min":0,"x_max":0,"o":"m 504 289 b 356 474 504 383 460 418 l 269 519 b 142 690 153 581 142 607 l 142 760 b 297 935 142 851 179 935 b 454 760 415 935 454 851 l 454 653 l 414 653 l 414 754 b 297 896 414 835 381 896 b 182 754 215 896 182 835 l 182 703 b 311 546 182 629 185 613 l 394 501 b 544 303 485 453 544 407 l 544 233 b 296 -21 544 93 471 -21 b 47 233 121 -21 47 93 l 47 268 l 88 268 l 88 238 b 296 18 88 119 140 18 b 504 238 451 18 504 119 m 413 256 b 267 413 413 329 401 339 l 175 463 b 50 663 89 510 50 556 l 50 769 b 297 1024 50 910 124 1024 b 544 769 471 1024 544 910 l 544 653 l 504 653 l 504 765 b 297 985 504 883 451 985 b 90 765 143 985 90 883 l 90 675 b 217 489 90 576 117 543 l 307 440 b 453 271 428 374 453 351 l 453 243 b 296 68 453 151 415 68 b 138 243 176 68 138 151 l 138 268 l 178 268 l 178 249 b 296 107 178 168 211 107 b 413 249 379 107 413 168 m 236 1090 l 333 1243 l 374 1243 l 275 1090 m 315 1090 l 443 1243 l 485 1243 l 356 1090 "},"Ṡ":{"ha":599,"x_min":0,"x_max":0,"o":"m 504 289 b 356 474 504 383 460 418 l 269 519 b 142 690 153 581 142 607 l 142 760 b 297 935 142 851 179 935 b 454 760 415 935 454 851 l 454 653 l 414 653 l 414 754 b 297 896 414 835 381 896 b 182 754 215 896 182 835 l 182 703 b 311 546 182 629 185 613 l 394 501 b 544 303 485 453 544 407 l 544 233 b 296 -21 544 93 471 -21 b 47 233 121 -21 47 93 l 47 268 l 88 268 l 88 238 b 296 18 88 119 140 18 b 504 238 451 18 504 119 m 413 256 b 267 413 413 329 401 339 l 175 463 b 50 663 89 510 50 556 l 50 769 b 297 1024 50 910 124 1024 b 544 769 471 1024 544 910 l 544 653 l 504 653 l 504 765 b 297 985 504 883 451 985 b 90 765 143 985 90 883 l 90 675 b 217 489 90 576 117 543 l 307 440 b 453 271 428 374 453 351 l 453 243 b 296 68 453 151 415 68 b 138 243 176 68 138 151 l 138 268 l 178 268 l 178 249 b 296 107 178 168 211 107 b 413 249 379 107 413 168 m 322 1090 l 322 1215 l 363 1215 l 363 1090 m 231 1090 l 231 1215 l 271 1215 l 271 1090 "},"Ŝ":{"ha":599,"x_min":0,"x_max":0,"o":""},"ś":{"ha":599,"x_min":0,"x_max":0,"o":"m 504 289 b 356 474 504 383 460 418 l 269 519 b 142 690 153 581 142 607 l 142 760 b 297 935 142 851 179 935 b 454 760 415 935 454 851 l 454 653 l 414 653 l 414 754 b 297 896 414 835 381 896 b 182 754 215 896 182 835 l 182 703 b 311 546 182 629 185 613 l 394 501 b 544 303 485 453 544 407 l 544 233 b 296 -21 544 93 471 -21 b 47 233 121 -21 47 93 l 47 268 l 88 268 l 88 238 b 296 18 88 119 140 18 b 504 238 451 18 504 119 m 413 256 b 267 413 413 329 401 339 l 175 463 b 50 663 89 510 50 556 l 50 769 b 297 1024 50 910 124 1024 b 544 769 471 1024 544 910 l 544 653 l 504 653 l 504 765 b 297 985 504 883 451 985 b 90 765 143 985 90 883 l 90 675 b 217 489 90 576 117 543 l 307 440 b 453 271 428 374 453 351 l 453 243 b 296 68 453 151 415 68 b 138 243 176 68 138 151 l 138 268 l 178 268 l 178 249 b 296 107 178 168 211 107 b 413 249 379 107 413 168 m 236 1090 l 333 1243 l 374 1243 l 275 1090 m 315 1090 l 443 1243 l 485 1243 l 356 1090 "},"ṡ":{"ha":599,"x_min":0,"x_max":0,"o":""},"ŝ":{"ha":599,"x_min":0,"x_max":0,"o":"m 504 289 b 356 474 504 383 460 418 l 269 519 b 142 690 153 581 142 607 l 142 760 b 297 935 142 851 179 935 b 454 760 415 935 454 851 l 454 653 l 414 653 l 414 754 b 297 896 414 835 381 896 b 182 754 215 896 182 835 l 182 703 b 311 546 182 629 185 613 l 394 501 b 544 303 485 453 544 407 l 544 233 b 296 -21 544 93 471 -21 b 47 233 121 -21 47 93 l 47 268 l 88 268 l 88 238 b 296 18 88 119 140 18 b 504 238 451 18 504 119 m 413 256 b 267 413 413 329 401 339 l 175 463 b 50 663 89 510 50 556 l 50 769 b 297 1024 50 910 124 1024 b 544 769 471 1024 544 910 l 544 653 l 504 653 l 504 765 b 297 985 504 883 451 985 b 90 765 143 985 90 883 l 90 675 b 217 489 90 576 117 543 l 307 440 b 453 271 428 374 453 351 l 453 243 b 296 68 453 151 415 68 b 138 243 176 68 138 151 l 138 268 l 178 268 l 178 249 b 296 107 178 168 211 107 b 413 249 379 107 413 168 m 435 1090 l 343 1217 l 249 1217 l 157 1090 l 117 1090 l 228 1243 l 364 1243 l 475 1090 m 356 1090 l 296 1175 l 236 1090 l 196 1090 l 264 1183 l 328 1183 l 396 1090 "},"Ș":{"ha":599,"x_min":0,"x_max":0,"o":"m 504 289 b 356 474 504 383 460 418 l 269 519 b 142 690 153 581 142 607 l 142 760 b 297 935 142 851 179 935 b 454 760 415 935 454 851 l 454 653 l 414 653 l 414 754 b 297 896 414 835 381 896 b 182 754 215 896 182 835 l 182 703 b 311 546 182 629 185 613 l 394 501 b 544 303 485 453 544 407 l 544 233 b 296 -21 544 93 471 -21 b 47 233 121 -21 47 93 l 47 268 l 88 268 l 88 238 b 296 18 88 119 140 18 b 504 238 451 18 504 119 m 413 256 b 267 413 413 329 401 339 l 175 463 b 50 663 89 510 50 556 l 50 769 b 297 1024 50 910 124 1024 b 544 769 471 1024 544 910 l 544 653 l 504 653 l 504 765 b 297 985 504 883 451 985 b 90 765 143 985 90 883 l 90 675 b 217 489 90 576 117 543 l 307 440 b 453 271 428 374 453 351 l 453 243 b 296 68 453 151 415 68 b 138 243 176 68 138 151 l 138 268 l 178 268 l 178 249 b 296 107 178 168 211 107 b 413 249 379 107 413 168 m 206 -314 l 260 -69 l 300 -69 l 243 -314 m 274 -314 l 346 -69 l 386 -69 l 311 -314 "},"ș":{"ha":599,"x_min":0,"x_max":0,"o":"m 504 289 b 356 474 504 383 460 418 l 269 519 b 142 690 153 581 142 607 l 142 760 b 297 935 142 851 179 935 b 454 760 415 935 454 851 l 454 653 l 414 653 l 414 754 b 297 896 414 835 381 896 b 182 754 215 896 182 835 l 182 703 b 311 546 182 629 185 613 l 394 501 b 544 303 485 453 544 407 l 544 233 b 296 -21 544 93 471 -21 b 47 233 121 -21 47 93 l 47 268 l 88 268 l 88 238 b 296 18 88 119 140 18 b 504 238 451 18 504 119 m 413 256 b 267 413 413 329 401 339 l 175 463 b 50 663 89 510 50 556 l 50 769 b 297 1024 50 910 124 1024 b 544 769 471 1024 544 910 l 544 653 l 504 653 l 504 765 b 297 985 504 883 451 985 b 90 765 143 985 90 883 l 90 675 b 217 489 90 576 117 543 l 307 440 b 453 271 428 374 453 351 l 453 243 b 296 68 453 151 415 68 b 138 243 176 68 138 151 l 138 268 l 178 268 l 178 249 b 296 107 178 168 211 107 b 413 249 379 107 413 168 m 206 -314 l 260 -69 l 300 -69 l 243 -314 m 274 -314 l 346 -69 l 386 -69 l 311 -314 "},"Ĩ":{"ha":425,"x_min":0,"x_max":0,"o":""},"Ũ":{"ha":647,"x_min":0,"x_max":0,"o":"m 324 -21 b 75 233 149 -21 75 93 l 75 1003 l 115 1003 l 115 238 b 324 18 115 119 168 18 b 532 238 479 18 532 119 l 532 1003 l 572 1003 l 572 233 b 324 -21 572 93 499 -21 m 324 68 b 167 243 204 68 167 151 l 167 1003 l 207 1003 l 207 249 b 324 107 207 168 240 107 b 440 249 407 107 440 168 l 440 1003 l 481 1003 l 481 243 b 324 68 481 151 443 68 m 390 1076 b 257 1118 342 1076 300 1118 b 208 1076 238 1118 224 1108 l 181 1094 b 257 1150 197 1132 226 1150 b 390 1108 301 1150 343 1108 b 490 1186 439 1108 471 1144 l 518 1169 b 390 1076 496 1122 450 1076 m 257 1219 b 390 1178 306 1219 347 1178 b 439 1219 410 1178 424 1188 l 467 1201 b 390 1146 450 1164 421 1146 b 257 1188 346 1146 304 1188 b 157 1110 208 1188 176 1151 l 129 1126 b 257 1219 151 1174 197 1219 "},"ĩ":{"ha":425,"x_min":0,"x_max":0,"o":""},"ů":{"ha":650,"x_min":0,"x_max":0,"o":""},"ũ":{"ha":650,"x_min":0,"x_max":0,"o":"m 207 1003 l 207 279 b 226 142 207 222 207 175 b 300 104 242 115 267 104 b 440 336 407 104 440 214 l 440 1003 l 481 1003 l 481 342 b 293 65 481 208 440 65 b 197 118 247 65 219 82 b 167 275 174 156 167 208 l 167 1003 m 115 1003 l 115 269 b 153 82 115 190 124 128 b 282 18 181 39 221 18 b 481 174 439 18 481 174 l 481 0 l 447 0 l 447 67 b 274 -21 431 40 375 -21 b 119 58 199 -21 150 13 b 75 265 86 108 75 175 l 75 1003 m 572 1003 l 572 0 l 532 0 l 532 1003 m 389 1076 b 256 1118 340 1076 299 1118 b 207 1076 236 1118 222 1108 l 179 1094 b 256 1150 196 1132 225 1150 b 389 1108 300 1150 342 1108 b 489 1186 438 1108 469 1144 l 517 1169 b 389 1076 494 1122 449 1076 m 256 1219 b 389 1178 304 1219 346 1178 b 438 1219 408 1178 422 1188 l 465 1201 b 389 1146 449 1164 419 1146 b 256 1188 344 1146 303 1188 b 156 1110 207 1188 175 1151 l 128 1126 b 256 1219 150 1174 196 1219 "},"^":{"ha":686,"x_min":0,"x_max":0,"o":"m 289 954 l 60 565 l 21 565 l 268 983 l 418 983 l 665 565 l 626 565 l 397 954 m 568 565 l 529 565 l 343 878 l 157 565 l 118 565 l 326 915 l 360 915 "},"‛":{"ha":257,"x_min":0,"x_max":0,"o":"m 181 711 l 111 1003 l 151 1003 l 218 711 m 113 711 l 25 1003 l 65 1003 l 150 711 "},"Ę":{"ha":503,"x_min":0,"x_max":0,"o":"m 435 -249 b 351 -269 410 -262 381 -269 b 199 -136 275 -269 199 -222 b 271 0 199 -86 224 -35 l 78 0 l 78 1003 l 450 1003 l 450 964 l 118 964 l 118 39 l 364 39 b 231 -128 251 -26 231 -85 b 361 -237 231 -199 294 -237 b 435 -221 407 -237 435 -221 m 169 476 l 169 917 l 450 917 l 450 878 l 210 878 l 210 515 l 429 515 l 429 476 m 169 86 l 169 429 l 429 429 l 429 390 l 210 390 l 210 125 l 450 125 l 450 86 m 435 -181 b 375 -192 435 -181 404 -192 b 274 -117 324 -192 274 -168 b 403 39 274 -78 297 -24 l 450 39 l 450 0 l 383 0 b 306 -107 321 -39 306 -79 b 385 -162 306 -146 343 -162 b 435 -153 417 -162 435 -153 "},"Ą":{"ha":617,"x_min":0,"x_max":0,"o":"m 308 985 b 161 811 190 985 169 903 l 83 0 l 43 0 l 121 819 b 308 1024 131 915 154 1024 b 496 819 463 1024 486 915 l 574 0 b 464 -107 488 -22 464 -64 b 543 -162 464 -146 501 -162 b 593 -153 575 -162 593 -153 l 593 -181 b 533 -192 593 -181 563 -192 b 432 -117 482 -192 432 -168 b 532 8 432 -75 450 -28 l 456 811 b 308 985 447 903 426 985 m 485 0 b 389 -128 414 -29 389 -79 b 519 -237 389 -199 453 -237 b 593 -221 565 -237 593 -221 l 593 -249 b 510 -269 568 -262 539 -269 b 357 -136 433 -269 357 -222 b 443 8 357 -83 385 -29 l 421 246 l 196 246 l 172 0 l 132 0 l 160 285 l 457 285 l 485 0 m 210 801 b 308 935 218 886 236 935 b 407 801 381 935 399 886 l 451 332 l 165 332 m 208 371 l 408 371 l 368 804 b 308 896 361 878 346 896 b 249 804 271 896 256 878 "},"Į":{"ha":288,"x_min":0,"x_max":0,"o":"m 253 -249 b 169 -269 228 -262 199 -269 b 17 -136 93 -269 17 -222 b 78 -8 17 -90 38 -43 l 78 1003 l 118 1003 l 118 -6 b 49 -128 71 -40 49 -86 b 179 -237 49 -199 113 -237 b 253 -221 225 -237 253 -221 m 253 -181 b 193 -192 253 -181 222 -192 b 92 -117 142 -192 92 -168 b 169 0 92 -81 114 -36 l 169 1003 l 210 1003 l 210 0 b 124 -107 142 -31 124 -81 b 203 -162 124 -146 161 -162 b 253 -153 235 -162 253 -153 "},"Ų":{"ha":647,"x_min":0,"x_max":0,"o":"m 481 1003 l 481 243 b 324 68 481 151 443 68 b 167 243 204 68 167 151 l 167 1003 l 207 1003 l 207 249 b 324 107 207 168 240 107 b 440 249 407 107 440 168 l 440 1003 m 115 1003 l 115 238 b 324 18 115 119 168 18 b 356 19 347 18 356 19 b 256 -128 283 -32 256 -79 b 386 -237 256 -199 319 -237 b 460 -221 432 -237 460 -221 l 460 -249 b 376 -269 435 -262 406 -269 b 224 -136 300 -269 224 -222 b 275 -18 224 -94 242 -51 b 75 233 138 1 75 103 l 75 1003 m 572 1003 l 572 233 b 388 -15 572 108 515 10 b 331 -107 344 -50 331 -83 b 410 -162 331 -146 368 -162 b 460 -153 442 -162 460 -153 l 460 -181 b 400 -192 460 -181 429 -192 b 299 -117 349 -192 299 -168 b 401 28 299 -79 317 -37 b 532 238 482 57 532 132 l 532 1003 "},"ą":{"ha":647,"x_min":0,"x_max":0,"o":"m 167 332 l 167 760 b 324 935 167 851 204 935 b 481 760 443 935 481 851 l 481 332 m 207 371 l 440 371 l 440 754 b 324 896 440 835 407 896 b 207 754 240 896 207 835 m 601 -181 b 542 -192 601 -181 571 -192 b 440 -117 490 -192 440 -168 b 532 3 440 -78 457 -31 l 532 765 b 324 985 532 883 479 985 b 115 765 168 985 115 883 l 115 0 l 75 0 l 75 769 b 324 1024 75 910 149 1024 b 572 769 499 1024 572 910 l 572 0 b 472 -107 492 -22 472 -76 b 551 -162 472 -146 510 -162 b 601 -153 583 -162 601 -153 m 601 -249 b 518 -269 576 -262 547 -269 b 365 -136 442 -269 365 -222 b 440 1 365 -85 392 -32 l 440 246 l 207 246 l 207 0 l 167 0 l 167 285 l 481 285 l 481 0 b 397 -128 415 -36 397 -79 b 528 -237 397 -199 461 -237 b 601 -221 574 -237 601 -221 "},"ę":{"ha":625,"x_min":0,"x_max":0,"o":"m 458 -249 b 375 -269 433 -262 404 -269 b 222 -136 299 -269 222 -222 b 274 -18 222 -94 240 -51 b 67 233 128 -1 67 104 l 67 769 b 315 1024 67 910 140 1024 b 564 769 490 1024 564 910 l 564 390 l 199 390 l 199 249 b 315 107 199 168 232 107 b 433 249 400 107 433 168 l 433 268 l 474 268 l 474 243 b 315 68 474 151 435 68 b 158 243 196 68 158 151 l 158 429 l 524 429 l 524 765 b 315 985 524 883 471 985 b 107 765 160 985 107 883 l 107 238 b 315 18 107 119 160 18 b 357 21 328 18 342 18 b 254 -128 285 -28 254 -79 b 385 -237 254 -199 318 -237 b 458 -221 431 -237 458 -221 m 158 476 l 158 760 b 315 935 158 851 196 935 b 472 760 435 935 472 851 l 472 476 m 199 515 l 432 515 l 432 754 b 315 896 432 835 399 896 b 199 754 232 896 199 835 m 297 -117 b 413 35 297 -81 319 -32 b 524 238 483 68 524 128 l 524 268 l 564 268 l 564 233 b 389 -12 564 114 511 14 b 329 -107 344 -49 329 -82 b 408 -162 329 -146 367 -162 b 458 -153 440 -162 458 -153 l 458 -181 b 399 -192 458 -181 428 -192 b 297 -117 347 -192 297 -168 "},"ǫ":{"ha":631,"x_min":0,"x_max":0,"o":"m 315 68 b 158 243 196 68 158 151 l 158 760 b 315 935 158 851 196 935 b 472 760 435 935 472 851 l 472 243 b 315 68 472 151 435 68 m 199 249 b 315 107 199 168 232 107 b 432 249 399 107 432 168 l 432 754 b 315 896 432 835 399 896 b 199 754 232 896 199 835 m 451 -181 b 392 -192 451 -181 421 -192 b 290 -117 340 -192 290 -168 b 393 28 290 -79 308 -37 b 524 238 474 57 524 132 l 524 765 b 315 985 524 883 471 985 b 107 765 160 985 107 883 l 107 238 b 315 18 107 119 160 18 b 347 19 339 18 347 19 b 247 -128 275 -32 247 -79 b 378 -237 247 -199 311 -237 b 451 -221 424 -237 451 -221 l 451 -249 b 368 -269 426 -262 397 -269 b 215 -136 292 -269 215 -222 b 267 -18 215 -94 233 -51 b 67 233 129 1 67 103 l 67 769 b 315 1024 67 910 140 1024 b 564 769 490 1024 564 910 l 564 233 b 379 -15 564 108 507 10 b 322 -107 336 -50 322 -83 b 401 -162 322 -146 360 -162 b 451 -153 433 -162 451 -153 "},"ų":{"ha":650,"x_min":0,"x_max":0,"o":"m 207 1003 l 207 279 b 228 142 207 222 208 175 b 300 104 243 115 267 104 b 440 336 407 104 440 214 l 440 1003 l 481 1003 l 481 342 b 293 65 481 208 440 65 b 197 118 247 65 219 82 b 167 275 174 156 167 208 l 167 1003 m 614 -249 b 531 -269 589 -262 560 -269 b 378 -136 454 -269 378 -222 b 447 -1 378 -87 401 -36 l 447 67 b 274 -21 431 40 375 -21 b 119 58 199 -21 150 13 b 75 265 86 108 75 175 l 75 1003 l 115 1003 l 115 269 b 153 82 115 190 124 128 b 282 18 181 39 221 18 b 481 172 431 18 476 158 l 481 -6 b 410 -128 433 -40 410 -87 b 540 -237 410 -199 474 -237 b 614 -221 586 -237 614 -221 m 614 -181 b 554 -192 614 -181 583 -192 b 453 -117 503 -192 453 -168 b 532 4 453 -81 476 -35 l 532 1003 l 572 1003 l 572 0 b 485 -107 504 -28 485 -76 b 564 -162 485 -146 522 -162 b 614 -153 596 -162 614 -153 "},"į":{"ha":288,"x_min":0,"x_max":0,"o":"m 253 -249 b 169 -269 228 -262 199 -269 b 17 -136 93 -269 17 -222 b 78 -8 17 -90 38 -43 l 78 1003 l 118 1003 l 118 -6 b 49 -128 71 -40 49 -86 b 179 -237 49 -199 113 -237 b 253 -221 225 -237 253 -221 m 253 -181 b 193 -192 253 -181 222 -192 b 92 -117 142 -192 92 -168 b 169 0 92 -81 114 -36 l 169 1003 l 210 1003 l 210 0 b 124 -107 142 -31 124 -81 b 203 -162 124 -146 161 -162 b 253 -153 235 -162 253 -153 "},"Ǫ":{"ha":631,"x_min":0,"x_max":0,"o":"m 315 68 b 158 243 196 68 158 151 l 158 760 b 315 935 158 851 196 935 b 472 760 435 935 472 851 l 472 243 b 315 68 472 151 435 68 m 199 249 b 315 107 199 168 232 107 b 432 249 399 107 432 168 l 432 754 b 315 896 432 835 399 896 b 199 754 232 896 199 835 m 451 -181 b 392 -192 451 -181 421 -192 b 290 -117 340 -192 290 -168 b 393 28 290 -79 308 -37 b 524 238 474 57 524 132 l 524 765 b 315 985 524 883 471 985 b 107 765 160 985 107 883 l 107 238 b 315 18 107 119 160 18 b 347 19 339 18 347 19 b 247 -128 275 -32 247 -79 b 378 -237 247 -199 311 -237 b 451 -221 424 -237 451 -221 l 451 -249 b 368 -269 426 -262 397 -269 b 215 -136 292 -269 215 -222 b 267 -18 215 -94 233 -51 b 67 233 129 1 67 103 l 67 769 b 315 1024 67 910 140 1024 b 564 769 490 1024 564 910 l 564 233 b 379 -15 564 108 507 10 b 322 -107 336 -50 322 -83 b 401 -162 322 -146 360 -162 b 451 -153 433 -162 451 -153 "},"ş":{"ha":599,"x_min":0,"x_max":0,"o":"m 285 -322 b 147 -196 174 -322 147 -264 l 147 -189 l 171 -189 l 171 -196 b 281 -297 171 -250 192 -297 l 321 -297 b 417 -185 383 -297 417 -269 b 321 -81 417 -93 386 -81 l 294 -81 l 294 18 b 504 238 451 18 504 119 l 504 289 b 356 474 504 383 460 418 l 269 519 b 142 690 153 581 142 607 l 142 760 b 297 935 142 851 179 935 b 454 760 415 935 454 851 l 454 653 l 414 653 l 414 754 b 297 896 414 835 381 896 b 182 754 215 896 182 835 l 182 703 b 311 546 182 629 185 613 l 394 501 b 544 303 485 453 544 407 l 544 233 b 319 -19 544 99 478 -10 l 319 -56 l 328 -56 b 444 -182 397 -56 444 -71 b 328 -322 444 -286 397 -322 m 178 268 l 178 249 b 296 107 178 168 211 107 b 413 249 379 107 413 168 l 413 256 b 267 413 413 329 401 339 l 175 463 b 50 663 89 510 50 556 l 50 769 b 297 1024 50 910 124 1024 b 544 769 471 1024 544 910 l 544 653 l 504 653 l 504 765 b 297 985 504 883 451 985 b 90 765 143 985 90 883 l 90 675 b 217 489 90 576 117 543 l 307 440 b 453 271 428 374 453 351 l 453 243 b 296 68 453 151 415 68 b 138 243 176 68 138 151 l 138 268 m 88 268 l 88 238 b 263 19 88 122 138 33 l 263 -114 l 314 -114 b 383 -183 365 -114 383 -132 l 383 -193 b 313 -264 383 -239 363 -264 l 275 -264 b 199 -194 214 -264 199 -233 l 199 -189 l 222 -189 l 222 -194 b 271 -239 222 -219 231 -239 l 307 -239 b 356 -194 347 -239 356 -219 l 356 -186 b 308 -139 356 -158 350 -139 l 238 -139 l 238 -15 b 47 233 110 6 47 103 l 47 268 "},"Ş":{"ha":599,"x_min":0,"x_max":0,"o":"m 285 -322 b 147 -196 174 -322 147 -264 l 147 -189 l 171 -189 l 171 -196 b 281 -297 171 -250 192 -297 l 321 -297 b 417 -185 383 -297 417 -269 b 321 -81 417 -93 386 -81 l 294 -81 l 294 18 b 504 238 451 18 504 119 l 504 289 b 356 474 504 383 460 418 l 269 519 b 142 690 153 581 142 607 l 142 760 b 297 935 142 851 179 935 b 454 760 415 935 454 851 l 454 653 l 414 653 l 414 754 b 297 896 414 835 381 896 b 182 754 215 896 182 835 l 182 703 b 311 546 182 629 185 613 l 394 501 b 544 303 485 453 544 407 l 544 233 b 319 -19 544 99 478 -10 l 319 -56 l 328 -56 b 444 -182 397 -56 444 -71 b 328 -322 444 -286 397 -322 m 178 268 l 178 249 b 296 107 178 168 211 107 b 413 249 379 107 413 168 l 413 256 b 267 413 413 329 401 339 l 175 463 b 50 663 89 510 50 556 l 50 769 b 297 1024 50 910 124 1024 b 544 769 471 1024 544 910 l 544 653 l 504 653 l 504 765 b 297 985 504 883 451 985 b 90 765 143 985 90 883 l 90 675 b 217 489 90 576 117 543 l 307 440 b 453 271 428 374 453 351 l 453 243 b 296 68 453 151 415 68 b 138 243 176 68 138 151 l 138 268 m 88 268 l 88 238 b 263 19 88 122 138 33 l 263 -114 l 314 -114 b 383 -183 365 -114 383 -132 l 383 -193 b 313 -264 383 -239 363 -264 l 275 -264 b 199 -194 214 -264 199 -233 l 199 -189 l 222 -189 l 222 -194 b 271 -239 222 -219 231 -239 l 307 -239 b 356 -194 347 -239 356 -219 l 356 -186 b 308 -139 356 -158 350 -139 l 238 -139 l 238 -15 b 47 233 110 6 47 103 l 47 268 "},"Ț":{"ha":493,"x_min":0,"x_max":0,"o":"m 254 -322 b 117 -196 143 -322 117 -264 l 117 -189 l 140 -189 l 140 -196 b 250 -297 140 -250 161 -297 l 290 -297 b 386 -185 353 -297 386 -269 b 290 -81 386 -93 356 -81 l 272 -81 l 272 917 l 465 917 l 465 878 l 313 878 l 313 0 l 297 0 l 297 -56 b 414 -182 367 -56 414 -71 b 297 -322 414 -286 367 -322 m 244 -264 b 168 -194 183 -264 168 -233 l 168 -189 l 192 -189 l 192 -194 b 240 -239 192 -219 200 -239 l 276 -239 b 325 -194 317 -239 325 -219 l 325 -186 b 278 -139 325 -158 319 -139 l 196 -139 l 196 0 l 181 0 l 181 878 l 28 878 l 28 917 l 221 917 l 221 -114 l 283 -114 b 353 -183 335 -114 353 -132 l 353 -193 b 282 -264 353 -239 332 -264 m 28 964 l 28 1003 l 465 1003 l 465 964 "},"ț":{"ha":597,"x_min":0,"x_max":0,"o":"m 115 238 b 290 19 115 122 165 33 l 290 -114 l 342 -114 b 411 -183 393 -114 411 -132 l 411 -193 b 340 -264 411 -239 390 -264 l 303 -264 b 226 -194 242 -264 226 -233 l 226 -189 l 250 -189 l 250 -194 b 299 -239 250 -219 258 -239 l 335 -239 b 383 -194 375 -239 383 -219 l 383 -186 b 336 -139 383 -158 378 -139 l 265 -139 l 265 -15 b 75 233 138 6 75 103 l 75 1003 l 115 1003 m 556 632 l 556 593 l 207 593 l 207 249 b 324 107 207 168 240 107 b 442 249 408 107 442 168 l 442 268 l 482 268 l 482 243 b 324 68 482 151 443 68 b 167 243 204 68 167 151 l 167 632 m 313 -322 b 175 -196 201 -322 175 -264 l 175 -189 l 199 -189 l 199 -196 b 308 -297 199 -250 219 -297 l 349 -297 b 444 -185 411 -297 444 -269 b 349 -81 444 -93 414 -81 l 322 -81 l 322 18 b 532 238 479 18 532 119 l 532 268 l 572 268 l 572 233 b 347 -19 572 99 506 -10 l 347 -56 l 356 -56 b 472 -182 425 -56 472 -71 b 356 -322 472 -286 425 -322 m 167 679 l 167 1003 l 207 1003 l 207 718 l 556 718 l 556 679 "},"ẃ":{"ha":872,"x_min":0,"x_max":0,"o":""},"ŵ":{"ha":872,"x_min":0,"x_max":0,"o":"m 372 1003 l 413 1003 l 413 222 b 307 68 413 132 383 68 b 213 192 240 68 219 115 l 135 1003 l 174 1003 l 250 196 b 306 107 257 128 275 107 b 372 214 344 107 372 132 m 500 214 b 567 107 500 132 528 107 b 622 196 597 107 615 128 l 699 1003 l 738 1003 l 660 192 b 565 68 653 115 632 68 b 460 222 489 68 460 132 l 460 1003 l 500 1003 m 436 40 b 308 -21 408 -7 367 -21 b 121 182 160 -21 131 86 l 43 1003 l 82 1003 l 160 188 b 308 18 168 99 196 18 b 436 124 382 18 414 60 b 564 18 458 60 490 18 b 713 188 676 18 704 99 l 790 1003 l 829 1003 l 751 182 b 564 -21 742 86 713 -21 b 436 40 506 -21 464 -7 m 575 1090 l 483 1217 l 389 1217 l 297 1090 l 257 1090 l 368 1243 l 504 1243 l 615 1090 m 496 1090 l 436 1175 l 376 1090 l 336 1090 l 404 1183 l 468 1183 l 536 1090 "},"ẅ":{"ha":872,"x_min":0,"x_max":0,"o":""},"ẁ":{"ha":872,"x_min":0,"x_max":0,"o":"m 372 1003 l 413 1003 l 413 222 b 307 68 413 132 383 68 b 213 192 240 68 219 115 l 135 1003 l 174 1003 l 250 196 b 306 107 257 128 275 107 b 372 214 344 107 372 132 m 500 214 b 567 107 500 132 528 107 b 622 196 597 107 615 128 l 699 1003 l 738 1003 l 660 192 b 565 68 653 115 632 68 b 460 222 489 68 460 132 l 460 1003 l 500 1003 m 436 40 b 308 -21 408 -7 367 -21 b 121 182 160 -21 131 86 l 43 1003 l 82 1003 l 160 188 b 308 18 168 99 196 18 b 436 124 382 18 414 60 b 564 18 458 60 490 18 b 713 188 676 18 704 99 l 790 1003 l 829 1003 l 751 182 b 564 -21 742 86 713 -21 b 436 40 506 -21 464 -7 m 457 1090 l 358 1243 l 399 1243 l 496 1090 m 376 1090 l 247 1243 l 289 1243 l 417 1090 "},"ǿ":{"ha":631,"x_min":0,"x_max":0,"o":""},"Ǿ":{"ha":631,"x_min":0,"x_max":0,"o":"m 199 111 b 156 243 167 143 156 194 l 156 760 b 315 938 156 851 196 938 b 410 911 347 938 381 931 m 196 249 b 197 221 196 236 197 221 l 372 886 b 315 899 357 894 339 899 b 196 754 229 899 196 838 m 147 33 b 67 233 90 81 67 153 l 67 769 b 315 1024 67 910 140 1024 b 406 1011 349 1024 379 1018 l 418 1058 l 449 1058 l 424 963 b 315 985 378 983 344 985 b 107 765 160 985 107 883 l 107 238 b 183 54 107 175 121 100 l 154 -56 l 124 -56 m 483 969 b 564 769 540 922 564 850 l 564 233 b 315 -21 564 93 490 -21 b 225 -8 282 -21 251 -17 l 213 -56 l 182 -56 l 207 40 b 315 18 253 19 286 18 b 524 238 471 18 524 119 l 524 765 b 447 949 524 828 510 903 l 476 1058 l 507 1058 m 432 892 b 475 760 464 860 475 808 l 475 243 b 315 65 475 151 435 65 b 221 92 283 65 250 72 m 435 754 b 433 782 435 767 433 782 l 258 117 b 315 104 274 108 292 104 b 435 249 401 104 435 165 m 256 1090 l 353 1243 l 393 1243 l 294 1090 m 335 1090 l 463 1243 l 504 1243 l 375 1090 "},"ť":{"ha":597,"x_min":0,"x_max":0,"o":""},"ľ":{"ha":503,"x_min":0,"x_max":0,"o":"m 78 0 l 78 1003 l 118 1003 l 118 39 l 422 39 l 422 0 m 169 86 l 169 1003 l 210 1003 l 210 125 l 422 125 l 422 86 m 288 711 l 354 1003 l 394 1003 l 325 711 m 356 711 l 440 1003 l 481 1003 l 393 711 "},"{":{"ha":406,"x_min":0,"x_max":0,"o":"m 196 501 b 253 385 246 476 253 439 l 253 36 b 324 -44 253 -18 261 -44 l 371 -44 l 371 -82 l 303 -82 b 213 24 232 -82 213 -49 l 213 378 b 129 501 213 433 196 471 b 213 625 196 532 213 569 l 213 979 b 303 1085 213 1051 232 1085 l 371 1085 l 371 1047 l 324 1047 b 253 967 261 1047 253 1021 l 253 618 b 196 501 253 564 246 526 m 58 486 b 168 369 129 486 168 429 l 168 8 b 288 -114 168 -83 206 -114 l 371 -114 l 371 -151 l 267 -151 b 128 -4 176 -151 128 -114 l 128 361 b 58 447 128 424 99 447 l 21 447 l 21 486 m 21 517 l 21 556 l 58 556 b 128 642 99 556 128 579 l 128 1007 b 267 1154 128 1117 176 1154 l 371 1154 l 371 1117 l 288 1117 b 168 994 206 1117 168 1086 l 168 633 b 58 517 168 574 129 517 "},"}":{"ha":406,"x_min":0,"x_max":0,"o":"m 210 501 b 153 618 160 526 153 564 l 153 967 b 82 1047 153 1021 144 1047 l 35 1047 l 35 1085 l 103 1085 b 193 979 174 1085 193 1051 l 193 625 b 276 501 193 569 210 532 b 193 378 210 471 193 433 l 193 24 b 103 -82 193 -49 174 -82 l 35 -82 l 35 -44 l 82 -44 b 153 36 144 -44 153 -18 l 153 385 b 210 501 153 439 160 476 m 385 486 l 385 447 l 347 447 b 278 361 307 447 278 424 l 278 -4 b 139 -151 278 -114 229 -151 l 35 -151 l 35 -114 l 118 -114 b 238 8 200 -114 238 -83 l 238 369 b 347 486 238 429 276 486 m 347 517 b 238 633 276 517 238 574 l 238 994 b 118 1117 238 1086 200 1117 l 35 1117 l 35 1154 l 139 1154 b 278 1007 229 1154 278 1117 l 278 642 b 347 556 278 579 307 556 l 385 556 l 385 517 "},"≤":{"ha":503,"x_min":0,"x_max":0,"o":"m 50 0 l 50 36 l 453 36 l 453 0 m 50 72 l 50 108 l 453 108 l 453 72 m 69 528 l 390 175 l 363 154 l 29 521 l 29 535 l 363 901 l 390 881 m 135 528 l 429 850 l 457 829 l 182 528 l 457 226 l 429 206 "},"≥":{"ha":503,"x_min":0,"x_max":0,"o":"m 50 0 l 50 36 l 453 36 l 453 0 m 50 72 l 50 108 l 453 108 l 453 72 m 113 881 l 140 901 l 474 535 l 474 521 l 140 154 l 113 175 l 433 528 m 74 206 l 46 226 l 321 528 l 46 829 l 74 850 l 368 528 "},"¼":{"ha":874,"x_min":0,"x_max":0,"o":"m 213 458 l 213 968 l 175 968 l 39 826 l 17 846 l 168 1003 l 247 1003 l 247 458 m 139 458 l 139 849 l 81 788 l 58 807 l 174 928 l 174 458 m 197 0 l 667 1003 l 707 1003 l 238 0 m 118 0 l 589 1003 l 629 1003 l 158 0 m 699 0 l 699 125 l 482 125 l 482 224 l 603 544 l 639 544 l 514 213 l 514 157 l 731 157 l 731 0 m 550 193 l 550 210 l 675 544 l 711 544 l 592 224 l 699 224 l 699 406 l 731 406 l 731 193 m 761 193 l 761 406 l 793 406 l 793 224 l 844 224 l 844 193 m 761 0 l 761 157 l 844 157 l 844 125 l 793 125 l 793 0 "},"½":{"ha":933,"x_min":0,"x_max":0,"o":"m 213 458 l 213 968 l 175 968 l 39 826 l 17 846 l 168 1003 l 247 1003 l 247 458 m 139 458 l 139 849 l 81 788 l 58 807 l 174 928 l 174 458 m 197 0 l 667 1003 l 707 1003 l 238 0 m 118 0 l 589 1003 l 629 1003 l 158 0 m 889 356 b 821 242 889 301 871 269 l 738 197 b 656 107 663 157 656 144 l 656 99 l 889 99 l 889 67 l 621 67 l 621 114 b 703 218 621 163 638 183 l 783 261 b 853 367 840 292 853 317 l 853 415 b 719 531 853 483 811 531 b 586 415 628 531 586 483 l 586 367 l 550 367 l 550 424 b 719 565 550 504 606 565 b 889 419 832 565 889 504 m 715 297 b 786 385 785 335 786 343 l 786 404 b 719 465 786 440 769 465 b 650 400 669 465 650 447 l 650 367 l 617 367 l 617 408 b 719 497 617 465 649 497 b 822 408 790 497 822 465 l 822 375 b 751 279 822 329 815 314 l 672 236 b 585 121 615 206 585 182 l 585 32 l 889 32 l 889 0 l 550 0 l 550 129 b 639 256 550 200 590 229 "},"¾":{"ha":975,"x_min":0,"x_max":0,"o":"m 299 0 l 768 1003 l 808 1003 l 339 0 m 219 0 l 690 1003 l 731 1003 l 260 0 m 800 0 l 800 125 l 583 125 l 583 224 l 704 544 l 740 544 l 615 213 l 615 157 l 832 157 l 832 0 m 651 193 l 651 210 l 776 544 l 813 544 l 693 224 l 800 224 l 800 406 l 832 406 l 832 193 m 863 193 l 863 406 l 894 406 l 894 224 l 946 224 l 946 193 m 863 0 l 863 157 l 946 157 l 946 125 l 894 125 l 894 0 m 43 821 l 43 854 b 214 1024 43 961 103 1024 b 383 854 325 1024 383 961 l 383 825 b 331 722 383 783 365 739 b 383 606 358 706 383 671 b 214 438 383 501 325 438 b 43 607 103 438 43 503 l 43 624 l 79 624 l 79 614 b 214 472 79 528 121 472 b 347 604 307 472 347 528 b 276 722 347 661 335 703 b 347 826 343 744 347 789 l 347 851 b 214 989 347 940 307 989 b 79 851 121 989 79 940 l 79 821 m 142 707 l 214 707 b 311 601 288 707 311 651 b 214 503 311 547 285 503 b 111 618 143 503 111 547 l 111 624 l 144 624 b 214 533 146 569 160 533 b 281 601 258 533 281 558 b 215 674 281 643 258 674 l 142 674 m 142 771 l 217 771 b 281 832 258 771 281 797 l 281 844 b 214 928 281 889 268 928 b 144 844 160 928 144 889 l 144 821 l 111 821 l 111 847 b 214 958 111 914 143 958 b 311 847 285 958 311 914 l 311 829 b 214 738 311 794 288 738 l 142 738 "},"≠":{"ha":764,"x_min":0,"x_max":0,"o":"m 386 610 l 331 393 l 71 393 l 71 432 l 299 432 l 335 571 l 71 571 l 71 610 m 693 610 l 693 571 l 465 571 l 429 432 l 693 432 l 693 393 l 378 393 l 433 610 m 71 654 l 71 693 l 365 693 l 421 907 l 463 907 l 397 654 m 693 349 l 693 310 l 397 310 l 343 97 l 301 97 l 367 349 m 510 907 l 551 907 l 496 693 l 693 693 l 693 654 l 444 654 m 254 97 l 213 97 l 267 310 l 71 310 l 71 349 l 319 349 "},"£":{"ha":683,"x_min":0,"x_max":0,"o":"m 43 440 l 43 479 l 150 479 l 150 776 b 392 1024 150 917 224 1024 b 633 776 560 1024 633 917 l 633 653 l 593 653 l 593 772 b 392 985 593 890 532 985 b 190 772 251 985 190 890 l 190 440 m 553 479 l 553 440 l 242 440 l 242 767 b 392 935 242 858 288 935 b 543 767 496 935 543 858 l 543 653 l 503 653 l 503 761 b 392 896 503 842 469 896 b 282 761 315 896 282 842 l 282 479 m 242 86 l 242 400 l 553 400 l 553 361 l 282 361 l 282 125 l 633 125 l 633 86 m 43 0 l 43 39 l 633 39 l 633 0 m 43 86 l 43 125 l 150 125 l 150 361 l 43 361 l 43 400 l 190 400 l 190 86 "},"₨":{"ha":672,"x_min":0,"x_max":0,"o":"m 633 683 l 633 644 l 460 644 l 460 626 b 353 453 460 536 419 472 b 439 279 406 433 424 381 l 481 0 l 440 0 l 400 276 b 283 453 386 374 365 431 b 419 629 390 488 419 540 l 419 683 m 81 431 l 193 431 b 347 272 303 431 333 363 l 390 0 l 349 0 l 307 268 b 196 390 293 356 267 390 l 81 390 m 81 724 l 81 763 l 328 763 l 328 810 b 258 878 328 850 313 878 l 81 878 l 81 917 l 268 917 b 369 813 338 917 369 882 l 369 724 m 369 683 l 369 633 b 193 475 369 536 311 475 l 81 475 l 81 515 l 196 515 b 328 638 281 515 328 550 l 328 644 l 81 644 l 81 683 m 81 1003 l 633 1003 l 633 964 l 81 964 m 633 917 l 633 878 l 440 878 b 460 821 453 867 460 846 l 460 763 l 633 763 l 633 724 l 419 724 l 419 817 b 389 917 419 861 408 892 "},"₣":{"ha":560,"x_min":0,"x_max":0,"o":"m 26 254 l 26 294 l 151 294 l 151 1003 l 524 1003 l 524 964 l 192 964 l 192 254 m 243 553 l 243 917 l 524 917 l 524 878 l 283 878 l 283 592 l 503 592 l 503 553 m 243 254 l 243 506 l 503 506 l 503 467 l 283 467 l 283 294 l 414 294 l 414 254 m 243 0 l 243 217 l 414 217 l 414 176 l 283 176 l 283 0 m 151 0 l 151 176 l 26 176 l 26 217 l 192 217 l 192 0 "},"₺":{"ha":682,"x_min":0,"x_max":0,"o":"m 161 0 l 161 382 l 90 338 l 72 367 l 201 449 l 201 39 l 301 39 b 615 431 557 39 615 279 l 656 431 b 286 0 656 175 535 0 m 253 86 l 253 481 l 494 633 l 513 604 l 293 465 l 293 128 l 314 128 b 526 431 418 128 525 231 l 564 431 b 310 86 563 221 456 86 m 253 531 l 253 718 l 490 867 l 508 838 l 293 701 l 293 597 l 453 699 l 471 669 m 44 638 l 26 667 l 161 750 l 161 1003 l 201 1003 l 201 735 m 49 403 l 31 432 l 161 514 l 161 619 l 86 572 l 68 601 l 201 685 l 201 499 m 253 767 l 253 1003 l 293 1003 l 293 833 l 450 932 l 468 903 "},"ƒ":{"ha":624,"x_min":0,"x_max":0,"o":"m 22 0 l 26 39 l 74 39 b 243 90 149 39 207 53 b 315 289 283 133 306 199 l 342 536 l 524 536 l 519 496 l 378 496 l 356 286 b 269 63 344 185 321 110 b 69 0 225 21 160 0 m 31 85 l 35 125 l 81 125 b 178 157 125 125 157 136 b 224 294 206 185 217 231 l 244 496 l 104 496 l 108 536 l 289 536 l 263 292 b 206 129 254 217 240 164 b 76 85 178 101 136 85 m 601 1003 l 597 964 l 550 964 b 381 913 475 964 417 950 b 308 714 340 869 318 804 l 294 581 l 113 581 l 117 621 l 258 621 l 268 717 b 354 940 279 818 303 893 b 554 1003 399 982 464 1003 m 593 918 l 589 878 l 543 878 b 446 846 499 878 467 867 b 400 708 418 818 407 772 l 390 621 l 532 621 l 528 581 l 347 581 l 361 711 b 418 874 369 786 383 839 b 547 918 446 901 488 918 "},"∑":{"ha":586,"x_min":0,"x_max":0,"o":"m 40 0 l 40 107 l 328 501 l 40 896 l 40 1003 l 533 1003 l 533 965 l 81 965 l 81 906 l 375 501 l 81 97 l 81 38 l 547 38 l 547 0 m 131 88 l 425 492 l 425 511 l 132 915 l 533 915 l 533 878 l 206 878 l 471 513 l 471 490 l 206 125 l 547 125 l 547 88 "},"√":{"ha":722,"x_min":0,"x_max":0,"o":"m 264 40 l 683 1007 l 718 992 l 264 -54 l 6 486 l 42 506 m 264 129 l 75 524 l 111 543 l 264 224 l 617 1036 l 651 1021 "},"Ω":{"ha":625,"x_min":0,"x_max":0,"o":"m 313 896 b 196 754 229 896 196 835 l 196 401 b 268 238 196 301 215 256 l 268 0 l 71 0 l 71 40 l 231 40 l 231 218 b 156 396 164 260 156 317 l 156 760 b 313 935 156 851 193 935 b 469 760 432 935 469 851 l 469 396 b 394 218 469 317 461 260 l 394 40 l 554 40 l 554 0 l 357 0 l 357 238 b 429 401 410 256 429 301 l 429 754 b 313 896 429 835 396 896 m 313 985 b 104 765 157 985 104 883 l 104 390 b 194 199 104 272 131 235 l 194 85 l 71 85 l 71 125 l 157 125 l 157 182 b 64 386 90 221 64 297 l 64 769 b 313 1024 64 910 138 1024 b 561 769 488 1024 561 910 l 561 386 b 468 182 561 297 535 221 l 468 125 l 554 125 l 554 85 l 431 85 l 431 199 b 521 390 494 235 521 272 l 521 765 b 313 985 521 883 468 985 "},"⁰":{"ha":453,"x_min":0,"x_max":0,"o":"m 57 851 b 226 1021 57 956 107 1021 b 396 851 346 1021 396 956 l 396 607 b 226 438 396 503 346 438 b 57 607 107 438 57 503 m 226 986 b 93 844 133 986 93 933 l 93 614 b 226 472 93 525 133 472 b 360 614 319 472 360 525 l 360 844 b 226 986 360 933 319 986 m 129 838 b 226 953 129 904 156 953 b 324 838 297 953 324 904 l 324 621 b 226 506 324 554 297 506 b 129 621 156 506 129 554 m 226 918 b 165 829 181 918 165 879 l 165 629 b 226 540 165 579 181 540 b 288 629 272 540 288 579 l 288 829 b 226 918 288 879 272 918 "},"¹":{"ha":314,"x_min":0,"x_max":0,"o":"m 211 458 l 211 968 l 174 968 l 38 826 l 15 846 l 167 1003 l 246 1003 l 246 458 m 138 458 l 138 849 l 79 788 l 57 807 l 172 928 l 172 458 "},"²":{"ha":454,"x_min":0,"x_max":0,"o":"m 396 814 b 328 700 396 760 378 728 l 244 656 b 163 565 169 615 163 603 l 163 557 l 396 557 l 396 525 l 128 525 l 128 572 b 210 676 128 621 144 642 l 290 719 b 360 825 347 750 360 775 l 360 874 b 226 989 360 942 318 989 b 93 874 135 989 93 942 l 93 825 l 57 825 l 57 882 b 226 1024 57 963 113 1024 b 396 878 339 1024 396 963 m 222 756 b 293 843 292 793 293 801 l 293 863 b 226 924 293 899 276 924 b 157 858 176 924 157 906 l 157 825 l 124 825 l 124 867 b 226 956 124 924 156 956 b 329 867 297 956 329 924 l 329 833 b 258 738 329 788 322 772 l 179 694 b 92 579 122 664 92 640 l 92 490 l 396 490 l 396 458 l 57 458 l 57 588 b 146 714 57 658 97 688 "},"³":{"ha":454,"x_min":0,"x_max":0,"o":"m 56 821 l 56 854 b 226 1024 56 961 115 1024 b 396 854 338 1024 396 961 l 396 825 b 343 722 396 783 378 739 b 396 606 371 706 396 671 b 226 438 396 501 338 438 b 56 607 115 438 56 503 l 56 624 l 92 624 l 92 614 b 226 472 92 528 133 472 b 360 604 319 472 360 528 b 289 722 360 661 347 703 b 360 826 356 744 360 789 l 360 851 b 226 989 360 940 319 989 b 92 851 133 989 92 940 l 92 821 m 154 707 l 226 707 b 324 601 300 707 324 651 b 226 503 324 547 297 503 b 124 618 156 503 124 547 l 124 624 l 157 624 b 226 533 158 569 172 533 b 293 601 271 533 293 558 b 228 674 293 643 271 674 l 154 674 m 154 771 l 229 771 b 293 832 271 771 293 797 l 293 844 b 226 928 293 889 281 928 b 157 844 172 928 157 889 l 157 821 l 124 821 l 124 847 b 226 958 124 914 156 958 b 324 847 297 958 324 914 l 324 829 b 226 738 324 794 300 738 l 154 738 "},"⁴":{"ha":446,"x_min":0,"x_max":0,"o":"m 261 458 l 261 583 l 44 583 l 44 682 l 165 1003 l 201 1003 l 76 671 l 76 615 l 293 615 l 293 458 m 113 651 l 113 668 l 238 1003 l 274 1003 l 154 682 l 261 682 l 261 864 l 293 864 l 293 651 m 324 651 l 324 864 l 356 864 l 356 682 l 407 682 l 407 651 m 324 458 l 324 615 l 407 615 l 407 583 l 356 583 l 356 458 "},"₀":{"ha":453,"x_min":0,"x_max":0,"o":"m 57 396 b 226 565 57 500 107 565 b 396 396 346 565 396 500 l 396 149 b 226 -21 396 44 346 -21 b 57 149 107 -21 57 44 m 226 531 b 93 389 133 531 93 478 l 93 156 b 226 14 93 67 133 14 b 360 156 319 14 360 67 l 360 389 b 226 531 360 478 319 531 m 129 382 b 226 497 129 449 156 497 b 324 382 297 497 324 449 l 324 163 b 226 47 324 96 297 47 b 129 163 156 47 129 96 m 226 463 b 165 374 181 463 165 424 l 165 171 b 226 82 165 121 181 82 b 288 171 272 82 288 121 l 288 374 b 226 463 288 424 272 463 "},"₁":{"ha":314,"x_min":0,"x_max":0,"o":"m 211 0 l 211 510 l 174 510 l 38 368 l 15 388 l 167 544 l 246 544 l 246 0 m 138 0 l 138 390 l 79 329 l 57 349 l 172 469 l 172 0 "},"₂":{"ha":454,"x_min":0,"x_max":0,"o":"m 396 356 b 328 242 396 301 378 269 l 244 197 b 163 107 169 157 163 144 l 163 99 l 396 99 l 396 67 l 128 67 l 128 114 b 210 218 128 163 144 183 l 290 261 b 360 367 347 292 360 317 l 360 415 b 226 531 360 483 318 531 b 93 415 135 531 93 483 l 93 367 l 57 367 l 57 424 b 226 565 57 504 113 565 b 396 419 339 565 396 504 m 222 297 b 293 385 292 335 293 343 l 293 404 b 226 465 293 440 276 465 b 157 400 176 465 157 447 l 157 367 l 124 367 l 124 408 b 226 497 124 465 156 497 b 329 408 297 497 329 465 l 329 375 b 258 279 329 329 322 314 l 179 236 b 92 121 122 206 92 182 l 92 32 l 396 32 l 396 0 l 57 0 l 57 129 b 146 256 57 200 97 229 "},"₄":{"ha":446,"x_min":0,"x_max":0,"o":"m 261 0 l 261 125 l 44 125 l 44 224 l 165 544 l 201 544 l 76 213 l 76 157 l 293 157 l 293 0 m 113 193 l 113 210 l 238 544 l 274 544 l 154 224 l 261 224 l 261 406 l 293 406 l 293 193 m 324 193 l 324 406 l 356 406 l 356 224 l 407 224 l 407 193 m 324 0 l 324 157 l 407 157 l 407 125 l 356 125 l 356 0 "},"§":{"ha":613,"x_min":0,"x_max":0,"o":"m 504 456 b 356 640 504 550 460 585 l 269 686 b 142 815 193 728 142 757 l 142 828 b 297 935 142 872 181 935 b 454 760 415 935 454 851 l 454 736 l 414 736 l 414 754 b 297 896 414 835 381 896 b 182 824 215 896 182 856 b 311 713 182 796 185 779 l 394 668 b 544 469 485 619 544 574 l 544 206 b 296 -21 544 93 471 -21 b 47 233 121 -21 47 93 l 47 254 l 88 254 l 88 238 b 296 18 88 119 140 18 b 504 203 451 18 504 113 m 413 193 b 267 301 413 218 401 228 l 175 351 b 50 551 89 399 50 444 l 50 825 b 297 1024 50 910 124 1024 b 544 769 471 1024 544 910 l 544 736 l 504 736 l 504 765 b 297 985 504 883 451 985 b 90 824 143 985 90 894 l 90 564 b 217 378 90 465 117 432 l 307 329 b 453 196 433 261 453 247 b 296 68 453 136 415 68 b 138 243 176 68 138 151 l 138 254 l 178 254 l 178 249 b 296 107 178 168 211 107 b 413 193 379 107 413 154 m 374 396 b 415 369 397 383 415 369 l 415 422 b 311 561 415 496 388 519 l 219 611 b 179 639 197 624 179 639 l 179 592 b 290 440 179 518 193 492 m 258 415 b 139 579 165 467 139 499 l 139 726 b 246 642 167 694 194 669 l 335 593 b 456 438 415 549 456 521 l 456 285 b 343 368 438 307 397 338 "},"~":{"ha":739,"x_min":0,"x_max":0,"o":"m 228 779 b 518 685 326 779 413 685 b 682 829 574 685 622 726 l 710 813 b 513 650 647 689 582 650 b 224 742 407 650 332 742 b 115 650 185 742 158 724 l 88 667 b 228 779 133 760 179 779 m 511 735 b 221 829 413 735 326 829 b 57 685 165 829 117 788 l 29 701 b 226 864 92 825 157 864 b 515 772 332 864 407 772 b 624 864 554 772 581 790 l 651 847 b 511 735 606 754 560 735 "},"™":{"ha":978,"x_min":0,"x_max":0,"o":"m 121 458 l 121 899 l 31 899 l 31 933 l 156 933 l 156 458 m 192 458 l 192 933 l 317 933 l 317 899 l 226 899 l 226 458 m 31 968 l 31 1003 l 317 1003 l 317 968 m 625 458 l 590 458 l 590 811 b 535 908 590 867 585 908 b 479 811 485 908 479 867 l 479 458 l 444 458 l 444 828 b 529 943 444 900 472 943 b 625 828 597 943 625 900 m 661 828 b 757 943 661 900 689 943 b 842 828 814 943 842 900 l 842 458 l 807 458 l 807 811 b 751 908 807 867 801 908 b 696 811 701 908 696 867 l 696 458 l 661 458 m 643 893 b 525 979 615 961 578 979 b 408 849 450 979 408 940 l 408 458 l 374 458 l 374 863 b 521 1014 374 964 435 1014 b 643 957 574 1014 617 994 b 765 1014 669 994 713 1014 b 913 863 851 1014 913 964 l 913 458 l 878 458 l 878 849 b 761 979 878 940 836 979 b 643 893 708 979 671 961 "},"₫":{"ha":689,"x_min":0,"x_max":0,"o":"m 235 288 b 136 389 169 288 136 322 l 136 517 b 235 618 136 583 169 618 l 482 618 l 482 288 m 213 201 b 44 382 107 201 44 260 l 44 524 b 213 704 44 646 107 704 l 442 704 l 442 790 l 225 790 l 225 829 l 482 829 l 482 665 l 222 665 b 85 521 135 665 85 618 l 85 385 b 222 240 85 288 135 240 l 533 240 l 533 829 l 657 829 l 657 790 l 574 790 l 574 201 m 225 869 l 225 908 l 442 908 l 442 1003 l 482 1003 l 482 869 m 533 869 l 533 1003 l 574 1003 l 574 908 l 657 908 l 657 869 m 110 0 l 110 40 l 575 40 l 575 0 m 110 81 l 110 121 l 575 121 l 575 81 m 442 579 l 246 579 b 176 513 197 579 176 558 l 176 393 b 246 326 176 347 197 326 l 442 326 "},"Ǽ":{"ha":853,"x_min":0,"x_max":0,"o":""},"Ľ":{"ha":503,"x_min":0,"x_max":0,"o":"m 78 0 l 78 1003 l 118 1003 l 118 39 l 422 39 l 422 0 m 169 86 l 169 1003 l 210 1003 l 210 125 l 422 125 l 422 86 m 288 711 l 354 1003 l 394 1003 l 325 711 m 356 711 l 440 1003 l 481 1003 l 393 711 "},"₃":{"ha":454,"x_min":0,"x_max":0,"o":"m 56 363 l 56 396 b 226 565 56 503 115 565 b 396 396 338 565 396 503 l 396 367 b 343 264 396 325 378 281 b 396 147 371 247 396 213 b 226 -21 396 43 338 -21 b 56 149 115 -21 56 44 l 56 165 l 92 165 l 92 156 b 226 14 92 69 133 14 b 360 146 319 14 360 69 b 289 264 360 203 347 244 b 360 368 356 286 360 331 l 360 393 b 226 531 360 482 319 531 b 92 393 133 531 92 482 l 92 363 m 154 249 l 226 249 b 324 143 300 249 324 193 b 226 44 324 89 297 44 b 124 160 156 44 124 89 l 124 165 l 157 165 b 226 75 158 111 172 75 b 293 143 271 75 293 100 b 228 215 293 185 271 215 l 154 215 m 154 313 l 229 313 b 293 374 271 313 293 339 l 293 386 b 226 469 293 431 281 469 b 157 386 172 469 157 431 l 157 363 l 124 363 l 124 389 b 226 500 124 456 156 500 b 324 389 297 500 324 456 l 324 371 b 226 279 324 336 300 279 l 154 279 "}}}
